<svg fill="none">
    <symbol xmlns="http://www.w3.org/2000/svg" viewBox="0 0 7 4" id="eye">
        <path
            d="M1,1 C1.83333333,2.16666667 2.66666667,2.75 3.5,2.75 C4.33333333,2.75 5.16666667,2.16666667 6,1"></path>
    </symbol>
    <symbol xmlns="http://www.w3.org/2000/svg" viewBox="0 0 18 7" id="mouth">
        <path d="M1,5.5 C3.66666667,2.5 6.33333333,1 9,1 C11.6666667,1 14.3333333,2.5 17,5.5"></path>
    </symbol>
    <!-- list-product -->
    <symbol id="edit-content" viewBox="0 0 21 21" xmlns="http://www.w3.org/2000/svg">
        <path opacity="0.2"
            d="M18 18.834H3C2.65833 18.834 2.375 18.5507 2.375 18.209C2.375 17.8673 2.65833 17.584 3 17.584H18C18.3417 17.584 18.625 17.8673 18.625 18.209C18.625 18.5507 18.3417 18.834 18 18.834Z" />
        <path opacity="0.2"
            d="M16.35 3.39956C14.7333 1.78289 13.15 1.74123 11.4916 3.39956L10.4833 4.4079C10.4 4.49123 10.3666 4.62456 10.4 4.74123C11.0333 6.94956 12.8 8.71623 15.0083 9.34956C15.0416 9.3579 15.075 9.36623 15.1083 9.36623C15.2 9.36623 15.2833 9.3329 15.35 9.26623L16.35 8.2579C17.175 7.44123 17.575 6.64956 17.575 5.84956C17.5833 5.02456 17.1833 4.22456 16.35 3.39956Z" />
        <path
            d="M13.5089 10.1077C13.2673 9.99101 13.0339 9.87435 12.8089 9.74102C12.6256 9.63268 12.4506 9.51602 12.2756 9.39102C12.1339 9.29935 11.9673 9.16602 11.8089 9.03268C11.7923 9.02435 11.7339 8.97435 11.6673 8.90768C11.3923 8.67435 11.0839 8.37435 10.8089 8.04102C10.7839 8.02435 10.7423 7.96602 10.6839 7.89102C10.6006 7.79102 10.4589 7.62435 10.3339 7.43268C10.2339 7.30768 10.1173 7.12435 10.0089 6.94102C9.87559 6.71602 9.75892 6.49102 9.64226 6.25768C9.52559 6.00768 9.43392 5.76602 9.35059 5.54102L4.11726 10.7743C4.00892 10.8827 3.90892 11.091 3.88392 11.2327L3.43392 14.4243C3.35059 14.991 3.50892 15.5243 3.85892 15.8827C4.15892 16.1743 4.57559 16.3327 5.02559 16.3327C5.12559 16.3327 5.22559 16.3243 5.32559 16.3077L8.52559 15.8577C8.67559 15.8327 8.88392 15.7327 8.98392 15.6243L14.2173 10.391C13.9839 10.3077 13.7589 10.216 13.5089 10.1077Z" />
    </symbol>
    <symbol id="trash1" viewBox="0 0 21 21" xmlns="http://www.w3.org/2000/svg">
        <path
            d="M18.0586 4.85866C16.717 4.72533 15.3753 4.62533 14.0253 4.55033V4.54199L13.842 3.45866C13.717 2.69199 13.5336 1.54199 11.5836 1.54199H9.40029C7.45863 1.54199 7.27529 2.64199 7.14196 3.45033L6.96696 4.51699C6.19196 4.56699 5.41696 4.61699 4.64196 4.69199L2.94196 4.85866C2.59196 4.89199 2.34196 5.20033 2.37529 5.54199C2.40863 5.88366 2.70863 6.13366 3.05863 6.10033L4.75863 5.93366C9.12529 5.50033 13.5253 5.66699 17.942 6.10866C17.967 6.10866 17.9836 6.10866 18.0086 6.10866C18.3253 6.10866 18.6003 5.86699 18.6336 5.54199C18.6586 5.20033 18.4086 4.89199 18.0586 4.85866Z" />
        <path opacity="0.2"
            d="M16.525 7.28301C16.325 7.07467 16.05 6.95801 15.7666 6.95801H5.23329C4.94995 6.95801 4.66662 7.07467 4.47495 7.28301C4.28329 7.49134 4.17495 7.77467 4.19162 8.06634L4.70829 16.6163C4.79995 17.883 4.91662 19.4663 7.82495 19.4663H13.175C16.0833 19.4663 16.2 17.8913 16.2916 16.6163L16.8083 8.07467C16.825 7.77467 16.7166 7.49134 16.525 7.28301Z" />
        <path fill-rule="evenodd" clip-rule="evenodd"
            d="M8.4834 14.667C8.4834 14.3218 8.76322 14.042 9.1084 14.042H11.8834C12.2286 14.042 12.5084 14.3218 12.5084 14.667C12.5084 15.0122 12.2286 15.292 11.8834 15.292H9.1084C8.76322 15.292 8.4834 15.0122 8.4834 14.667Z" />
        <path fill-rule="evenodd" clip-rule="evenodd"
            d="M7.79199 11.333C7.79199 10.9878 8.07181 10.708 8.41699 10.708H12.5837C12.9288 10.708 13.2087 10.9878 13.2087 11.333C13.2087 11.6782 12.9288 11.958 12.5837 11.958H8.41699C8.07181 11.958 7.79199 11.6782 7.79199 11.333Z" />
    </symbol>
    <symbol id="starbox-icon" viewBox="0 0 24 24" xmlns="http://www.w3.org/2000/svg">
        <path
            d="M18.469 22.5a.75.75 0 0 1-.44-.14L12 17.99l-6.029 4.37a.75.75 0 0 1-1.15-.847l2.35-6.965-6.093-4.178A.75.75 0 0 1 1.5 9h7.518l2.268-6.981a.75.75 0 0 1 1.427 0l2.27 6.984H22.5a.75.75 0 0 1 .424 1.369l-6.096 4.176 2.35 6.963a.75.75 0 0 1-.71.99Z"></path>
    </symbol>
    <symbol id="camera" viewBox="0 0 20 20" xmlns="http://www.w3.org/2000/svg">
        <path
            d="M17.0925 4.375H14.4088L14.0963 3.4375C13.9456 2.98229 13.6552 2.58621 13.2664 2.30566C12.8775 2.02512 12.4101 1.87441 11.9306 1.875H8.06938C7.59002 1.87464 7.12276 2.02544 6.73407 2.30597C6.34538 2.58649 6.05504 2.98245 5.90437 3.4375L5.59125 4.375H2.9075C2.30235 4.37566 1.72217 4.61635 1.29426 5.04426C0.866351 5.47217 0.625662 6.05235 0.625 6.6575V15.845C0.626323 16.4497 0.867304 17.0293 1.29514 17.4566C1.72298 17.884 2.30278 18.1243 2.9075 18.125H17.095C17.6997 18.1237 18.2793 17.8827 18.7066 17.4549C19.134 17.027 19.3743 16.4472 19.375 15.8425V6.655C19.3737 6.05028 19.1327 5.47074 18.7049 5.04338C18.277 4.61601 17.6972 4.37566 17.0925 4.375ZM18.125 15.8425C18.1247 16.1162 18.0158 16.3787 17.8222 16.5722C17.6287 16.7658 17.3662 16.8747 17.0925 16.875H2.9075C2.63377 16.8747 2.37134 16.7658 2.17778 16.5722C1.98422 16.3787 1.87533 16.1162 1.875 15.8425V6.655C1.87599 6.3817 1.98517 6.11991 2.17866 5.92689C2.37215 5.73387 2.6342 5.62533 2.9075 5.625H6.04187C6.173 5.6249 6.30077 5.58357 6.4071 5.50685C6.51343 5.43012 6.59294 5.3219 6.63437 5.1975L7.09 3.83063C7.15842 3.62503 7.28986 3.44621 7.46566 3.31955C7.64146 3.19289 7.8527 3.12482 8.06938 3.125H11.9306C12.1474 3.12476 12.3587 3.19289 12.5346 3.31968C12.7104 3.44648 12.8418 3.62549 12.91 3.83125L13.3656 5.1975C13.4071 5.3219 13.4866 5.43012 13.5929 5.50685C13.6992 5.58357 13.827 5.6249 13.9581 5.625H17.0925C17.3662 5.62533 17.6287 5.73422 17.8222 5.92778C18.0158 6.12134 18.1247 6.38377 18.125 6.6575V15.8425Z" />
        <path
            d="M10 6.25C9.0729 6.25 8.16662 6.52492 7.39577 7.03999C6.62491 7.55506 6.0241 8.28714 5.66932 9.14367C5.31453 10.0002 5.2217 10.9427 5.40257 11.852C5.58344 12.7613 6.02988 13.5965 6.68544 14.2521C7.341 14.9076 8.17623 15.3541 9.08552 15.5349C9.9948 15.7158 10.9373 15.623 11.7938 15.2682C12.6504 14.9134 13.3824 14.3126 13.8975 13.5417C14.4126 12.7709 14.6875 11.8646 14.6875 10.9375C14.6862 9.6947 14.1919 8.50319 13.3131 7.6244C12.4343 6.74561 11.2428 6.25132 10 6.25ZM10 14.375C9.32013 14.375 8.65552 14.1734 8.09023 13.7957C7.52494 13.418 7.08434 12.8811 6.82417 12.253C6.56399 11.6249 6.49592 10.9337 6.62855 10.2669C6.76119 9.60007 7.08858 8.98756 7.56932 8.50682C8.05007 8.02608 8.66257 7.69869 9.32938 7.56605C9.99619 7.43341 10.6874 7.50149 11.3155 7.76166C11.9436 8.02184 12.4805 8.46243 12.8582 9.02773C13.2359 9.59302 13.4375 10.2576 13.4375 10.9375C13.4365 11.8489 13.074 12.7226 12.4296 13.3671C11.7851 14.0115 10.9114 14.374 10 14.375Z" />
        <path
            d="M16.25 8.125C16.5952 8.125 16.875 7.84518 16.875 7.5C16.875 7.15482 16.5952 6.875 16.25 6.875C15.9048 6.875 15.625 7.15482 15.625 7.5C15.625 7.84518 15.9048 8.125 16.25 8.125Z" />
    </symbol>
    <!-- add product icon -->
    <symbol id="product-detail" viewBox="0 0 18 18" fill="none" xmlns="http://www.w3.org/2000/svg">
        <mask id="mask0_979_920" style="mask-type:luminance" maskUnits="userSpaceOnUse" x="0" y="0"
            width="18" height="18">
            <path d="M0 1.90735e-06H18V18H0V1.90735e-06Z" fill="white" />
        </mask>
        <g mask="url(#mask0_979_920)">
            <path
                d="M17.2969 7.73438V4.21875C17.2969 2.27711 15.7229 0.703127 13.7812 0.703127H4.21875C2.27711 0.703127 0.703125 2.27711 0.703125 4.21875V13.7813C0.703125 15.7229 2.27711 17.2969 4.21875 17.2969H7.875"
                stroke-opacity="0.8" stroke-width="1.5" stroke-miterlimit="10"
                stroke-linecap="round" stroke-linejoin="round" />
            <path d="M7.20703 3.86719H10.793" stroke-opacity="0.8" stroke-width="1.5"
                stroke-miterlimit="10" stroke-linecap="round" stroke-linejoin="round" />
            <path
                d="M17.2969 13.2539C17.2969 15.4868 15.4868 17.2969 13.2539 17.2969C11.021 17.2969 9.21094 15.4868 9.21094 13.2539C9.21094 11.021 11.021 9.21094 13.2539 9.21094C15.4868 9.21094 17.2969 11.021 17.2969 13.2539Z"
                stroke-opacity="0.8" stroke-width="1.5" stroke-miterlimit="10"
                stroke-linecap="round" stroke-linejoin="round" />
            <path d="M13.2539 14.5195V11.9883" stroke-opacity="0.8" stroke-width="1.5"
                stroke-miterlimit="10" stroke-linecap="round" stroke-linejoin="round" />
            <path d="M14.5195 13.2539H11.9883" stroke-opacity="0.8" stroke-width="1.5"
                stroke-miterlimit="10" stroke-linecap="round" stroke-linejoin="round" />
        </g>
    </symbol>
    <symbol id="product-gallery" viewBox="0 0 21 21" fill="none" xmlns="http://www.w3.org/2000/svg">
        <path
            d="M7.875 8.75C8.8415 8.75 9.625 7.9665 9.625 7C9.625 6.0335 8.8415 5.25 7.875 5.25C6.9085 5.25 6.125 6.0335 6.125 7C6.125 7.9665 6.9085 8.75 7.875 8.75Z"
            stroke-opacity="0.8" stroke-width="1.5" stroke-linecap="round" stroke-linejoin="round" />
        <path
            d="M11.375 1.75H7.875C3.5 1.75 1.75 3.5 1.75 7.875V13.125C1.75 17.5 3.5 19.25 7.875 19.25H13.125C17.5 19.25 19.25 17.5 19.25 13.125V8.75"
            stroke-opacity="0.8" stroke-width="1.5" stroke-linecap="round" stroke-linejoin="round" />
        <path d="M13.7812 4.375H18.5938" stroke-opacity="0.8" stroke-width="1.5"
            stroke-linecap="round" />
        <path d="M16.1875 6.78125V1.96875" stroke-opacity="0.8" stroke-width="1.5"
            stroke-linecap="round" />
        <path
            d="M2.3363 16.581L6.65005 13.6847C7.3413 13.221 8.3388 13.2735 8.96005 13.8072L9.2488 14.061C9.9313 14.6472 11.0338 14.6472 11.7163 14.061L15.3563 10.9372C16.0388 10.351 17.1413 10.351 17.8238 10.9372L19.2501 12.1622"
            stroke-opacity="0.8" stroke-width="1.5" stroke-linecap="round" stroke-linejoin="round" />
    </symbol>
    <symbol id="product-category" viewBox="0 0 21 21" fill="none" xmlns="http://www.w3.org/2000/svg">
        <path
            d="M11.3838 2.55479L16.5463 4.84728C18.0338 5.50353 18.0338 6.58853 16.5463 7.24478L11.3838 9.53729C10.7976 9.79979 9.83508 9.79979 9.24883 9.53729L4.08633 7.24478C2.59883 6.58853 2.59883 5.50353 4.08633 4.84728L9.24883 2.55479C9.83508 2.29229 10.7976 2.29229 11.3838 2.55479Z"
            stroke-opacity="0.8" stroke-width="1.5" stroke-linecap="round" stroke-linejoin="round" />
        <path
            d="M2.625 9.625C2.625 10.36 3.17625 11.2087 3.85 11.5062L9.79125 14.1488C10.2462 14.35 10.7625 14.35 11.2088 14.1488L17.15 11.5062C17.8238 11.2087 18.375 10.36 18.375 9.625"
            stroke-opacity="0.8" stroke-width="1.5" stroke-linecap="round" stroke-linejoin="round" />
        <path
            d="M2.625 14C2.625 14.8138 3.10625 15.5487 3.85 15.8812L9.79125 18.5238C10.2462 18.725 10.7625 18.725 11.2088 18.5238L17.15 15.8812C17.8938 15.5487 18.375 14.8138 18.375 14"
            stroke-opacity="0.8" stroke-width="1.5" stroke-linecap="round" stroke-linejoin="round" />
    </symbol>
    <symbol id="pricing" viewBox="0 0 19 19" fill="none" xmlns="http://www.w3.org/2000/svg">
        <mask id="mask0_118_328" style="mask-type:luminance" maskUnits="userSpaceOnUse" x="0" y="0"
            width="19" height="19">
            <path d="M19 0H0V19H19V0Z" fill="white" />
        </mask>
        <g mask="url(#mask0_118_328)">
            <mask id="mask1_118_328" style="mask-type:luminance" maskUnits="userSpaceOnUse" x="0"
                y="0" width="19" height="19">
                <path d="M0 1.90735e-06H19V19H0V1.90735e-06Z" fill="white" />
            </mask>
            <g mask="url(#mask1_118_328)">
                <path
                    d="M12.1675 14.8436L15.7903 11.274C16.2641 10.8007 16.4996 10.1393 16.4317 9.47316L15.7968 3.24019L9.54761 2.60503C8.88131 2.5373 8.21991 2.7731 7.74673 3.24709L1.39301 9.57981C0.524982 10.4493 0.525279 11.8575 1.39371 12.7266L6.26792 17.6049C7.13706 18.4747 8.5468 18.4959 9.41668 17.6268"
                    stroke-opacity="0.8" stroke-width="1.5" stroke-miterlimit="10"
                    stroke-linecap="round" stroke-linejoin="round" />
                <path
                    d="M13.2032 5.82617C13.2032 5.82617 18.2598 5.56017 18.2577 1.80626V1.77672C18.2577 1.20535 17.7945 0.742188 17.2231 0.742188C17.2231 0.742188 14.5467 0.964844 13.8431 2.85742"
                    stroke-opacity="0.8" stroke-width="1.5" stroke-miterlimit="10"
                    stroke-linecap="round" stroke-linejoin="round" />
                <path d="M6.57315 12.5989L5.90039 13.248" stroke-opacity="0.8" stroke-width="1.5"
                    stroke-miterlimit="10" stroke-linecap="round" stroke-linejoin="round" />
                <path d="M11.4667 7.68174L10.7429 8.4292" stroke-opacity="0.8" stroke-width="1.5"
                    stroke-miterlimit="10" stroke-linecap="round" stroke-linejoin="round" />
                <path
                    d="M10.9757 10.349C11.4095 9.91515 11.3762 9.22139 10.943 8.78822L10.4882 8.33348C9.96124 7.80645 9.1278 7.79127 8.6 8.31908L8.48281 8.43627C7.95504 8.96408 7.93626 9.83147 8.46325 10.3585L8.94415 10.8394C9.47118 11.3664 9.48576 12.2063 8.95795 12.7341L8.90333 12.7887C8.37556 13.3165 7.55114 13.2864 7.02411 12.7594L6.24255 11.9779C5.80937 11.5447 5.7854 10.8664 6.21921 10.4326"
                    stroke-opacity="0.8" stroke-width="1.5" stroke-miterlimit="10"
                    stroke-linecap="round" stroke-linejoin="round" />
            </g>
        </g>
    </symbol>
    <symbol id="advance" viewBox="0 0 21 21" fill="none" xmlns="http://www.w3.org/2000/svg">
        <mask id="mask0_118_291" style="mask-type:luminance" maskUnits="userSpaceOnUse" x="0" y="0"
            width="21" height="21">
            <path d="M0 0H21V21H0V0Z" fill="white" />
        </mask>
        <g mask="url(#mask0_118_291)">
            <path
                d="M2.61134 19.4551H0.615234V11.6118H2.61134C3.24561 11.6118 3.75978 12.126 3.75978 12.7602V18.3066C3.75978 18.9409 3.24561 19.4551 2.61134 19.4551Z"
                stroke-opacity="0.8" stroke-width="1.2" stroke-miterlimit="10" />
            <path
                d="M3.89758 13.5732C4.57738 12.7825 5.58443 12.2812 6.70904 12.2812C7.83369 12.2812 8.8407 12.7825 9.52054 13.5732H13.15C13.9145 13.5732 14.5343 14.193 14.5343 14.9575C14.5343 15.7221 13.9145 16.3418 13.15 16.3418H9.63977"
                stroke-opacity="0.8" stroke-width="1.2" stroke-miterlimit="10" />
            <path
                d="M3.89758 18.3386L7.20102 19.4551H14.5343L19.9614 14.2211C20.5192 13.6833 20.5273 12.7926 19.9795 12.2447C19.4569 11.7218 18.6158 11.7015 18.0685 12.1985L14.3428 15.5822"
                stroke-opacity="0.8" stroke-width="1.2" stroke-miterlimit="10" />
            <path
                d="M17.0395 6.16237C17.0395 5.89425 17.0122 5.63253 16.9603 5.37975L17.665 4.71612L16.6692 2.9912L15.741 3.27003C15.3518 2.92361 14.8923 2.65459 14.3865 2.487L14.1642 1.54495H12.1724L11.9501 2.487C11.4443 2.65459 10.9848 2.92361 10.5956 3.27003L9.66745 2.9912L8.67151 4.71612L9.37628 5.37975C9.3244 5.63253 9.29712 5.89425 9.29712 6.16237C9.29712 6.43049 9.3244 6.69221 9.37628 6.94499L8.67151 7.60862L9.66745 9.33353L10.5956 9.05471C10.9848 9.40113 11.4443 9.67015 11.9501 9.83774L12.1724 10.7798H14.1642L14.3865 9.83774C14.8923 9.67015 15.3518 9.40113 15.741 9.05471L16.6692 9.33353L17.665 7.60862L16.9603 6.94499C17.0122 6.69221 17.0395 6.43049 17.0395 6.16237Z"
                stroke-opacity="0.8" stroke-width="1.2" stroke-miterlimit="10" />
            <path
                d="M14.5899 6.16238C14.5899 6.94754 13.9534 7.58398 13.1683 7.58398C12.3832 7.58398 11.7467 6.94754 11.7467 6.16238C11.7467 5.37722 12.3832 4.74078 13.1683 4.74078C13.9534 4.74078 14.5899 5.37722 14.5899 6.16238Z"
                stroke-opacity="0.8" stroke-width="1.2" stroke-miterlimit="10" />
        </g>
    </symbol>
    <symbol id="file-upload" viewBox="0 0 48 45" fill="none" xmlns="http://www.w3.org/2000/svg">
        <path opacity="0.2"
            d="M46.9738 15.9546V35.4873C47.116 36.7066 46.9805 37.9423 46.5774 39.1017C46.1742 40.2612 45.5139 41.3143 44.6459 42.1823C43.7779 43.0503 42.7247 43.7106 41.5653 44.1138C40.4058 44.5169 39.1702 44.6525 37.9509 44.5102H9.07768C7.85842 44.6525 6.62277 44.5169 5.46332 44.1138C4.30388 43.7106 3.2507 43.0503 2.3827 42.1823C1.5147 41.3143 0.854386 40.2612 0.451238 39.1017C0.0480899 37.9423 -0.0874406 36.7066 0.0548009 35.4873V11.4263C-0.0874406 10.2071 0.0480899 8.9714 0.451238 7.81196C0.854386 6.65251 1.5147 5.59933 2.3827 4.73133C3.2507 3.86333 4.30388 3.20302 5.46332 2.79987C6.62277 2.39672 7.85842 2.26119 9.07768 2.40343H30.2514C30.3578 2.40622 30.4624 2.43253 30.5575 2.48048C30.6526 2.52843 30.7359 2.59683 30.8014 2.68078C30.867 2.76472 30.9131 2.86213 30.9366 2.96602C30.9601 3.0699 30.9602 3.1777 30.9371 3.28166C30.3694 6.09302 30.9404 9.01477 32.5246 11.4056C34.1089 13.7965 36.5771 15.461 39.3874 16.034C41.6116 16.4787 43.9194 16.2136 45.9849 15.2761C46.095 15.2322 46.2143 15.2161 46.3321 15.2293C46.4499 15.2424 46.5626 15.2844 46.6604 15.3515C46.7581 15.4185 46.8379 15.5086 46.8925 15.6138C46.9472 15.719 46.9751 15.8361 46.9738 15.9546Z"
            fill="#308e87" />
        <path
            d="M43.153 28.6589L32.441 17.9469C31.9874 17.495 31.3731 17.2412 30.7327 17.2412C30.0923 17.2412 29.4781 17.495 29.0244 17.9469L17.1382 29.8331C16.9134 30.0535 16.611 30.177 16.2961 30.177C15.9812 30.177 15.6788 30.0535 15.454 29.8331L13.1922 27.5713C12.7386 27.1194 12.1243 26.8656 11.4839 26.8656C10.8435 26.8656 10.2292 27.1194 9.77556 27.5713L3.8758 33.4711C3.74039 33.6063 3.66423 33.7898 3.66406 33.9812V35.4874C3.66406 39.2891 5.27615 40.9011 9.07779 40.9011H37.951C41.7527 40.9011 43.3647 39.2891 43.3647 35.4874V29.169C43.3646 28.9776 43.2884 28.7941 43.153 28.6589Z"
            fill="#308e87" />
        <path
            d="M13.8896 19.2462C13.4946 19.2476 13.1032 19.1712 12.7378 19.0214C12.3723 18.8716 12.04 18.6512 11.7597 18.373C11.1936 17.8109 10.874 17.0471 10.8711 16.2494C10.8682 15.4517 11.1824 14.6856 11.7444 14.1195C12.3064 13.5535 13.0702 13.2338 13.8679 13.231H13.8896C14.6872 13.231 15.4522 13.5478 16.0163 14.1119C16.5803 14.6759 16.8972 15.4409 16.8972 16.2386C16.8972 17.0363 16.5803 17.8013 16.0163 18.3653C15.4522 18.9293 14.6872 19.2462 13.8896 19.2462Z"
            fill="#308e87" />
        <path
            d="M46.444 4.13592L42.8349 0.526762C42.4962 0.189411 42.0377 0 41.5596 0C41.0816 0 40.6231 0.189411 40.2844 0.526762L36.6752 4.13592C36.3565 4.478 36.183 4.93046 36.1912 5.39797C36.1994 5.86548 36.3888 6.31153 36.7195 6.64216C37.0501 6.97279 37.4962 7.16218 37.9637 7.17043C38.4312 7.17868 38.8836 7.00514 39.2257 6.68638L39.7551 6.15945V11.4264C39.7551 11.905 39.9452 12.364 40.2836 12.7024C40.622 13.0409 41.081 13.231 41.5596 13.231C42.0382 13.231 42.4972 13.0409 42.8357 12.7024C43.1741 12.364 43.3642 11.905 43.3642 11.4264V6.15945L43.8936 6.68638C44.2356 7.00514 44.6881 7.17868 45.1556 7.17043C45.6231 7.16218 46.0692 6.97279 46.3998 6.64216C46.7304 6.31153 46.9198 5.86548 46.9281 5.39797C46.9363 4.93046 46.7628 4.478 46.444 4.13592Z"
            fill="#308e87" />
    </symbol>
    <symbol id="file-upload1" viewBox="0 0 39 41" fill="none" xmlns="http://www.w3.org/2000/svg">
        <path
            d="M36.1465 16.9553H30.4869C25.8457 16.9553 22.0661 13.1757 22.0661 8.53442V2.87484C22.0661 1.79775 21.1848 0.916504 20.1077 0.916504H11.8044C5.77273 0.916504 0.896484 4.83317 0.896484 11.8244V29.1753C0.896484 36.1665 5.77273 40.0832 11.8044 40.0832H27.1969C33.2286 40.0832 38.1048 36.1665 38.1048 29.1753V18.9136C38.1048 17.8365 37.2236 16.9553 36.1465 16.9553ZM18.5802 23.4961C18.2865 23.7898 17.9144 23.9269 17.5423 23.9269C17.1702 23.9269 16.7982 23.7898 16.5044 23.4961L15.0944 22.0861V30.2915C15.0944 31.0944 14.4286 31.7603 13.6257 31.7603C12.8227 31.7603 12.1569 31.0944 12.1569 30.2915V22.0861L10.7469 23.4961C10.179 24.064 9.23898 24.064 8.67107 23.4961C8.10315 22.9282 8.10315 21.9882 8.67107 21.4203L12.5877 17.5036C12.7248 17.3861 12.8619 17.2882 13.0186 17.2098C13.0577 17.1903 13.1165 17.1707 13.1557 17.1511C13.2732 17.1119 13.3906 17.0923 13.5277 17.0728C13.5865 17.0728 13.6257 17.0728 13.6844 17.0728C13.8411 17.0728 13.9977 17.1119 14.1544 17.1707C14.174 17.1707 14.174 17.1707 14.1936 17.1707C14.3502 17.2294 14.5069 17.3469 14.6244 17.4644C14.644 17.484 14.6636 17.484 14.6636 17.5036L18.5802 21.4203C19.1481 21.9882 19.1481 22.9282 18.5802 23.4961Z"
            fill="#52526C" fill-opacity="0.2" />
        <path
            d="M30.134 14.2529C31.9944 14.2725 34.5794 14.2725 36.7923 14.2725C37.9085 14.2725 38.496 12.9604 37.7127 12.177C34.8927 9.33747 29.8402 4.22622 26.9419 1.32788C26.139 0.524966 24.7485 1.0733 24.7485 2.18955V9.02413C24.7485 11.8833 27.1769 14.2529 30.134 14.2529Z"
            fill="#52526C" fill-opacity="0.4" />
    </symbol>
    <symbol id="back-arrow" viewBox="0 0 20 20" fill="none" xmlns="http://www.w3.org/2000/svg">
        <path d="M7.97508 4.94165L2.91675 9.99998L7.97508 15.0583" stroke-width="1.5"
            stroke-miterlimit="10" stroke-linecap="round" stroke-linejoin="round" />
        <path opacity="0.4" d="M17.0833 10H3.05835" stroke-width="1.5" stroke-miterlimit="10"
            stroke-linecap="round" stroke-linejoin="round" />
    </symbol>
    <symbol id="front-arrow" viewBox="0 0 20 20" fill="none" xmlns="http://www.w3.org/2000/svg">
        <path d="M12.0249 4.94189L17.0832 10.0002L12.0249 15.0586" stroke-width="1.5"
            stroke-miterlimit="10" stroke-linecap="round" stroke-linejoin="round" />
        <path opacity="0.4" d="M2.9165 10H16.9415" stroke-width="1.5" stroke-miterlimit="10"
            stroke-linecap="round" stroke-linejoin="round" />
    </symbol>
    <!-- add product icon end -->
    <!-- Email template -->
    <symbol id="inbox" viewBox="0 0 18 18" fill="none" xmlns="http://www.w3.org/2000/svg">
        <g opacity="0.4">
            <path d="M9 1.5V6.75L10.5 5.25" stroke-opacity="0.8" stroke-width="1.5"
                stroke-linecap="round" stroke-linejoin="round" />
            <path d="M9 6.75L7.5 5.25" stroke-opacity="0.8" stroke-width="1.5"
                stroke-linecap="round" stroke-linejoin="round" />
        </g>
        <path opacity="0.4"
            d="M1.48499 9.75H4.79248C5.07748 9.75 5.33249 9.9075 5.45999 10.1625L6.33748 11.9175C6.59248 12.4275 7.10999 12.75 7.67999 12.75H10.3275C10.8975 12.75 11.415 12.4275 11.67 11.9175L12.5475 10.1625C12.675 9.9075 12.9375 9.75 13.215 9.75H16.485"
            stroke-opacity="0.8" stroke-width="1.5" stroke-linecap="round" stroke-linejoin="round" />
        <path
            d="M5.25 3.09753C2.595 3.48753 1.5 5.04753 1.5 8.25003V11.25C1.5 15 3 16.5 6.75 16.5H11.25C15 16.5 16.5 15 16.5 11.25V8.25003C16.5 5.04753 15.405 3.48753 12.75 3.09753"
            stroke-opacity="0.8" stroke-width="1.5" stroke-linecap="round" stroke-linejoin="round" />
    </symbol>
    <symbol id="sent" viewBox="0 0 18 18" fill="none" xmlns="http://www.w3.org/2000/svg">
        <g opacity="0.4">
            <path d="M9 6.75V1.5L7.5 3" stroke-opacity="0.8" stroke-width="1.5"
                stroke-linecap="round" stroke-linejoin="round" />
            <path d="M9 1.5L10.5 3" stroke-opacity="0.8" stroke-width="1.5" stroke-linecap="round"
                stroke-linejoin="round" />
        </g>
        <path opacity="0.4"
            d="M1.48499 9.75H4.79248C5.07748 9.75 5.33249 9.9075 5.45999 10.1625L6.33748 11.9175C6.59248 12.4275 7.10999 12.75 7.67999 12.75H10.3275C10.8975 12.75 11.415 12.4275 11.67 11.9175L12.5475 10.1625C12.675 9.9075 12.9375 9.75 13.215 9.75H16.485"
            stroke-opacity="0.8" stroke-width="1.5" stroke-linecap="round" stroke-linejoin="round" />
        <path
            d="M5.25 3.84753C2.595 4.23753 1.5 5.79753 1.5 9.00003V11.25C1.5 15 3 16.5 6.75 16.5H11.25C15 16.5 16.5 15 16.5 11.25V9.00003C16.5 5.79753 15.405 4.23753 12.75 3.84753"
             stroke-opacity="0.8" stroke-width="1.5" stroke-linecap="round"
            stroke-linejoin="round" />
    </symbol>
    <symbol id="draft" viewBox="0 0 18 18" fill="none" xmlns="http://www.w3.org/2000/svg">
        <path
            d="M16.5 7.5V11.25C16.5 15 15 16.5 11.25 16.5H6.75C3 16.5 1.5 15 1.5 11.25V6.75C1.5 3 3 1.5 6.75 1.5H10.5"
            stroke-opacity="0.8" stroke-width="1.5" stroke-linecap="round" stroke-linejoin="round" />
        <path d="M16.5 7.5H13.5C11.25 7.5 10.5 6.75 10.5 4.5V1.5L16.5 7.5Z" stroke-opacity="0.8"
            stroke-width="1.5" stroke-linecap="round" stroke-linejoin="round" />
        <path opacity="0.4" d="M5.25 9.75H9.75" stroke-opacity="0.8" stroke-width="1.5"
            stroke-linecap="round" stroke-linejoin="round" />
        <path opacity="0.4" d="M5.25 12.75H8.25" stroke-opacity="0.8" stroke-width="1.5"
            stroke-linecap="round" stroke-linejoin="round" />
    </symbol>
    <symbol id="trash" viewBox="0 0 18 17" fill="none" xmlns="http://www.w3.org/2000/svg">
        <path
            d="M16.9172 4.52071C13.9766 4.22395 11.009 4.07556 8.05484 4.07556C6.30125 4.07556 4.54765 4.16998 2.80755 4.34534L1 4.52071"
            stroke-opacity="0.8" stroke-width="1.5" stroke-linecap="round" stroke-linejoin="round" />
        <path
            d="M5.86938 3.63039L6.05823 2.47032C6.19312 1.63399 6.30103 1 7.79833 1H10.1185C11.6158 1 11.7237 1.66097 11.8586 2.47032L12.0474 3.61691"
            stroke-opacity="0.4" stroke-width="1.5" stroke-linecap="round" stroke-linejoin="round" />
        <path
            d="M15.0151 4.62854L14.435 13.5314C14.3406 14.9208 14.2597 15.9999 11.7912 15.9999H6.11222C3.6437 15.9999 3.56276 14.9208 3.46833 13.5314L2.88831 4.62854"
            stroke-opacity="0.8" stroke-width="1.5" stroke-linecap="round" stroke-linejoin="round" />
    </symbol>
    <symbol id="pintag" viewBox="0 0 23 22" fill="none" xmlns="http://www.w3.org/2000/svg">
        <path
            d="M14.4979 4.4414L9.15926 4.4414C6.96723 4.4414 5.18768 6.22095 5.18178 8.41888V13.5925C5.18178 15.7846 6.96134 17.5641 9.15926 17.57L14.4979 17.5582C15.6175 17.5582 16.6899 17.0868 17.4383 16.256L20.2432 13.1683C21.3686 11.9367 21.3686 10.0629 20.2549 8.83136L17.4501 5.74366C16.6899 4.91281 15.6175 4.4414 14.4979 4.4414Z"
            stroke-width="1.5" stroke-linecap="round" stroke-linejoin="round" />
        <path opacity="0.4"
            d="M13.3018 9.52662C12.4882 10.3402 12.4882 11.6593 13.3018 12.4729C14.1154 13.2865 15.4345 13.2865 16.2481 12.4729C17.0616 11.6593 17.0616 10.3402 16.2481 9.52662C15.4345 8.71302 14.1154 8.71302 13.3018 9.52662Z"
            stroke-width="1.5" stroke-linecap="round" />
    </symbol>
    <symbol id="mail" viewBox="0 0 22 22" fill="none" xmlns="http://www.w3.org/2000/svg">
        <path
            d="M20.1666 10.5416V14.2083C20.1666 17.4166 18.3333 18.7916 15.5833 18.7916H6.41659C3.66659 18.7916 1.83325 17.4166 1.83325 14.2083V7.79159C1.83325 4.58325 3.66659 3.20825 6.41659 3.20825H10.9999"
            stroke-width="1.5" stroke-miterlimit="10" stroke-linecap="round" stroke-linejoin="round" />
        <path opacity="0.4"
            d="M6.41675 8.25L9.28592 10.5417C10.2301 11.2933 11.7793 11.2933 12.7234 10.5417"
            stroke-width="1.5" stroke-miterlimit="10" stroke-linecap="round" stroke-linejoin="round" />
        <path opacity="0.4"
            d="M17.8565 2.58495L18.1131 3.10744C18.2415 3.36411 18.5623 3.60244 18.8464 3.65744L19.1948 3.71244C20.2398 3.88661 20.4873 4.65661 19.7356 5.41744L19.4148 5.73827C19.2039 5.95827 19.0848 6.37994 19.149 6.67327L19.1948 6.86578C19.479 8.13078 18.8098 8.6166 17.7098 7.9566L17.4714 7.8191C17.1873 7.6541 16.729 7.6541 16.4448 7.8191L16.2064 7.9566C15.0973 8.62577 14.4281 8.13078 14.7214 6.86578L14.7673 6.67327C14.8314 6.37994 14.7123 5.95827 14.5015 5.73827L14.1806 5.41744C13.429 4.65661 13.6764 3.88661 14.7214 3.71244L15.0698 3.65744C15.3448 3.61161 15.6748 3.36411 15.8031 3.10744L16.0598 2.58495C16.5548 1.58578 17.3615 1.58578 17.8565 2.58495Z"
            stroke-width="1.5" stroke-linecap="round" stroke-linejoin="round" />
    </symbol>
    <symbol id="goal" viewBox="0 0 22 22" fill="none" xmlns="http://www.w3.org/2000/svg">
        <path opacity="0.4"
            d="M12.9526 10.395C13.3101 8.8917 11.9992 7.58082 10.4959 7.93832C9.79008 8.11248 9.21258 8.69001 9.03842 9.39584C8.68092 10.8992 9.99174 12.21 11.4951 11.8525C12.2101 11.6783 12.7876 11.1009 12.9526 10.395Z"
             stroke-opacity="0.8" stroke-width="1.5" stroke-linecap="round"
            stroke-linejoin="round" />
        <path
            d="M16.509 15.7575C18.0765 14.2909 19.0574 12.21 19.0574 9.89085C19.0574 5.43585 15.4457 1.83337 10.9999 1.83337C6.55404 1.83337 2.94238 5.44502 2.94238 9.89085C2.94238 12.2192 3.93238 14.3183 5.51821 15.785"
             stroke-opacity="0.8" stroke-width="1.5" stroke-linecap="round"
            stroke-linejoin="round" />
        <path opacity="0.4"
            d="M7.33337 13.3376C6.49003 12.4392 5.96753 11.2292 5.96753 9.89089C5.96753 7.11339 8.22253 4.8584 11 4.8584C13.7775 4.8584 16.0325 7.11339 16.0325 9.89089C16.0325 11.2292 15.51 12.4301 14.6667 13.3376"
             stroke-opacity="0.8" stroke-width="1.5" stroke-linecap="round"
            stroke-linejoin="round" />
        <path opacity="0.4"
            d="M9.44159 15.2717L8.12158 16.9126C7.07658 18.2234 8.00241 20.1576 9.67991 20.1576H12.3107C13.9882 20.1576 14.9233 18.2142 13.8691 16.9126L12.5491 15.2717C11.7608 14.2725 10.2391 14.2725 9.44159 15.2717Z"
             stroke-opacity="0.8" stroke-width="1.5" stroke-linecap="round"
            stroke-linejoin="round" />
    </symbol>
    <symbol id="tread" viewBox="0 0 22 22" fill="none" xmlns="http://www.w3.org/2000/svg">
        <g opacity="0.4">
            <path d="M15.125 8.70825L11.275 12.5583L9.80833 10.3583L6.875 13.2916" 
                stroke-opacity="0.8" stroke-width="1.5" stroke-linecap="round"
                stroke-linejoin="round" />
            <path d="M13.2915 8.70825H15.1248V10.5416"  stroke-opacity="0.8"
                stroke-width="1.5" stroke-linecap="round" stroke-linejoin="round" />
        </g>
        <path
            d="M8.25016 20.1666H13.7502C18.3335 20.1666 20.1668 18.3333 20.1668 13.7499V8.24992C20.1668 3.66659 18.3335 1.83325 13.7502 1.83325H8.25016C3.66683 1.83325 1.8335 3.66659 1.8335 8.24992V13.7499C1.8335 18.3333 3.66683 20.1666 8.25016 20.1666Z"
             stroke-opacity="0.8" stroke-width="1.5" stroke-linecap="round"
            stroke-linejoin="round" />
    </symbol>
    <symbol id="fill-star" viewBox="0 0 18 18" xmlns="http://www.w3.org/2000/svg">
        <path
            d="M10.4337 2.15536L11.8533 4.99468C12.0446 5.38735 12.5581 5.75988 12.991 5.84043L15.5585 6.26331C17.1997 6.53516 17.5823 7.72325 16.4043 8.91133L14.4006 10.915C14.0684 11.2472 13.8771 11.9017 13.9878 12.3749L14.5617 14.8518C15.0148 16.8051 13.9677 17.5703 12.246 16.5433L9.83959 15.1135C9.40664 14.8518 8.68172 14.8518 8.24878 15.1135L5.84238 16.5433C4.12067 17.5602 3.07355 16.8051 3.52664 14.8518L4.10055 12.3749C4.2113 11.9118 4.02 11.2573 3.68774 10.915L1.68411 8.91133C0.506094 7.73332 0.888694 6.54522 2.52986 6.26331L5.09732 5.84043C5.53027 5.76995 6.04377 5.38735 6.23507 4.99468L7.65474 2.15536C8.40988 0.614879 9.65838 0.614879 10.4337 2.15536Z"
            stroke-opacity="0.8" stroke-width="1.5" stroke-linecap="round" stroke-linejoin="round" />
    </symbol>
    <symbol id="bookmark" viewBox="0 0 20 20" fill="none" xmlns="http://www.w3.org/2000/svg">
        <path
            d="M5.6082 16.4166C6.29153 15.6833 7.3332 15.7416 7.9332 16.5416L8.77486 17.6666C9.44986 18.5583 10.5415 18.5583 11.2165 17.6666L12.0582 16.5416C12.6582 15.7416 13.6999 15.6833 14.3832 16.4166C15.8665 18 17.0749 17.475 17.0749 15.2583V5.86663C17.0749 2.50829 16.2915 1.66663 13.1415 1.66663H6.84154C3.69154 1.66663 2.9082 2.50829 2.9082 5.86663V15.25C2.91654 17.475 4.1332 17.9916 5.6082 16.4166Z"
            stroke-opacity="0.8" stroke-width="1.5" stroke-linecap="round" stroke-linejoin="round" />
        <path opacity="0.4" d="M7.70825 8.33337H12.2916" stroke-opacity="0.8" stroke-width="1.5"
            stroke-linecap="round" stroke-linejoin="round" />
    </symbol>
    <symbol id="back-arrow" viewBox="0 0 20 20" fill="none" xmlns="http://www.w3.org/2000/svg">
        <path d="M7.97508 4.94165L2.91675 9.99998L7.97508 15.0583" stroke-width="1.5"
            stroke-miterlimit="10" stroke-linecap="round" stroke-linejoin="round" />
        <path opacity="0.4" d="M17.0833 10H3.05835" stroke-width="1.5" stroke-miterlimit="10"
            stroke-linecap="round" stroke-linejoin="round" />
    </symbol>
    <symbol id="front-arrow" viewBox="0 0 20 20" fill="none" xmlns="http://www.w3.org/2000/svg">
        <path d="M12.0249 4.94189L17.0832 10.0002L12.0249 15.0586" stroke-width="1.5"
            stroke-miterlimit="10" stroke-linecap="round" stroke-linejoin="round" />
        <path opacity="0.4" d="M2.9165 10H16.9415" stroke-width="1.5" stroke-miterlimit="10"
            stroke-linecap="round" stroke-linejoin="round" />
    </symbol>
    <symbol id="sms" viewBox="0 0 20 20" fill="none" xmlns="http://www.w3.org/2000/svg">
        <path
            d="M14.1665 17.0833H5.83317C3.33317 17.0833 1.6665 15.8333 1.6665 12.9166V7.08329C1.6665 4.16663 3.33317 2.91663 5.83317 2.91663H14.1665C16.6665 2.91663 18.3332 4.16663 18.3332 7.08329V12.9166C18.3332 15.8333 16.6665 17.0833 14.1665 17.0833Z"
            stroke-opacity="0.8" stroke-width="1.5" stroke-miterlimit="10" stroke-linecap="round"
            stroke-linejoin="round" />
        <path opacity="0.4"
            d="M14.1668 7.5L11.5585 9.58333C10.7002 10.2667 9.29183 10.2667 8.43349 9.58333L5.8335 7.5"
            stroke-width="1.5" stroke-miterlimit="10" stroke-linecap="round" stroke-linejoin="round" />
    </symbol>
    <symbol id="spam" viewBox="0 0 20 20" fill="none" xmlns="http://www.w3.org/2000/svg">
        <path
            d="M9.99984 18.3333C14.5832 18.3333 18.3332 14.5833 18.3332 9.99996C18.3332 5.41663 14.5832 1.66663 9.99984 1.66663C5.4165 1.66663 1.6665 5.41663 1.6665 9.99996C1.6665 14.5833 5.4165 18.3333 9.99984 18.3333Z"
            stroke-width="1.5" stroke-linecap="round" stroke-linejoin="round" />
        <path d="M10 6.66663V10.8333" stroke-opacity="0.4" stroke-width="1.5" stroke-linecap="round"
            stroke-linejoin="round" />
        <path d="M9.99561 13.3334H10.0031" stroke-opacity="0.4" stroke-width="2"
            stroke-linecap="round" stroke-linejoin="round" />
    </symbol>
    <symbol id="mail-trash" viewBox="0 0 20 19" fill="none" xmlns="http://www.w3.org/2000/svg">
        <path
            d="M19.0397 4.9901C15.7069 4.65376 12.3436 4.4856 8.99554 4.4856C7.00812 4.4856 5.0207 4.59261 3.04857 4.79135L1 4.9901"
            stroke-opacity="0.8" stroke-width="1.5" stroke-linecap="round" stroke-linejoin="round" />
        <path
            d="M6.51855 3.98113L6.73258 2.66637C6.88546 1.71852 7.00775 1 8.70471 1H11.3342C13.0312 1 13.1535 1.7491 13.3063 2.66637L13.5204 3.96585"
            stroke-opacity="0.4" stroke-width="1.5" stroke-linecap="round" stroke-linejoin="round" />
        <path
            d="M16.8839 5.1123L16.2265 15.2023C16.1195 16.7769 16.0278 18 13.2301 18H6.79393C3.99626 18 3.90452 16.7769 3.7975 15.2023L3.14014 5.1123"
            stroke-opacity="0.8" stroke-width="1.5" stroke-linecap="round" stroke-linejoin="round" />
    </symbol>
    <symbol id="setting" viewBox="0 0 20 20" fill="none" xmlns="http://www.w3.org/2000/svg">
        <path opacity="0.34"
            d="M10 12.5C11.3807 12.5 12.5 11.3807 12.5 10C12.5 8.61929 11.3807 7.5 10 7.5C8.61929 7.5 7.5 8.61929 7.5 10C7.5 11.3807 8.61929 12.5 10 12.5Z"
            stroke-opacity="0.8" stroke-width="1.5" stroke-miterlimit="10" stroke-linecap="round"
            stroke-linejoin="round" />
        <path
            d="M1.6665 10.7334V9.26669C1.6665 8.40003 2.37484 7.68336 3.24984 7.68336C4.75817 7.68336 5.37484 6.6167 4.6165 5.30836C4.18317 4.55836 4.4415 3.58336 5.19984 3.15003L6.6415 2.32503C7.29984 1.93336 8.14984 2.1667 8.5415 2.82503L8.63317 2.98336C9.38317 4.2917 10.6165 4.2917 11.3748 2.98336L11.4665 2.82503C11.8582 2.1667 12.7082 1.93336 13.3665 2.32503L14.8082 3.15003C15.5665 3.58336 15.8248 4.55836 15.3915 5.30836C14.6332 6.6167 15.2498 7.68336 16.7582 7.68336C17.6248 7.68336 18.3415 8.39169 18.3415 9.26669V10.7334C18.3415 11.6 17.6332 12.3167 16.7582 12.3167C15.2498 12.3167 14.6332 13.3834 15.3915 14.6917C15.8248 15.45 15.5665 16.4167 14.8082 16.85L13.3665 17.675C12.7082 18.0667 11.8582 17.8334 11.4665 17.175L11.3748 17.0167C10.6248 15.7084 9.3915 15.7084 8.63317 17.0167L8.5415 17.175C8.14984 17.8334 7.29984 18.0667 6.6415 17.675L5.19984 16.85C4.4415 16.4167 4.18317 15.4417 4.6165 14.6917C5.37484 13.3834 4.75817 12.3167 3.24984 12.3167C2.37484 12.3167 1.6665 11.6 1.6665 10.7334Z"
            stroke-width="1.5" stroke-miterlimit="10" stroke-linecap="round" stroke-linejoin="round" />
    </symbol>
    <symbol id="print" viewBox="0 0 24 24" fill="none" xmlns="http://www.w3.org/2000/svg">
        <path opacity="0.4" d="M7.25 7H16.75V5C16.75 3 16 2 13.75 2H10.25C8 2 7.25 3 7.25 5V7Z"
            stroke-width="1.5" stroke-miterlimit="10" stroke-linecap="round" stroke-linejoin="round" />
        <path d="M16 15V19C16 21 15 22 13 22H11C9 22 8 21 8 19V15H16Z" stroke-width="1.5"
            stroke-miterlimit="10" stroke-linecap="round" stroke-linejoin="round" />
        <path
            d="M21 10V15C21 17 20 18 18 18H16V15H8V18H6C4 18 3 17 3 15V10C3 8 4 7 6 7H18C20 7 21 8 21 10Z"
            stroke-width="1.5" stroke-miterlimit="10" stroke-linecap="round" stroke-linejoin="round" />
        <path d="M17 15H15.79H7" stroke-width="1.5" stroke-miterlimit="10" stroke-linecap="round"
            stroke-linejoin="round" />
        <path opacity="0.4" d="M7 11H10" stroke-width="1.5" stroke-miterlimit="10"
            stroke-linecap="round" stroke-linejoin="round" />
    </symbol>
    <symbol id="menubar" viewBox="0 0 6 19" fill="none" xmlns="http://www.w3.org/2000/svg">
        <path
            d="M2.7 11.2C3.63888 11.2 4.4 10.4389 4.4 9.50005C4.4 8.56116 3.63888 7.80005 2.7 7.80005C1.76112 7.80005 1 8.56116 1 9.50005C1 10.4389 1.76112 11.2 2.7 11.2Z"
             stroke-opacity="0.8" stroke-width="1.5" stroke-linecap="round"
            stroke-linejoin="round" />
        <path
            d="M2.7 4.4C3.63888 4.4 4.4 3.63888 4.4 2.7C4.4 1.76112 3.63888 1 2.7 1C1.76112 1 1 1.76112 1 2.7C1 3.63888 1.76112 4.4 2.7 4.4Z"
             stroke-opacity="0.8" stroke-width="1.5" stroke-linecap="round"
            stroke-linejoin="round" />
        <path
            d="M2.7 18C3.63888 18 4.4 17.2389 4.4 16.3C4.4 15.3611 3.63888 14.6 2.7 14.6C1.76112 14.6 1 15.3611 1 16.3C1 17.2389 1.76112 18 2.7 18Z"
             stroke-opacity="0.4" stroke-width="1.5" stroke-linecap="round"
            stroke-linejoin="round" />
    </symbol>
    <symbol id="mail-star" viewBox="0 0 24 24" xmlns="http://www.w3.org/2000/svg">
        <path
            d="M13.73 3.51001L15.49 7.03001C15.73 7.52002 16.37 7.99001 16.91 8.08001L20.1 8.61001C22.14 8.95001 22.62 10.43 21.15 11.89L18.67 14.37C18.25 14.79 18.02 15.6 18.15 16.18L18.86 19.25C19.42 21.68 18.13 22.62 15.98 21.35L12.99 19.58C12.45 19.26 11.56 19.26 11.01 19.58L8.01997 21.35C5.87997 22.62 4.57997 21.67 5.13997 19.25L5.84997 16.18C5.97997 15.6 5.74997 14.79 5.32997 14.37L2.84997 11.89C1.38997 10.43 1.85997 8.95001 3.89997 8.61001L7.08997 8.08001C7.61997 7.99001 8.25997 7.52002 8.49997 7.03001L10.26 3.51001C11.22 1.60001 12.78 1.60001 13.73 3.51001Z"
            stroke-width="1.5" stroke-linecap="round" stroke-linejoin="round" />
    </symbol>
    <symbol id="attchment" viewBox="0 0 20 20" xmlns="http://www.w3.org/2000/svg">
        <path
            d="M10.2749 10.1251L8.21657 12.1834C7.0749 13.3251 7.0749 15.1667 8.21657 16.3084C9.35824 17.4501 11.1999 17.4501 12.3416 16.3084L15.5832 13.0667C17.8582 10.7917 17.8582 7.09172 15.5832 4.81672C13.3082 2.54172 9.60824 2.54172 7.33324 4.81672L3.7999 8.35006C1.8499 10.3001 1.8499 13.4667 3.7999 15.4251"
            stroke-width="1.5" stroke-linecap="round" stroke-linejoin="round" />
    </symbol>
    <symbol id="star" viewBox="0 0 20 20" fill="none" xmlns="http://www.w3.org/2000/svg">
        <path
            d="M13.0516 2.08315L14.3206 4.74501C14.4916 5.11314 14.9506 5.46239 15.3376 5.5379L17.6327 5.93435C19.0997 6.18921 19.4417 7.30304 18.3887 8.41687L16.5976 10.2953C16.3006 10.6068 16.1297 11.2203 16.2287 11.664L16.7417 13.986C17.1467 15.8172 16.2107 16.5346 14.6716 15.5718L12.5206 14.2314C12.1335 13.986 11.4855 13.986 11.0985 14.2314L8.94748 15.5718C7.40844 16.5252 6.47243 15.8172 6.87744 13.986L7.39046 11.664C7.48946 11.2298 7.31846 10.6162 7.02145 10.2953L5.23042 8.41687C4.1774 7.31248 4.5194 6.19865 5.98643 5.93435L8.28147 5.5379C8.66848 5.47183 9.1275 5.11314 9.2985 4.74501L10.5675 2.08315C11.2425 0.638949 12.3586 0.638949 13.0516 2.08315Z"
            stroke-opacity="0.8" stroke-width="1.5" stroke-linecap="round" stroke-linejoin="round" />
        <path opacity="0.4" d="M6.40012 1.88489H1" stroke-width="1.5" stroke-linecap="round"
            stroke-linejoin="round" />
        <path opacity="0.4" d="M3.70006 15.0996H1" stroke-width="1.5" stroke-linecap="round"
            stroke-linejoin="round" />
        <path opacity="0.4" d="M1.90002 8.49243H1" stroke-width="1.5" stroke-linecap="round"
            stroke-linejoin="round" />
    </symbol>
    <!-- end -->
    <symbol id="stroke-search" viewBox="0 0 19 19" fill="none" xmlns="http://www.w3.org/2000/svg">
        <path
            d="M8.70825 15.8333C12.6433 15.8333 15.8333 12.6433 15.8333 8.70831C15.8333 4.77328 12.6433 1.58331 8.70825 1.58331C4.77322 1.58331 1.58325 4.77328 1.58325 8.70831C1.58325 12.6433 4.77322 15.8333 8.70825 15.8333Z"
            stroke-opacity="0.8" stroke-width="1.5" stroke-linecap="round" stroke-linejoin="round" />
        <path opacity="0.4"
            d="M14.9862 16.3794C15.4058 17.6461 16.3637 17.7727 17.0999 16.6644C17.7728 15.6511 17.3295 14.8198 16.1103 14.8198C15.2078 14.8119 14.7012 15.5165 14.9862 16.3794Z"
            stroke-opacity="0.8" stroke-width="1.5" stroke-linecap="round" stroke-linejoin="round" />
    </symbol>
    <symbol id="profile-check" viewBox="0 0 17 17" fill="none" xmlns="http://www.w3.org/2000/svg">
        <path
            d="M8.69952 0.737244C4.23211 0.737244 0.5979 4.37145 0.5979 8.83886C0.5979 13.3063 4.23211 16.9405 8.69952 16.9405C13.1669 16.9405 16.8011 13.3063 16.8011 8.83886C16.8011 4.37145 13.1669 0.737244 8.69952 0.737244ZM12.8057 7.12202L8.41729 11.5103C8.28564 11.642 8.11282 11.7082 7.93999 11.7082C7.76717 11.7082 7.59435 11.642 7.46269 11.5103L5.26855 9.31616C5.00449 9.05223 5.00449 8.62549 5.26855 8.36156C5.53248 8.09751 5.95909 8.09751 6.22315 8.36156L7.93999 10.0784L11.8511 6.16742C12.115 5.90336 12.5417 5.90336 12.8057 6.16742C13.0696 6.43135 13.0696 6.85796 12.8057 7.12202Z"
            fill="#54BA4A" />
    </symbol>
    <symbol id="stroke-icons" viewBox="0 0 24 24" version="1.1" fill="none"
        xmlns="http://www.w3.org/2000/svg" xmlns:xlink="http://www.w3.org/1999/xlink">
        <g fill="none" fill-rule="evenodd" clip-rule="evenodd" stroke-width="2"
            stroke-linecap="round" stroke-linejoin="round">
            <path opacity="0.5" d="M7.24487 14.7815L10.238 10.8914L13.6522 13.5733L16.5813 9.79297" />
            <circle cx="19.9954" cy="4.20027" r="1.9222" />
            <path
                d="M14.9245 3.12012H7.65679C4.64535 3.12012 2.77808 5.25284 2.77808 8.26428V16.3467C2.77808 19.3581 4.60874 21.4817 7.65679 21.4817H16.2609C19.2724 21.4817 21.1396 19.3581 21.1396 16.3467V9.30776" />
        </g>
    </symbol>
    <symbol id="fill-icons" viewBox="0 0 24 24" xmlns="http://www.w3.org/2000/svg">
        <path fill-rule="evenodd" clip-rule="evenodd"
            d="M15.2428 4.73756C15.2428 6.95855 17.0459 8.75902 19.2702 8.75902C19.5151 8.75782 19.7594 8.73431 20 8.68878V16.6615C20 20.0156 18.0215 22 14.6624 22H7.34636C3.97851 22 2 20.0156 2 16.6615V9.3561C2 6.00195 3.97851 4 7.34636 4H15.3131C15.2659 4.243 15.2423 4.49001 15.2428 4.73756ZM13.15 14.8966L16.0078 11.2088V11.1912C16.2525 10.8625 16.1901 10.3989 15.8671 10.1463C15.7108 10.0257 15.5122 9.97345 15.3167 10.0016C15.1211 10.0297 14.9453 10.1358 14.8295 10.2956L12.4201 13.3951L9.6766 11.2351C9.51997 11.1131 9.32071 11.0592 9.12381 11.0856C8.92691 11.1121 8.74898 11.2166 8.63019 11.3756L5.67562 15.1863C5.57177 15.3158 5.51586 15.4771 5.51734 15.6429C5.5002 15.9781 5.71187 16.2826 6.03238 16.3838C6.35288 16.485 6.70138 16.3573 6.88031 16.0732L9.35125 12.8771L12.0948 15.0283C12.2508 15.1541 12.4514 15.2111 12.6504 15.1863C12.8494 15.1615 13.0297 15.0569 13.15 14.8966Z" />
        <circle opacity="0.4" cx="19.5" cy="4.5" r="2.5" />
    </symbol>
    <symbol id="watch" xmlns="http://www.w3.org/2000/svg" viewBox="0 0 14 14" fill="none">
        <path fill-rule="evenodd" clip-rule="evenodd"
            d="M9.8898 0.833466H4.11047C2.09647 0.833466 0.833801 2.25947 0.833801 4.27747V9.7228C0.833801 11.7408 2.0898 13.1668 4.11047 13.1668H9.88913C11.9098 13.1668 13.1671 11.7408 13.1671 9.7228V4.27747C13.1671 2.25947 11.9098 0.833466 9.8898 0.833466Z"
            stroke="#292929" stroke-width="1.5" stroke-linecap="round" stroke-linejoin="round" />
        <path opacity="0.4" d="M9.26088 8.34513L7.00021 6.99646V4.08913" stroke="#292929"
            stroke-width="1.5" stroke-linecap="round" stroke-linejoin="round" />
    </symbol>
    <symbol id="arrow-down" viewBox="0 0 12 12" fill="none" xmlns="http://www.w3.org/2000/svg">
        <path d="M9.5 7.75L6 4.25L2.5 7.75" stroke-width="1.5" stroke-linecap="round"
            stroke-linejoin="round" />
    </symbol>
    <!-- dahsboard icon start -->
    <symbol id="job-bag" xmlns="http://www.w3.org/2000/svg" viewBox="0 0 20 20" fill="none">
        <path opacity="0.4"
            d="M0.804092 13.477C0.804092 13.477 0.946092 15.215 0.979092 15.763C1.02309 16.498 1.30709 17.319 1.78109 17.889C2.45009 18.697 3.23809 18.982 4.29009 18.984C5.52709 18.986 14.5221 18.986 15.7591 18.984C16.8111 18.982 17.5991 18.697 18.2681 17.889C18.7421 17.319 19.0261 16.498 19.0711 15.763C19.1031 15.215 19.2451 13.477 19.2451 13.477"
            stroke-width="1.5" stroke-linecap="round" stroke-linejoin="round" />
        <path
            d="M6.49599 3.32949V2.95849C6.49599 1.73849 7.48399 0.750488 8.70399 0.750488H11.286C12.505 0.750488 13.494 1.73849 13.494 2.95849L13.495 3.32949"
            stroke-width="1.5" stroke-linecap="round" stroke-linejoin="round" />
        <path d="M9.995 14.6782V13.3842" stroke-width="1.5" stroke-linecap="round"
            stroke-linejoin="round" />
        <path fill-rule="evenodd" clip-rule="evenodd"
            d="M0.749893 6.38909V9.85609C2.66789 11.1211 4.96589 12.0071 7.48789 12.3581C7.78989 11.2571 8.78289 10.4501 9.98989 10.4501C11.1779 10.4501 12.1909 11.2571 12.4729 12.3681C15.0049 12.0171 17.3119 11.1311 19.2399 9.85609V6.38909C19.2399 4.69509 17.8769 3.33109 16.1829 3.33109H3.81689C2.12289 3.33109 0.749893 4.69509 0.749893 6.38909Z"
            stroke-width="1.5" stroke-linecap="round" stroke-linejoin="round" />
    </symbol>
    <symbol id="employees" xmlns="http://www.w3.org/2000/svg" viewBox="0 0 22 18" fill="none">
        <path opacity="0.4"
            d="M16.8877 7.8967C18.2827 7.7007 19.3567 6.5047 19.3597 5.0557C19.3597 3.6277 18.3187 2.4437 16.9537 2.2197"
            stroke-width="1.5" stroke-linecap="round" stroke-linejoin="round" />
        <path
            d="M18.7285 11.2503C20.0795 11.4523 21.0225 11.9253 21.0225 12.9003C21.0225 13.5713 20.5785 14.0073 19.8605 14.2813"
            stroke-width="1.5" stroke-linecap="round" stroke-linejoin="round" />
        <path fill-rule="evenodd" clip-rule="evenodd"
            d="M10.8867 11.6638C7.6727 11.6638 4.9277 12.1508 4.9277 14.0958C4.9277 16.0398 7.6557 16.5408 10.8867 16.5408C14.1007 16.5408 16.8447 16.0588 16.8447 14.1128C16.8447 12.1668 14.1177 11.6638 10.8867 11.6638Z"
            stroke-width="1.5" stroke-linecap="round" stroke-linejoin="round" />
        <path opacity="0.4" fill-rule="evenodd" clip-rule="evenodd"
            d="M10.8867 8.88791C12.9957 8.88791 14.7057 7.17891 14.7057 5.06891C14.7057 2.95991 12.9957 1.24991 10.8867 1.24991C8.77772 1.24991 7.06772 2.95991 7.06772 5.06891C7.05972 7.17091 8.75672 8.88091 10.8587 8.88791H10.8867Z"
            stroke-width="1.5" stroke-linecap="round" stroke-linejoin="round" />
        <path opacity="0.4"
            d="M4.88481 7.8967C3.48881 7.7007 2.41581 6.5047 2.41281 5.0557C2.41281 3.6277 3.45381 2.4437 4.81881 2.2197"
            stroke-width="1.5" stroke-linecap="round" stroke-linejoin="round" />
        <path
            d="M3.04391 11.2503C1.69291 11.4523 0.749908 11.9253 0.749908 12.9003C0.749908 13.5713 1.19391 14.0073 1.91191 14.2813"
            stroke-width="1.5" stroke-linecap="round" stroke-linejoin="round" />
    </symbol>
    <symbol id="hours-work" xmlns="http://www.w3.org/2000/svg" viewBox="0 0 20 20" fill="none">
        <path fill-rule="evenodd" clip-rule="evenodd"
            d="M14.3347 0.750214H5.6657C2.6447 0.750214 0.750702 2.88921 0.750702 5.91621V14.0842C0.750702 17.1112 2.6347 19.2502 5.6657 19.2502H14.3337C17.3647 19.2502 19.2507 17.1112 19.2507 14.0842V5.91621C19.2507 2.88921 17.3647 0.750214 14.3347 0.750214Z"
            stroke="#E6B54D" stroke-width="1.5" stroke-linecap="round" stroke-linejoin="round" />
        <path opacity="0.4" d="M13.3913 12.0177L10.0003 9.99473V5.63373" stroke="#E6B54D"
            stroke-width="1.5" stroke-linecap="round" stroke-linejoin="round" />
    </symbol>
    <symbol id="box" xmlns="http://www.w3.org/2000/svg" viewBox="0 0 20 20" fill="none">
        <path
            d="M17.5 13.3333V6.66666C17.4997 6.37439 17.4225 6.08733 17.2763 5.83429C17.13 5.58125 16.9198 5.37113 16.6667 5.22499L10.8333 1.89166C10.58 1.74538 10.2926 1.66837 10 1.66837C9.70744 1.66837 9.42003 1.74538 9.16667 1.89166L3.33333 5.22499C3.08022 5.37113 2.86998 5.58125 2.72372 5.83429C2.57745 6.08733 2.5003 6.37439 2.5 6.66666V13.3333C2.5003 13.6256 2.57745 13.9126 2.72372 14.1657C2.86998 14.4187 3.08022 14.6289 3.33333 14.775L9.16667 18.1083C9.42003 18.2546 9.70744 18.3316 10 18.3316C10.2926 18.3316 10.58 18.2546 10.8333 18.1083L16.6667 14.775C16.9198 14.6289 17.13 14.4187 17.2763 14.1657C17.4225 13.9126 17.4997 13.6256 17.5 13.3333Z"
            stroke-width="2" stroke-linecap="round" stroke-linejoin="round" />
        <path d="M2.72498 5.79999L9.99998 10.0083L17.275 5.79999" stroke-width="2"
            stroke-linecap="round" stroke-linejoin="round" />
        <path d="M10 18.4V10" stroke-width="2" stroke-linecap="round" stroke-linejoin="round" />
    </symbol>
    <symbol id="dolar" xmlns="http://www.w3.org/2000/svg" viewBox="0 0 20 20" fill="none">
        <g clip-path="url(#clip0_306_238)">
            <path d="M10 0.833344V19.1667" stroke-width="2" stroke-linecap="round"
                stroke-linejoin="round" />
            <path
                d="M14.1667 4.16666H7.91667C7.14312 4.16666 6.40125 4.47395 5.85427 5.02093C5.30729 5.56791 5 6.30978 5 7.08332C5 7.85687 5.30729 8.59874 5.85427 9.14572C6.40125 9.6927 7.14312 9.99999 7.91667 9.99999H12.0833C12.8569 9.99999 13.5987 10.3073 14.1457 10.8543C14.6927 11.4012 15 12.1431 15 12.9167C15 13.6902 14.6927 14.4321 14.1457 14.9791C13.5987 15.526 12.8569 15.8333 12.0833 15.8333H5"
                stroke-width="2" stroke-linecap="round" stroke-linejoin="round" />
        </g>
        <defs>
            <clipPath id="clip0_306_238">
                <rect fill="white" />
            </clipPath>
        </defs>
    </symbol>
    <symbol id="round-right" xmlns="http://www.w3.org/2000/svg" viewBox="0 0 20 20" fill="none">
        <g clip-path="url(#clip0_306_247)">
            <path
                d="M18.3334 9.23336V10C18.3323 11.797 17.7504 13.5456 16.6745 14.9849C15.5985 16.4242 14.0861 17.4771 12.3628 17.9866C10.6395 18.4961 8.79774 18.4349 7.11208 17.8122C5.42642 17.1894 3.98723 16.0384 3.00915 14.5309C2.03108 13.0234 1.56651 11.2401 1.68475 9.44696C1.80299 7.65383 2.49769 5.94697 3.66525 4.58092C4.83281 3.21488 6.41068 2.26285 8.16351 1.86682C9.91635 1.47079 11.7502 1.65198 13.3917 2.38336"
                stroke-width="2" stroke-linecap="round" stroke-linejoin="round" />
            <path d="M18.3333 3.33331L10 11.675L7.5 9.17498" stroke-width="2" stroke-linecap="round"
                stroke-linejoin="round" />
        </g>
        <defs>
            <clipPath id="clip0_306_247">
                <rect fill="white" />
            </clipPath>
        </defs>
    </symbol>
    <symbol id="pie-chart" xmlns="http://www.w3.org/2000/svg" viewBox="0 0 20 20" fill="none">
        <g clip-path="url(#clip0_306_251)">
            <path
                d="M17.675 13.2417C17.1448 14.4954 16.3156 15.6002 15.2599 16.4594C14.2041 17.3187 12.954 17.9062 11.6187 18.1707C10.2834 18.4351 8.90368 18.3685 7.60011 17.9765C6.29655 17.5845 5.10884 16.8792 4.14084 15.9222C3.17283 14.9652 2.454 13.7856 2.04719 12.4866C1.64037 11.1876 1.55796 9.80874 1.80715 8.47053C2.05635 7.13232 2.62957 5.87553 3.4767 4.81003C4.32382 3.74453 5.41906 2.90277 6.66666 2.35834"
                stroke-width="2" stroke-linecap="round" stroke-linejoin="round" />
            <path
                d="M18.3333 10C18.3333 8.90567 18.1178 7.82204 17.699 6.81099C17.2802 5.79994 16.6664 4.88129 15.8926 4.10746C15.1187 3.33364 14.2001 2.71981 13.189 2.30102C12.178 1.88224 11.0943 1.66669 10 1.66669V10H18.3333Z"
                stroke-width="2" stroke-linecap="round" stroke-linejoin="round" />
        </g>
        <defs>
            <clipPath id="clip0_306_251">
                <rect fill="white" />
            </clipPath>
        </defs>
    </symbol>
    <symbol id="globe" xmlns="http://www.w3.org/2000/svg" viewBox="0 0 20 20" fill="none">
        <g clip-path="url(#clip0_306_254)">
            <path
                d="M10 18.3334C14.6024 18.3334 18.3334 14.6024 18.3334 10C18.3334 5.39765 14.6024 1.66669 10 1.66669C5.39765 1.66669 1.66669 5.39765 1.66669 10C1.66669 14.6024 5.39765 18.3334 10 18.3334Z"
                stroke-width="2" stroke-linecap="round" stroke-linejoin="round" />
            <path d="M1.66669 10H18.3334" stroke-width="2" stroke-linecap="round"
                stroke-linejoin="round" />
            <path
                d="M10 1.66669C12.0844 3.94865 13.269 6.91005 13.3334 10C13.269 13.09 12.0844 16.0514 10 18.3334C7.91562 16.0514 6.73106 13.09 6.66669 10C6.73106 6.91005 7.91562 3.94865 10 1.66669V1.66669Z"
                stroke-width="2" stroke-linecap="round" stroke-linejoin="round" />
        </g>
        <defs>
            <clipPath id="clip0_306_254">
                <rect fill="white" />
            </clipPath>
        </defs>
    </symbol>
    <symbol id="box-user" xmlns="http://www.w3.org/2000/svg" viewBox="0 0 20 20" fill="none">
        <path
            d="M10 1.66669C9.17591 1.66669 8.37033 1.91106 7.68512 2.3689C6.99992 2.82674 6.46587 3.47748 6.1505 4.23884C5.83514 5.0002 5.75262 5.83798 5.91339 6.64623C6.07417 7.45448 6.471 8.19691 7.05372 8.77963C7.63644 9.36235 8.37887 9.75919 9.18712 9.91996C9.99538 10.0807 10.8332 9.99822 11.5945 9.68285C12.3559 9.36749 13.0066 8.83343 13.4645 8.14823C13.9223 7.46302 14.1667 6.65744 14.1667 5.83335C14.1667 4.72828 13.7277 3.66848 12.9463 2.88708C12.1649 2.10567 11.1051 1.66669 10 1.66669ZM10 8.33335C9.50555 8.33335 9.0222 8.18673 8.61107 7.91203C8.19995 7.63732 7.87952 7.24688 7.6903 6.79006C7.50108 6.33325 7.45157 5.83058 7.54804 5.34563C7.6445 4.86068 7.8826 4.41522 8.23223 4.06559C8.58186 3.71596 9.02732 3.47785 9.51227 3.38139C9.99723 3.28493 10.4999 3.33444 10.9567 3.52365C11.4135 3.71287 11.804 4.0333 12.0787 4.44443C12.3534 4.85555 12.5 5.3389 12.5 5.83335C12.5 6.49639 12.2366 7.13228 11.7678 7.60112C11.2989 8.06996 10.663 8.33335 10 8.33335ZM17.5 17.5V16.6667C17.5 15.1196 16.8854 13.6359 15.7915 12.5419C14.6975 11.4479 13.2138 10.8334 11.6667 10.8334H8.33333C6.78624 10.8334 5.30251 11.4479 4.20854 12.5419C3.11458 13.6359 2.5 15.1196 2.5 16.6667V17.5H4.16667V16.6667C4.16667 15.5616 4.60565 14.5018 5.38705 13.7204C6.16846 12.939 7.22826 12.5 8.33333 12.5H11.6667C12.7717 12.5 13.8315 12.939 14.6129 13.7204C15.3943 14.5018 15.8333 15.5616 15.8333 16.6667V17.5H17.5Z"
            fill="#E74B2B" />
    </symbol>
    <symbol id="work-bag" xmlns="http://www.w3.org/2000/svg" viewBox="0 0 20 20" fill="none">
        <path fill-rule="evenodd" clip-rule="evenodd"
            d="M14.1667 5.83331C14.1667 5.17027 13.9033 4.53439 13.4344 4.06555C12.9656 3.59671 12.3297 3.33331 11.6667 3.33331H8.33333C7.67029 3.33331 7.03441 3.59671 6.56557 4.06555C6.09673 4.53439 5.83333 5.17027 5.83333 5.83331H5C4.33696 5.83331 3.70107 6.09671 3.23223 6.56555C2.76339 7.03439 2.5 7.67027 2.5 8.33331V15C2.5 15.663 2.76339 16.2989 3.23223 16.7677C3.70107 17.2366 4.33696 17.5 5 17.5H15C15.663 17.5 16.2989 17.2366 16.7678 16.7677C17.2366 16.2989 17.5 15.663 17.5 15V8.33331C17.5 7.67027 17.2366 7.03439 16.7678 6.56555C16.2989 6.09671 15.663 5.83331 15 5.83331H14.1667ZM11.6667 4.99998H8.33333C8.11232 4.99998 7.90036 5.08778 7.74408 5.24406C7.5878 5.40034 7.5 5.6123 7.5 5.83331H12.5C12.5 5.6123 12.4122 5.40034 12.2559 5.24406C12.0996 5.08778 11.8877 4.99998 11.6667 4.99998ZM5 7.49998H15C15.221 7.49998 15.433 7.58778 15.5893 7.74406C15.7455 7.90034 15.8333 8.1123 15.8333 8.33331V15C15.8333 15.221 15.7455 15.433 15.5893 15.5892C15.433 15.7455 15.221 15.8333 15 15.8333H5C4.77899 15.8333 4.56702 15.7455 4.41074 15.5892C4.25446 15.433 4.16667 15.221 4.16667 15V8.33331C4.16667 8.1123 4.25446 7.90034 4.41074 7.74406C4.56702 7.58778 4.77899 7.49998 5 7.49998Z"
            fill="#308E87" />
    </symbol>
    <symbol id="map-icon" xmlns="http://www.w3.org/2000/svg" viewBox="0 0 10 10" fill="none">
        <g clip-path="url(#clip0_254_546)">
            <path
                d="M8.75 4.16666C8.75 7.08332 5 9.58332 5 9.58332C5 9.58332 1.25 7.08332 1.25 4.16666C1.25 3.17209 1.64509 2.21827 2.34835 1.51501C3.05161 0.811745 4.00544 0.416656 5 0.416656C5.99456 0.416656 6.94839 0.811745 7.65165 1.51501C8.35491 2.21827 8.75 3.17209 8.75 4.16666Z"
                stroke-linecap="round" stroke-linejoin="round" />
            <path
                d="M5 5.41666C5.69036 5.41666 6.25 4.85701 6.25 4.16666C6.25 3.4763 5.69036 2.91666 5 2.91666C4.30964 2.91666 3.75 3.4763 3.75 4.16666C3.75 4.85701 4.30964 5.41666 5 5.41666Z"
                stroke-linecap="round" stroke-linejoin="round" />
        </g>
        <defs>
            <clipPath id="clip0_254_546">
                <rect fill="white" />
            </clipPath>
        </defs>
    </symbol>
    <symbol id="chart-invest" viewBox="0 0 30 30" fill="none" xmlns="http://www.w3.org/2000/svg">
        <path
            d="M23.125 11.2321V29.9821H30V11.2321H23.125ZM28.75 28.7321H24.375V12.4821H28.75V28.7321Z"
            fill="black" />
        <path
            d="M15.625 14.3572V29.9822H21.875V14.3572H15.625ZM20.625 28.7322H16.875V15.6072H20.625V28.7322Z"
            fill="black" />
        <path
            d="M8.125 17.4822V29.9822H14.375V17.4822H8.125ZM13.125 28.7322H9.375V18.7322H13.125V28.7322Z"
            fill="black" />
        <path d="M0 21.2322V29.9822H6.875V21.2322H0ZM5.625 28.7322H1.25V22.4822H5.625V28.7322Z"
            fill="black" />
    </symbol>
    <symbol id="headphone" xmlns="http://www.w3.org/2000/svg" viewBox="0 0 15 15" fill="none">
        <g clip-path="url(#clip0_362_305)">
            <path
                d="M15 7.56742C15 5.564 14.2198 3.67937 12.8039 2.26349C11.3881 0.847604 9.50343 0.0674248 7.5 0.0674248C5.49658 0.0674248 3.61194 0.847604 2.19606 2.26349C0.78018 3.67937 0 5.564 0 7.56742V11.1184C0 13.125 1.6342 14.7592 3.64084 14.7592C3.88164 14.7592 4.07427 14.5666 4.07427 14.3258V7.91417C4.07427 7.67337 3.88164 7.48074 3.64084 7.48074C2.52997 7.48074 1.53467 7.97838 0.866866 8.76498V7.56742C0.866866 3.91053 3.84311 0.934291 7.5 0.934291C11.1569 0.934291 14.1331 3.91053 14.1331 7.56742C14.1331 7.59632 14.1363 7.62521 14.1428 7.65411C14.1363 7.683 14.1331 7.7119 14.1331 7.7408V8.93836C13.4653 8.15175 12.47 7.65411 11.3592 7.65411C11.1184 7.65411 10.9257 7.84675 10.9257 8.08754V14.4991C10.9257 14.7399 11.1184 14.9326 11.3592 14.9326C13.3658 14.9326 15 13.2984 15 11.2917V7.7408C15 7.7119 14.9968 7.683 14.9904 7.65411C14.9968 7.62521 15 7.59632 15 7.56742ZM3.2042 8.37971V13.857C1.88142 13.6483 0.863656 12.4989 0.863656 11.1184C0.866866 9.7378 1.88142 8.5884 3.2042 8.37971ZM11.7958 14.0304V8.55308C13.1186 8.76177 14.1363 9.91117 14.1363 11.2917C14.1331 12.6755 13.1186 13.8217 11.7958 14.0304Z" />
        </g>
        <defs>
            <clipPath id="clip0_362_305">
                <rect width="15" height="15" fill="white" />
            </clipPath>
        </defs>
    </symbol>
    <symbol id="bulb" xmlns="http://www.w3.org/2000/svg" viewBox="0 0 20 20" fill="none">
        <path fill-rule="evenodd" clip-rule="evenodd"
            d="M9.99996 3.125C7.10327 3.125 4.79163 5.38939 4.79163 8.13828C4.79163 9.80875 5.47573 11.2494 6.69608 12.1467C6.96504 12.3444 7.19513 12.6393 7.28326 13.0135C7.35558 13.3206 7.43836 13.6948 7.52035 14.0913H9.37496V13.1892C9.37496 13.0703 9.40888 12.9539 9.47271 12.8536L10.141 11.8041L8.64171 10.6267C8.38904 10.4283 8.32796 10.0706 8.50054 9.7995L9.47271 8.27247C9.65813 7.9813 10.0445 7.89554 10.3356 8.08093C10.6268 8.26631 10.7125 8.65267 10.5272 8.94383L9.85896 9.99325L11.3582 11.1707C11.6109 11.3691 11.672 11.7268 11.4994 11.9978L10.625 13.3713V14.0913H12.4795C12.5615 13.6948 12.6443 13.3206 12.7166 13.0135C12.8048 12.6393 13.0349 12.3444 13.3039 12.1467C14.5242 11.2494 15.2083 9.80875 15.2083 8.13828C15.2083 5.38939 12.8966 3.125 9.99996 3.125ZM12.2405 15.3413H7.75936C7.85137 15.8726 7.92355 16.3758 7.94541 16.737C7.96842 17.1173 8.25268 17.4582 8.67179 17.5488L8.83513 17.5841C9.60213 17.7498 10.3978 17.7498 11.1648 17.5841L11.3281 17.5488C11.7472 17.4582 12.0315 17.1173 12.0545 16.737C12.0764 16.3758 12.1485 15.8726 12.2405 15.3413ZM3.54163 8.13828C3.54163 4.6593 6.45333 1.875 9.99996 1.875C13.5466 1.875 16.4583 4.6593 16.4583 8.13828C16.4583 10.1582 15.622 11.9938 14.0443 13.1538C13.9723 13.2067 13.9422 13.2623 13.9334 13.3001C13.8347 13.7189 13.7145 14.2733 13.605 14.8358C13.4526 15.6177 13.3286 16.376 13.3022 16.8125C13.2439 17.7777 12.5338 18.5671 11.5921 18.7706L11.4288 18.8058C10.4878 19.0092 9.51213 19.0092 8.57113 18.8058L8.40779 18.7706C7.46614 18.5671 6.75608 17.7777 6.69768 16.8125C6.67128 16.376 6.54728 15.6177 6.39495 14.8358C6.28538 14.2733 6.16521 13.7189 6.06655 13.3001C6.05767 13.2623 6.02758 13.2067 5.95563 13.1538C4.37793 11.9938 3.54163 10.1582 3.54163 8.13828Z"
            fill="#308E87" />
    </symbol>
    <symbol id="smartphone" xmlns="http://www.w3.org/2000/svg" viewBox="0 0 19 19" fill="none">
        <path
            d="M13.5169 0H5.48295C4.80023 0 4.24475 0.556036 4.24475 1.23951V17.7612C4.24475 18.4443 4.80023 19 5.48295 19H13.5168C14.1997 19 14.7552 18.4443 14.7552 17.7612V1.23951C14.7553 0.556036 14.1997 0 13.5169 0ZM5.28091 4.27796L13.7192 4.27816V13.4941H5.28091V4.27796ZM5.48295 1.03609H13.5168C13.6284 1.03609 13.7191 1.12734 13.7191 1.23951V3.242L5.28091 3.24186V1.23951C5.28091 1.12734 5.37154 1.03609 5.48295 1.03609ZM13.5169 17.9639H5.48295C5.3734 17.9639 5.28084 17.8711 5.28084 17.7612V14.5301H13.7191V17.7612C13.7192 17.8729 13.6284 17.9639 13.5169 17.9639Z"
            fill="#E74B2B" />
        <path
            d="M9.50004 15.0204C8.82423 15.0204 8.27441 15.5707 8.27441 16.247C8.27441 16.9224 8.82423 17.4719 9.50004 17.4719C10.1759 17.4719 10.7257 16.9224 10.7257 16.247C10.7257 15.5707 10.1759 15.0204 9.50004 15.0204ZM9.50004 16.7812C9.2031 16.7812 8.96514 16.5424 8.96514 16.247C8.96514 15.9514 9.2031 15.7112 9.50004 15.7112C9.79636 15.7112 10.035 15.9515 10.035 16.247C10.035 16.5424 9.79636 16.7812 9.50004 16.7812Z"
            fill="#E74B2B" />
        <path
            d="M8.45804 2.48434H10.5422C10.7329 2.48434 10.8876 2.32968 10.8876 2.13897C10.8876 1.94826 10.7329 1.79361 10.5422 1.79361H8.45804C8.26732 1.79361 8.11267 1.94826 8.11267 2.13897C8.11267 2.32968 8.26726 2.48434 8.45804 2.48434Z"
            fill="#E74B2B" />
    </symbol>
    <symbol id="filmcamera" xmlns="http://www.w3.org/2000/svg" viewBox="0 0 18 18" fill="none">
        <g clip-path="url(#clip0_365_332)">
            <path
                d="M17.2653 7.42149L6.85198 1.01602C5.88519 0.421878 4.74964 0.242581 3.64573 0.502737C2.54534 0.766409 1.6137 1.44492 1.01956 2.41172C-0.203878 4.40508 0.421903 7.02774 2.41175 8.25117L5.54417 10.1777V14.3789H2.79495V13.3594C2.79495 12.9621 2.47503 12.6422 2.07776 12.6422C1.6805 12.6422 1.36058 12.9621 1.36058 13.3594V16.8961C1.36058 17.2934 1.6805 17.6133 2.07776 17.6133C2.47503 17.6133 2.79495 17.2934 2.79495 16.8961V15.8133H6.26136C6.65862 15.8133 6.97855 15.4934 6.97855 15.0961V11.0602C6.97855 11.0602 10.1602 13.0184 10.2094 13.05C10.5012 13.2293 10.8317 13.3207 11.1973 13.3207C12.375 13.3207 13.7391 12.3363 14.6743 10.8105C15.2473 9.87539 15.5602 8.92266 15.6094 8.08594L16.5129 8.64141C16.8504 8.84883 17.2934 8.74336 17.5008 8.40586C17.7082 8.07188 17.6028 7.62891 17.2653 7.42149ZM2.243 3.16055C2.63323 2.52071 3.25198 2.07422 3.98323 1.89844C4.71097 1.72266 5.46331 1.84571 6.10315 2.23594L12.2028 5.99063C11.468 6.41953 10.7508 7.14024 10.1918 8.0543C9.61878 8.98946 9.30589 9.94219 9.25667 10.7789L3.16409 7.03125C1.84573 6.21914 1.43089 4.48242 2.243 3.16055ZM13.4508 10.0617C12.716 11.2605 11.5032 12.1184 10.9618 11.8301C10.5399 11.6051 10.5293 10.248 11.4118 8.80664C12.1465 7.60781 13.2364 6.79219 13.9008 7.03828C14.3086 7.28789 14.3332 8.62032 13.4508 10.0617Z"
                fill="#E6B54D" />
        </g>
        <defs>
            <clipPath id="clip0_365_332">
                <rect width="18" height="18" fill="white" />
            </clipPath>
        </defs>
    </symbol>
    <symbol id="laptop" xmlns="http://www.w3.org/2000/svg" viewBox="0 0 18 18" fill="none">
        <path
            d="M16.5938 13.4795V3.72067C16.5938 3.17674 16.1522 2.73405 15.6094 2.73405H2.39062C1.84779 2.73405 1.40624 3.17674 1.40624 3.72067V13.4795H0V14.0752L0.9 15.266H17.1L18 14.0752V13.4795H16.5938V13.4795ZM2.53124 3.85847H15.4687V13.4795H2.53124V3.85847Z"
            fill="#308E87" />
    </symbol>
    <symbol id="tv" xmlns="http://www.w3.org/2000/svg" viewBox="0 0 16 16" fill="none">
        <g clip-path="url(#clip0_364_309)">
            <path
                d="M1.33337 13.3333V6.00001C1.33337 5.26363 1.93033 4.66667 2.66671 4.66667H13.3334C14.0698 4.66667 14.6667 5.26363 14.6667 6.00001V13.3333C14.6667 14.0697 14.0698 14.6667 13.3334 14.6667H2.66671C1.93033 14.6667 1.33337 14.0697 1.33337 13.3333Z"
                stroke-width="1.5" />
            <path d="M5.66663 1.66667L7.99996 4.00001L10.3333 1.66667" stroke-width="1.5"
                stroke-linecap="round" stroke-linejoin="round" />
        </g>
        <defs>
            <clipPath id="clip0_364_309">
                <rect width="16" height="16" fill="white" />
            </clipPath>
        </defs>
    </symbol>
    <symbol id="samsung-mobile" xmlns="http://www.w3.org/2000/svg" viewBox="0 0 22 22" fill="none">
        <g clip-path="url(#clip0_363_305)">
            <path
                d="M15.2778 2.44444H6.72222C6.39807 2.44444 6.08719 2.57321 5.85798 2.80242C5.62877 3.03163 5.5 3.34251 5.5 3.66666V18.3333C5.5 18.6575 5.62877 18.9684 5.85798 19.1976C6.08719 19.4268 6.39807 19.5556 6.72222 19.5556H15.2778C15.6019 19.5556 15.9128 19.4268 16.142 19.1976C16.3712 18.9684 16.5 18.6575 16.5 18.3333V3.66666C16.5 3.34251 16.3712 3.03163 16.142 2.80242C15.9128 2.57321 15.6019 2.44444 15.2778 2.44444ZM6.72222 3.66666H15.2778V14.6667H6.72222V3.66666ZM6.72222 18.3333V15.8889H15.2778V18.3333H6.72222Z"
                fill="#E6B54D" />
            <path d="M11.6111 16.5H10.3889V17.7222H11.6111V16.5Z" fill="#E6B54D" />
        </g>
        <defs>
            <clipPath id="clip0_363_305">
                <rect width="22" height="22" fill="white" />
            </clipPath>
        </defs>
    </symbol>
    <symbol id="cart" viewBox="0 0 29 26" xmlns="http://www.w3.org/2000/svg">
        <path
            d="M16.8036 17.6953C14.8101 17.6953 12.8118 17.6616 10.8183 17.7049C9.22443 17.7434 7.98691 16.7467 7.62095 15.1865C6.71087 11.3295 5.74783 7.48214 4.79922 3.63476C4.57291 2.71505 3.92767 2.20464 2.98388 2.19982C2.54088 2.19501 2.09306 2.20464 1.65006 2.19982C1.26965 2.19501 1 1.94462 1 1.60273C1 1.26085 1.27447 1.00564 1.65969 1.00564C2.29048 1.01046 2.93091 0.967122 3.55208 1.06343C4.77996 1.25122 5.56485 2.0024 5.92117 3.18213C6.056 3.63476 6.16194 4.09703 6.26306 4.55448C6.30158 4.74227 6.38344 4.79524 6.56642 4.79524C7.73652 4.78561 8.91144 4.79042 10.0864 4.79042C15.8165 4.79042 21.5466 4.79042 27.2768 4.79042C27.3827 4.79042 27.4838 4.79042 27.5898 4.79042C28.0713 4.80487 28.312 5.11304 28.2061 5.58494C27.9172 6.86579 27.6235 8.14183 27.3297 9.42268C26.8771 11.4017 26.4293 13.3808 25.967 15.3551C25.6396 16.7707 24.5273 17.676 23.0779 17.6856C20.9832 17.7049 18.8934 17.6904 16.8036 17.6953ZM6.63383 6.00868C6.65791 6.11943 6.67235 6.21092 6.69643 6.30241C7.40908 9.206 8.12174 12.1144 8.82958 15.018C9.06553 15.9907 9.70114 16.4963 10.6979 16.4963C14.7716 16.4963 18.8453 16.4963 22.9238 16.4963C23.9735 16.4963 24.5995 15.9907 24.8306 14.965C25.2929 12.9426 25.7551 10.9154 26.2222 8.893C26.4389 7.93959 26.6604 6.98136 26.8819 6.00868C20.1261 6.00868 13.3992 6.00868 6.63383 6.00868Z"
            stroke-width="0.3" />
        <path
            d="M9.66261 22.3082C9.66743 20.8251 10.8809 19.6213 12.3543 19.6357C13.8422 19.6502 15.0268 20.854 15.0172 22.3419C15.0075 23.8154 13.8085 24.9999 12.3399 24.9999C10.8568 24.9999 9.6578 23.7961 9.66261 22.3082ZM10.8616 22.3227C10.8616 23.1412 11.5261 23.8057 12.3399 23.8057C13.1537 23.8057 13.8182 23.1364 13.8182 22.3227C13.8182 21.5041 13.1585 20.8492 12.3399 20.8492C11.5117 20.8444 10.8616 21.4944 10.8616 22.3227Z"
            stroke-width="0.3" />
        <path
            d="M23.1403 22.3178C23.1403 23.8058 21.9413 25.0047 20.4582 24.9999C18.9751 24.9951 17.781 23.7913 17.7858 22.3034C17.7906 20.8348 18.9848 19.6406 20.4534 19.6358C21.9365 19.6309 23.1403 20.8348 23.1403 22.3178ZM21.9413 22.3323C21.9461 21.5041 21.3009 20.8492 20.4775 20.8444C19.6541 20.8396 18.9896 21.4896 18.9848 22.3082C18.98 23.122 19.6396 23.7961 20.4534 23.8058C21.2624 23.8106 21.9365 23.1461 21.9413 22.3323Z"
            stroke-width="0.3" />
    </symbol>
    <symbol id="halfcircle" viewBox="0 0 35 51" xmlns="http://www.w3.org/2000/svg">
        <path
            d="M3.4163 16.3272C3.4163 11.5693 4.49397 6.87739 6.56134 2.63268C6.94989 1.83359 6.66398 0.873212 5.89421 0.433345L5.85756 0.411352C5.00715 -0.0798326 3.92214 0.250067 3.48961 1.13713C2.5439 3.07988 1.78146 5.10326 1.21696 7.17797C0.410542 10.1471 0 13.2261 0 16.3272C0 21.0191 0.916389 25.5717 2.7345 29.8531C4.48664 33.9878 6.98655 37.7047 10.1829 40.9011C13.3719 44.0901 17.0888 46.5973 21.2309 48.3495C24.7572 49.8377 28.4667 50.7248 32.2789 50.996C33.2612 51.062 34.0897 50.2922 34.0897 49.3099V49.2732C34.0897 48.3788 33.4005 47.653 32.5061 47.587C16.2677 46.4214 3.4163 32.8442 3.4163 16.3272Z" />
    </symbol>
    <symbol id="tag" viewBox="0 0 30 31" xmlns="http://www.w3.org/2000/svg">
        <path fill-rule="evenodd" clip-rule="evenodd"
            d="M24.9093 1.04004C22.3026 1.04004 20.1783 3.16434 20.1783 5.77108C20.1783 6.95386 20.6218 8.09388 21.4203 8.96625C21.514 9.06878 21.6444 9.1297 21.7831 9.13604C21.9217 9.14238 22.057 9.09304 22.1593 8.99932C22.2616 8.90561 22.3225 8.77495 22.3283 8.63631C22.3341 8.49767 22.2844 8.36233 22.1904 8.26034C21.5678 7.58035 21.2227 6.69278 21.2227 5.77109C21.2227 3.72892 22.8671 2.08445 24.9093 2.08445C26.9515 2.08445 28.5959 3.72892 28.5959 5.77109C28.5959 6.66414 28.2715 7.52719 27.6833 8.19916H27.683C27.5904 8.30336 27.543 8.44008 27.5518 8.57927C27.5603 8.71819 27.6243 8.84801 27.7293 8.9398C27.8343 9.03159 27.9713 9.07734 28.1105 9.06742C28.2494 9.0575 28.3787 8.99245 28.4694 8.88661C29.2241 8.02439 29.64 6.91691 29.64 5.7711C29.64 3.16443 27.5157 1.04006 24.909 1.04006L24.9093 1.04004ZM16.0642 3.65087C15.9256 3.65087 15.793 3.706 15.6949 3.80385L0.552795 18.946C0.349101 19.15 0.349101 19.4804 0.552795 19.6844L10.9954 30.1271H10.9957C11.1994 30.331 11.5299 30.331 11.7338 30.1271L26.8759 14.9849H26.8762C26.9741 14.8871 27.0292 14.7542 27.0292 14.6158V4.17251C27.0292 3.8842 26.7952 3.65046 26.5069 3.65046H23.374C23.2343 3.64825 23.0995 3.70255 22.9997 3.80068C22.9002 3.8988 22.844 4.03277 22.844 4.17251C22.844 4.31254 22.9002 4.44649 22.9997 4.54462C23.0995 4.64274 23.2343 4.69677 23.374 4.69484H25.9848V14.3994L11.3649 29.0193L1.66039 19.3148L16.2803 4.69484H18.6748C18.8148 4.69677 18.9496 4.64275 19.0491 4.54462C19.1489 4.44649 19.2048 4.31253 19.2048 4.17251C19.2048 4.03276 19.1489 3.8988 19.0491 3.80068C18.9496 3.70255 18.8148 3.64825 18.6748 3.65046L16.0642 3.65087ZM22.8185 7.17846C22.6059 7.18976 22.4218 7.32924 22.3526 7.53045C22.2837 7.73167 22.3435 7.95466 22.5042 8.09413C22.7256 8.29232 22.8521 8.57512 22.8521 8.87223C22.8521 9.4552 22.3907 9.91664 21.8077 9.91664C21.2247 9.91664 20.7633 9.45522 20.7633 8.87223H20.7636C20.7655 8.73248 20.7112 8.5977 20.6131 8.49819C20.5149 8.39868 20.3812 8.34273 20.2412 8.34273C20.1015 8.34273 19.9675 8.39869 19.8694 8.49819C19.7713 8.5977 19.7172 8.73248 19.7192 8.87223C19.7192 10.0194 20.6605 10.9608 21.8077 10.9608C22.9549 10.9608 23.8962 10.0194 23.8962 8.87223C23.8962 8.27878 23.6429 7.7121 23.2008 7.31596C23.1104 7.23272 22.9935 7.18393 22.8706 7.17815C22.8532 7.17732 22.8358 7.17732 22.8185 7.17815L22.8185 7.17846ZM14.5739 12.4183C14.3457 12.4305 14.1516 12.5901 14.0957 12.8119L11.8021 21.3712C11.7629 21.506 11.7798 21.6507 11.8489 21.7728C11.9179 21.8952 12.0331 21.9845 12.1684 22.0209C12.304 22.0573 12.4485 22.0375 12.5695 21.9661C12.6902 21.8947 12.7773 21.7775 12.8106 21.6414L15.1042 13.0821C15.1502 12.92 15.1152 12.7455 15.0099 12.6138C14.9047 12.482 14.7423 12.4092 14.5739 12.4183L14.5739 12.4183ZM17.2479 14.7436C16.9463 14.7218 16.6365 14.7855 16.3576 14.9465C15.6136 15.3759 15.3551 16.3423 15.7845 17.0859C16.214 17.8299 17.1803 18.0896 17.924 17.6601C18.6679 17.2307 18.9265 16.2634 18.497 15.5195C18.2286 15.0545 17.7503 14.7797 17.2479 14.7433V14.7436ZM17.0775 15.7828C17.2796 15.756 17.4822 15.8506 17.5924 16.0419C17.7396 16.2971 17.6569 16.6086 17.4017 16.7558C17.1467 16.903 16.8361 16.8192 16.6888 16.5642C16.5417 16.309 16.6243 15.9986 16.8796 15.8514C16.9433 15.8144 17.0102 15.7918 17.0775 15.783L17.0775 15.7828ZM9.87375 16.5896C9.57221 16.5678 9.26129 16.6323 8.98233 16.7936C8.23839 17.223 7.97985 18.1894 8.40928 18.933C8.83872 19.677 9.80509 19.9355 10.5488 19.5061C11.2927 19.0767 11.5512 18.1103 11.1218 17.3666C10.8533 16.9016 10.3759 16.626 9.87347 16.5896L9.87375 16.5896ZM9.70341 17.6298C9.90545 17.6031 10.108 17.6977 10.2183 17.8889C10.3655 18.1442 10.2817 18.4546 10.0265 18.6018C9.77149 18.749 9.46085 18.666 9.31363 18.411C9.16644 18.1561 9.24913 17.8443 9.50436 17.6971C9.56804 17.6605 9.63584 17.6387 9.7031 17.6299L9.70341 17.6298Z"
            stroke-width="0.5" />
    </symbol>
    <symbol id="return-box" viewBox="0 0 28 30" xmlns="http://www.w3.org/2000/svg">
        <path
            d="M21.089 4.78133H3.49816L7.2692 2.06971H7.26892C7.50163 1.8616 7.54032 1.5109 7.3592 1.25638C7.1778 1.00186 6.83434 0.925369 6.56263 1.07893L1.2515 4.89862C1.09337 5.01393 1 5.19813 1 5.39415C1 5.59017 1.09337 5.77437 1.2515 5.88967L6.56263 9.69331C6.83488 9.85812 7.18786 9.78584 7.37377 9.52711C7.55966 9.26809 7.51648 8.90925 7.27424 8.70255L3.5032 5.99093H21.089C22.3336 5.99233 23.5272 6.48871 24.4072 7.37179C25.2874 8.25459 25.7825 9.4518 25.7839 10.7001V14.0405C25.7825 15.2892 25.2874 16.4861 24.4072 17.3689C23.5271 18.252 22.3336 18.7486 21.089 18.75C21.0571 18.7472 21.0251 18.7472 20.9934 18.75V13.2413C20.9926 13.1814 20.9819 13.122 20.9615 13.0655V13.0177C20.9315 12.9693 20.8936 12.926 20.8499 12.8897L20.8073 12.847L20.8075 12.8473C20.7753 12.818 20.7394 12.793 20.7013 12.7724H20.648C20.5888 12.7491 20.5258 12.7364 20.4621 12.7353H6.62084C6.4986 12.7362 6.38055 12.7795 6.28635 12.8577L1.50621 16.7732V16.7735C1.40808 16.8725 1.34611 17.0022 1.33098 17.1411V28.4673C1.33098 28.6088 1.38677 28.7441 1.48659 28.8442C1.58612 28.944 1.72126 29 1.86201 29H15.7988C15.8663 28.9986 15.9331 28.9842 15.9953 28.9575C16.0503 28.9238 16.1049 28.89 16.1599 28.8563L20.8178 24.509C20.9257 24.4086 20.9874 24.2677 20.988 24.1201V19.9542C21.0197 19.9568 21.0516 19.9568 21.0836 19.9542C22.6481 19.9542 24.1489 19.3327 25.2578 18.2252C26.3666 17.118 26.993 15.6154 27 14.0461V10.711C26.9986 9.13894 26.3753 7.63158 25.2673 6.51983C24.159 5.40816 22.6561 4.78296 21.0888 4.78152L21.089 4.78133ZM6.81206 13.785H19.0011L17.9387 14.6799H5.72315L6.81206 13.785ZM15.5917 16.619H3.32805L4.43836 15.7401H16.6539L15.5917 16.619ZM15.2519 27.9236H2.3724V17.6845H15.2677L15.2519 27.9236ZM16.3142 27.2309V17.4123L19.9101 14.3862L19.9098 23.8853L16.3142 27.2309Z"
            stroke-width="0.2" />
    </symbol>
    <symbol id="rate" viewBox="0 0 26 26" xmlns="http://www.w3.org/2000/svg">
        <path
            d="M18.4623 25.2227C18.0547 25.2227 17.6422 25.2227 17.2346 25.2227C17.1904 25.208 17.1462 25.1884 17.0971 25.1834C14.4061 24.8643 12.3976 23.5138 11.0619 21.1616C10.9735 21.0045 10.8851 20.9504 10.7034 20.9504C7.60967 20.9553 4.51593 20.9504 1.42711 20.9603C0.975328 20.9603 0.636491 20.8326 0.440063 20.4103C0.440063 13.8152 0.440063 7.21525 0.440063 0.620193C0.55792 0.379569 0.734705 0.197874 0.980239 0.0800171C7.57529 0.0800171 14.1753 0.0800171 20.7703 0.0800171C21.1975 0.276445 21.3203 0.615282 21.3154 1.06707C21.3007 4.1608 21.3105 7.25453 21.3056 10.3434C21.3056 10.525 21.3596 10.6134 21.5167 10.7018C23.4417 11.7675 24.7185 13.3634 25.3078 15.4848C25.4355 15.9366 25.4895 16.4081 25.5779 16.8746C25.5779 17.2822 25.5779 17.6947 25.5779 18.1022C25.5631 18.1661 25.5386 18.225 25.5337 18.2888C25.2341 21.5397 22.7788 24.3192 19.5917 25.0214C19.2185 25.1049 18.8404 25.1589 18.4623 25.2227ZM10.3695 19.4674C9.75564 16.6339 10.3498 14.1098 12.4074 12.0523C14.4699 9.98978 16.9891 9.39559 19.8225 10.0094C19.8225 7.1956 19.8225 4.38178 19.8225 1.56796C18.0056 1.56796 16.2034 1.56796 14.3864 1.56796C14.3864 1.67108 14.3864 1.75947 14.3864 1.85277C14.3864 3.09027 14.3864 4.32285 14.3864 5.56034C14.3864 6.28221 13.861 6.60632 13.2128 6.28222C12.4958 5.92373 11.7838 5.56034 11.0717 5.19204C10.9391 5.12329 10.8311 5.11347 10.6887 5.18713C9.97171 5.56034 9.24984 5.92373 8.52797 6.28713C7.8994 6.60141 7.36904 6.27239 7.36904 5.56525C7.36904 4.32285 7.36904 3.07554 7.36904 1.83313C7.36904 1.74474 7.36904 1.65635 7.36904 1.56796C5.53736 1.56796 3.73513 1.56796 1.93782 1.56796C1.93782 7.54426 1.93782 13.5058 1.93782 19.4674C4.75165 19.4674 7.55565 19.4674 10.3695 19.4674ZM11.6119 17.508C11.6168 20.9553 14.4159 23.7544 17.8583 23.7495C21.3105 23.7495 24.1096 20.9504 24.1096 17.508C24.1096 14.046 21.3056 11.2469 17.8485 11.2567C14.3962 11.2666 11.607 14.0558 11.6119 17.508ZM12.9132 1.56796C11.5382 1.56796 10.1927 1.56796 8.85207 1.56796C8.85207 2.53536 8.85207 3.48803 8.85207 4.47017C9.4168 4.18535 9.95207 3.91526 10.4873 3.64027C10.7476 3.50277 10.998 3.50277 11.2583 3.64027C11.7297 3.88089 12.2061 4.12151 12.6775 4.36214C12.7462 4.39651 12.815 4.42597 12.9083 4.47508C12.9083 3.54696 12.9083 2.66795 12.9083 1.78403C12.9132 1.71528 12.9132 1.65144 12.9132 1.56796Z" />
        <path
            d="M16.9253 16.5553C17.0677 16.6781 17.2151 16.791 17.3427 16.9236C17.6472 17.2428 17.6325 17.6455 17.328 17.9499C17.0285 18.2446 16.6258 18.2642 16.3213 17.9647C15.7468 17.4049 15.1771 16.8401 14.6173 16.2656C14.3079 15.9513 14.3178 15.529 14.6271 15.2147C15.1771 14.6549 15.732 14.1 16.2919 13.5451C16.6061 13.2357 17.0137 13.2357 17.3182 13.5303C17.6325 13.8397 17.6423 14.2424 17.328 14.5763C17.2052 14.704 17.0628 14.812 16.9253 14.9299C16.9401 14.9544 16.9499 14.979 16.9646 15.0035C17.1316 15.0035 17.2986 14.9986 17.4655 15.0035C18.1186 15.0183 18.7767 14.979 19.4249 15.0576C20.7655 15.2245 21.7967 16.462 21.8017 17.8272C21.8017 19.2807 20.795 20.5084 19.42 20.7048C19.0762 20.754 18.7177 20.749 18.3691 20.754C17.4508 20.7589 16.5374 20.7589 15.6191 20.754C15.1182 20.754 14.7843 20.4593 14.7794 20.0223C14.7745 19.5754 15.1133 19.2807 15.6289 19.2807C16.724 19.2807 17.8191 19.2857 18.9191 19.2807C19.4838 19.2807 19.9159 19.0303 20.1713 18.5245C20.4316 18.0138 20.3726 17.508 20.0485 17.0415C19.8128 16.6977 19.4691 16.5013 19.0566 16.4915C18.3642 16.4718 17.6669 16.4866 16.9744 16.4866C16.9597 16.5062 16.9401 16.5308 16.9253 16.5553Z" />
    </symbol>
    <symbol id="profit" viewBox="0 0 26 25" xmlns="http://www.w3.org/2000/svg">
        <path
            d="M0.414612 15.2724C0.610207 14.8486 0.942718 14.7247 1.39911 14.7313C3.47893 14.7443 5.56528 14.7378 7.64511 14.7378C7.78203 14.7378 7.87982 14.7247 7.95806 14.5813C9.37938 12.0516 11.1397 9.78923 13.3891 7.93107C13.4086 7.91803 13.4217 7.89195 13.4412 7.86588C12.9979 6.96614 12.548 6.0664 12.1047 5.16666C11.6874 4.32561 11.2767 3.47151 10.8463 2.63697C10.6573 2.25882 10.6964 1.94587 10.9637 1.62639C11.4005 1.11785 11.883 0.661458 12.4698 0.328947C13.2913 -0.127442 14.1063 -0.107882 14.8952 0.381105C15.2277 0.58322 15.5276 0.830974 15.8405 1.05265C16.1274 0.844014 16.4208 0.60278 16.7338 0.407185C17.5553 -0.114402 18.3963 -0.133962 19.2439 0.348506C19.8633 0.700577 20.3653 1.18305 20.8021 1.73723C21.0238 2.0241 20.9912 2.3175 20.8347 2.63045C20.0067 4.29301 19.1787 5.96208 18.3572 7.63116C18.3181 7.7094 18.279 7.79416 18.2333 7.88543C18.292 7.93759 18.3507 7.99627 18.4094 8.04843C21.0042 10.3695 23.0645 13.1013 24.5119 16.2765C25.0465 17.45 25.4247 18.6758 25.4117 19.9928C25.3856 22.1117 24.3424 23.5787 22.3539 24.3154C21.265 24.7196 20.1371 24.8826 18.9896 24.9544C18.8527 24.9609 18.7158 24.987 18.5789 25C12.7045 25 6.83013 25 0.955758 25C0.714524 24.8826 0.531969 24.7066 0.421132 24.4654C0.414612 21.388 0.414612 18.3302 0.414612 15.2724ZM16.5316 8.87645C16.6034 9.30024 16.6425 9.73707 16.7468 10.1609C16.9228 10.865 17.2945 11.4713 17.803 11.9995C18.1225 12.332 18.116 12.7818 17.8095 13.0687C17.4966 13.3621 17.0467 13.336 16.7272 12.9905C16.5838 12.834 16.4404 12.6775 16.3165 12.508C16.1535 12.2928 16.0035 12.0646 15.8601 11.856C15.5471 12.2472 15.2538 12.6254 14.9408 13.0035C14.7582 13.2252 14.504 13.3165 14.2171 13.2513C13.6434 13.1209 13.4543 12.4493 13.8716 12.006C14.2627 11.5887 14.5757 11.1323 14.7843 10.6042C15.006 10.0435 15.1234 9.45672 15.1038 8.85037C14.6539 8.79169 14.6279 8.79169 14.2758 9.0916C12.3915 10.6564 10.892 12.5471 9.6141 14.6269C9.60106 14.653 9.59454 14.6856 9.5815 14.7313C9.68582 14.7313 9.77709 14.7313 9.86185 14.7313C11.8048 14.7313 13.7477 14.7313 15.6971 14.7313C16.2969 14.7313 16.5708 15.0051 16.5708 15.6114C16.5708 18.1477 16.5708 20.6839 16.5708 23.2266C16.5708 23.3179 16.5708 23.4157 16.5708 23.5656C17.6857 23.507 18.7679 23.4744 19.8437 23.3896C20.6131 23.3309 21.3694 23.1549 22.08 22.8419C23.1362 22.3725 23.7687 21.5901 23.9056 20.4166C23.9969 19.6537 23.8795 18.9235 23.6578 18.2063C23.2275 16.772 22.5299 15.4615 21.728 14.2032C20.5218 12.3189 19.1265 10.5912 17.4249 9.1242C17.1836 8.91557 16.9424 8.74605 16.5316 8.87645ZM15.0973 16.2178C10.6834 16.2178 6.28898 16.2178 1.90113 16.2178C1.90113 18.6627 1.90113 21.0881 1.90113 23.507C6.30854 23.507 10.6964 23.507 15.0973 23.507C15.0973 21.0751 15.0973 18.6562 15.0973 16.2178ZM15.834 7.36385C15.9579 7.36385 16.0818 7.34429 16.1991 7.37037C16.7012 7.46817 16.9424 7.24649 17.1575 6.7901C17.8356 5.3427 18.5593 3.91486 19.2765 2.48701C19.3482 2.3501 19.3547 2.25882 19.2243 2.16102C19.0157 2.00454 18.8266 1.82851 18.6115 1.67855C18.2203 1.3982 17.8095 1.3982 17.4379 1.69811C17.1054 1.95239 16.7794 2.23926 16.4925 2.55873C16.0557 3.0412 15.6189 3.0412 15.182 2.55221C14.9017 2.23926 14.5822 1.95891 14.2562 1.69811C13.865 1.38516 13.4478 1.38516 13.0435 1.68507C12.8479 1.82851 12.6654 1.9915 12.4698 2.14146C12.3394 2.23926 12.3263 2.33054 12.4046 2.48701C13.187 4.03873 13.9563 5.59697 14.7191 7.15521C14.7908 7.30517 14.8691 7.37689 15.0451 7.36385C15.3124 7.35081 15.5732 7.36385 15.834 7.36385Z" />
        <path
            d="M8.53182 17.6653C9.74451 17.6718 10.7225 18.6693 10.716 19.8885C10.7029 21.0882 9.71191 22.0661 8.50574 22.0596C7.29305 22.0531 6.31508 21.0556 6.3216 19.8364C6.33464 18.6367 7.32565 17.6587 8.53182 17.6653ZM8.51226 19.1257C8.11455 19.1257 7.78856 19.4582 7.78856 19.8559C7.78856 20.2536 8.12107 20.5861 8.51226 20.5861C8.91649 20.5927 9.25552 20.2471 9.249 19.8429C9.24248 19.4517 8.90997 19.1257 8.51226 19.1257Z" />
        <path
            d="M4.8546 19.882C4.84157 20.2797 4.50253 20.5992 4.11134 20.5927C3.70711 20.5862 3.3746 20.2341 3.39416 19.8299C3.41372 19.4321 3.75927 19.1192 4.15046 19.1322C4.54817 19.1453 4.86764 19.4843 4.8546 19.882Z" />
        <path
            d="M13.6434 19.8689C13.6368 20.2666 13.3043 20.5926 12.9131 20.5926C12.5089 20.5926 12.1699 20.2471 12.1829 19.8428C12.1894 19.4451 12.5285 19.1257 12.9262 19.1322C13.3174 19.1322 13.6434 19.4712 13.6434 19.8689Z" />
    </symbol>
    <symbol id="sale" viewBox="0 0 25 25" stroke="none" xmlns="http://www.w3.org/2000/svg">
        <path
            d="M11.9313 24.9878C11.2711 24.8839 10.776 24.511 10.3236 24.0464C9.9691 23.6796 9.58399 23.3373 9.22333 22.9766C8.98493 22.7382 8.71597 22.6588 8.37976 22.7138C7.76237 22.8116 7.14497 22.9033 6.52146 22.9828C5.15218 23.1539 4.15579 22.3898 3.92961 21.0144C3.83181 20.4215 3.72178 19.8285 3.62397 19.2356C3.56896 18.9116 3.40391 18.6915 3.11049 18.5448C2.54811 18.2575 1.98573 17.958 1.42946 17.6585C0.268021 17.0289 -0.117088 15.8368 0.451406 14.651C0.726484 14.0763 1.00156 13.5079 1.28887 12.9455C1.44169 12.6459 1.44169 12.3648 1.28887 12.0652C1.00767 11.509 0.732597 10.9466 0.463632 10.3781C-0.117088 9.16774 0.274134 7.96962 1.46002 7.33388C2.00407 7.04047 2.54811 6.74705 3.09827 6.46586C3.42225 6.30693 3.58118 6.06241 3.6362 5.71398C3.734 5.09047 3.83792 4.46085 3.96629 3.84345C4.22914 2.51085 5.26833 1.80787 6.60093 2.01571C7.21832 2.11352 7.84183 2.1991 8.45923 2.28468C8.74653 2.32746 8.98493 2.24189 9.19277 2.04016C9.65735 1.5817 10.128 1.12935 10.5926 0.68311C11.5462 -0.227703 12.8055 -0.227703 13.7591 0.68311C14.2175 1.12323 14.676 1.55725 15.1283 2.0096C15.3729 2.26022 15.654 2.33358 15.9964 2.27856C16.6138 2.18076 17.2312 2.08295 17.8547 2.0096C19.2056 1.85678 20.1775 2.5842 20.4159 3.92903C20.526 4.52198 20.6299 5.11492 20.7216 5.70787C20.7766 6.0563 20.9355 6.30081 21.2595 6.46586C21.8036 6.74094 22.3354 7.03435 22.8733 7.32166C24.0959 7.97573 24.481 9.16774 23.8758 10.4209C23.6191 10.9527 23.3685 11.4906 23.0934 12.0163C22.9222 12.3464 22.9161 12.6521 23.0873 12.9883C23.3746 13.5384 23.6374 14.0947 23.9003 14.651C24.4688 15.843 24.0837 17.035 22.9222 17.6646C22.3721 17.9641 21.8219 18.2636 21.2656 18.5387C20.9355 18.7038 20.7705 18.9544 20.7155 19.3151C20.6177 19.9325 20.5138 20.5499 20.3915 21.1611C20.1225 22.4815 19.0895 23.1906 17.763 22.9828C17.1456 22.885 16.5221 22.8055 15.9047 22.7138C15.6174 22.671 15.379 22.7505 15.1711 22.9522C14.7921 23.3251 14.4009 23.6796 14.0341 24.0586C13.5818 24.5232 13.0805 24.89 12.4265 25C12.2553 24.9878 12.0903 24.9878 11.9313 24.9878ZM18.1542 21.5707C18.5821 21.5829 18.8816 21.3567 18.9611 20.9655C19.065 20.4093 19.1873 19.8469 19.2545 19.2845C19.3707 18.2759 19.8597 17.5668 20.7949 17.1389C21.2901 16.9127 21.7608 16.6376 22.2376 16.3809C22.7205 16.1242 22.8427 15.7513 22.6043 15.2622C22.3293 14.6937 22.0542 14.1191 21.7669 13.5568C21.4062 12.8477 21.4062 12.1386 21.7669 11.4295C22.042 10.8793 22.3109 10.3231 22.5799 9.7668C22.8489 9.21664 22.7327 8.87432 22.1948 8.5809C21.6324 8.28137 21.0761 7.98796 20.5138 7.68843C19.8719 7.34611 19.4685 6.82652 19.334 6.1052C19.2117 5.42668 19.0956 4.74815 18.9672 4.06963C18.8755 3.59282 18.5454 3.36054 18.0686 3.42166C17.4512 3.50724 16.8277 3.59282 16.2103 3.69063C15.3912 3.82511 14.6882 3.61116 14.0953 3.0121C13.6674 2.57809 13.2211 2.16242 12.781 1.74063C12.3531 1.32496 11.9863 1.33107 11.5523 1.74674C11.0939 2.18687 10.6415 2.62699 10.1831 3.06712C9.66957 3.56226 9.05829 3.80066 8.33697 3.70285C7.65845 3.61116 6.98603 3.51947 6.30751 3.42166C5.80014 3.34831 5.46394 3.57448 5.37224 4.07574C5.26833 4.60756 5.15218 5.14549 5.09105 5.68342C4.98102 6.70426 4.47977 7.41946 3.53839 7.84736C3.04936 8.06742 2.58479 8.3425 2.1141 8.59313C1.61285 8.86209 1.4967 9.22275 1.74122 9.72401C2.01629 10.2925 2.29137 10.8671 2.57867 11.4295C2.93322 12.1325 2.93322 12.8293 2.57867 13.5384C2.29748 14.0947 2.02852 14.6632 1.75344 15.2256C1.49059 15.7635 1.60673 16.1119 2.13244 16.3931C2.68259 16.6865 3.23275 16.9861 3.78902 17.2734C4.50422 17.6463 4.90767 18.2331 5.03604 19.0278C5.13384 19.6451 5.24387 20.2625 5.36002 20.8738C5.46394 21.4118 5.78792 21.6257 6.32585 21.5462C6.94324 21.4546 7.56675 21.369 8.18415 21.2773C8.99105 21.1611 9.66957 21.3995 10.2442 21.968C10.6721 22.3898 11.1061 22.8055 11.5401 23.2273C11.9741 23.6429 12.3409 23.6491 12.7688 23.2334C13.1967 22.8238 13.6307 22.4204 14.0464 21.9925C14.6638 21.3567 15.3973 21.1428 16.2653 21.2956C16.9133 21.4118 17.5551 21.4851 18.1542 21.5707Z" />
        <path
            d="M17.6835 7.74958C17.6163 7.89629 17.5612 8.043 17.4879 8.1836C17.4512 8.25084 17.384 8.30585 17.3228 8.36087C14.2297 11.454 11.1366 14.5471 8.04354 17.6402C7.86626 17.8174 7.68288 17.9703 7.41391 17.9641C7.12661 17.958 6.91266 17.8297 6.78429 17.579C6.64981 17.3162 6.67426 17.0594 6.84542 16.821C6.90044 16.7477 6.96156 16.6866 7.02881 16.6254C10.1219 13.5323 13.215 10.4392 16.3081 7.34614C16.4854 7.16886 16.6688 7.02216 16.9377 7.02216C17.3289 7.02216 17.6468 7.34002 17.6835 7.74958Z" />
        <path
            d="M9.27833 11.2889C7.81125 11.2828 6.64369 10.0908 6.65592 8.6237C6.66814 7.18107 7.87237 5.99518 9.315 6.01352C10.7637 6.03185 11.9374 7.22386 11.9313 8.6726C11.9252 10.1152 10.7332 11.295 9.27833 11.2889ZM9.30278 7.45615C8.64259 7.45003 8.11077 7.96963 8.09244 8.63593C8.08021 9.29 8.63648 9.85238 9.29667 9.85238C9.94463 9.85238 10.4887 9.30834 10.4948 8.65426C10.4948 7.99408 9.96297 7.46226 9.30278 7.45615Z" />
        <path
            d="M15.0611 13.6973C16.5221 13.7034 17.6897 14.8771 17.6897 16.332C17.6897 17.7868 16.4854 18.9849 15.0367 18.9727C13.5879 18.9605 12.4082 17.7624 12.4143 16.3197C12.4204 14.871 13.6063 13.6973 15.0611 13.6973ZM15.0489 17.5301C15.7152 17.5362 16.2409 17.0166 16.2592 16.3503C16.2715 15.6962 15.7152 15.1338 15.055 15.1338C14.4009 15.1338 13.863 15.6779 13.8569 16.332C13.8569 16.9921 14.3887 17.524 15.0489 17.5301Z" />
    </symbol>
    <symbol id="customers" viewBox="0 0 25 23" xmlns="http://www.w3.org/2000/svg">
        <path
            d="M12.5 9.10742C14.8424 9.10742 16.748 7.20176 16.748 4.85938C16.748 2.51699 14.8424 0.611328 12.5 0.611328C10.1576 0.611328 8.25195 2.51699 8.25195 4.85938C8.25195 7.20176 10.1576 9.10742 12.5 9.10742ZM12.5 2.07617C14.0347 2.07617 15.2832 3.32471 15.2832 4.85938C15.2832 6.39404 14.0347 7.64258 12.5 7.64258C10.9653 7.64258 9.7168 6.39404 9.7168 4.85938C9.7168 3.32471 10.9653 2.07617 12.5 2.07617Z" />
        <path
            d="M21.0938 9.10742C22.5746 9.10742 23.7793 7.90269 23.7793 6.42188C23.7793 4.94106 22.5746 3.73633 21.0938 3.73633C19.6129 3.73633 18.4082 4.94106 18.4082 6.42188C18.4082 7.90269 19.6129 9.10742 21.0938 9.10742ZM21.0938 5.20117C21.7668 5.20117 22.3145 5.74878 22.3145 6.42188C22.3145 7.09497 21.7668 7.64258 21.0938 7.64258C20.4207 7.64258 19.873 7.09497 19.873 6.42188C19.873 5.74878 20.4207 5.20117 21.0938 5.20117Z" />
        <path
            d="M21.6846 10.7676H20.5518C19.2168 10.7676 18.0645 11.5562 17.5394 12.6891C16.4583 11.5089 14.9054 10.7676 13.1826 10.7676H11.8175C10.0946 10.7676 8.54175 11.5089 7.46065 12.6891C6.9355 11.5562 5.78315 10.7676 4.44824 10.7676H3.31543C1.4873 10.7676 0 12.2459 0 14.063V19.3955C0 20.1844 0.644238 20.8262 1.43613 20.8262H5.91499C5.99009 21.7002 6.72505 22.3887 7.61826 22.3887H17.3818C18.275 22.3887 19.0099 21.7002 19.0851 20.8262H23.5127C24.3329 20.8262 25 20.1616 25 19.3447V14.063C25 12.2459 23.5127 10.7676 21.6846 10.7676V10.7676ZM1.46484 14.063C1.46484 13.0536 2.29502 12.2324 3.31543 12.2324H4.44824C5.46865 12.2324 6.29883 13.0536 6.29883 14.063V14.5645C5.8063 15.8469 5.9082 16.6155 5.9082 19.3613H1.46484V14.063ZM17.627 20.6787C17.627 20.8139 17.517 20.9238 17.3818 20.9238H7.61821C7.48301 20.9238 7.37305 20.8138 7.37305 20.6787V16.6769C7.37305 14.2262 9.3668 12.2324 11.8174 12.2324H13.1825C15.6332 12.2324 17.627 14.2262 17.627 16.6768V20.6787ZM23.5352 19.3447C23.5352 19.37 23.8082 19.3613 19.0918 19.3613C19.0918 16.5952 19.1929 15.8448 18.7012 14.5645V14.063C18.7012 13.0536 19.5313 12.2324 20.5518 12.2324H21.6846C22.705 12.2324 23.5352 13.0536 23.5352 14.063V19.3447Z" />
        <path
            d="M3.90625 9.10742C5.38706 9.10742 6.5918 7.90269 6.5918 6.42188C6.5918 4.94106 5.38706 3.73633 3.90625 3.73633C2.42544 3.73633 1.2207 4.94106 1.2207 6.42188C1.2207 7.90269 2.42544 9.10742 3.90625 9.10742ZM3.90625 5.20117C4.57935 5.20117 5.12695 5.74878 5.12695 6.42188C5.12695 7.09497 4.57935 7.64258 3.90625 7.64258C3.23315 7.64258 2.68555 7.09497 2.68555 6.42188C2.68555 5.74878 3.23315 5.20117 3.90625 5.20117Z" />
    </symbol>
    <symbol id="new-order" viewBox="0 0 22 25" stroke="none" xmlns="http://www.w3.org/2000/svg">
        <path
            d="M20.3167 25C14.0315 25 7.75251 25 1.46735 25C0.299584 24.572 0.00611396 24.1379 0.00611396 22.8723C0.00611396 17.8039 0.00611396 12.7354 0 7.66691C0 7.28173 0.0917095 6.93935 0.287356 6.60308C1.4001 4.68941 2.50673 2.77574 3.60113 0.855955C3.93128 0.275128 4.40205 0 5.07459 0C8.95084 0.00611396 12.821 0.00611396 16.6972 0C17.3759 0 17.8528 0.275128 18.189 0.862069C19.3018 2.80631 20.4329 4.75055 21.5578 6.68868C21.7107 6.95158 21.7841 7.21448 21.7841 7.52018C21.7779 10.1675 21.7779 12.8088 21.7779 15.4561C21.7779 18.0179 21.7779 20.5796 21.7779 23.1475C21.7779 23.6488 21.6434 24.0951 21.3011 24.4681C21.0382 24.7554 20.6835 24.8899 20.3167 25ZM1.46735 7.67914C1.46735 7.78919 1.46735 7.86867 1.46735 7.94815C1.46735 12.9922 1.46735 18.0362 1.46735 23.0802C1.46735 23.4899 1.52238 23.5388 1.93201 23.5388C7.90536 23.5388 13.8787 23.5388 19.8459 23.5388C20.2556 23.5388 20.3106 23.4837 20.3106 23.0741C20.3106 18.0301 20.3106 12.9861 20.3106 7.94204C20.3106 7.85644 20.3106 7.77085 20.3106 7.67303C14.0193 7.67914 7.75862 7.67914 1.46735 7.67914ZM10.1614 6.18733C10.1614 4.60993 10.1614 3.05087 10.1614 1.47958C10.1125 1.47347 10.0819 1.46735 10.0452 1.46735C8.39447 1.46735 6.7437 1.46735 5.09293 1.46124C4.93397 1.46124 4.88506 1.54683 4.82392 1.65688C4.00465 3.09367 3.17315 4.53045 2.34776 5.96112C2.31108 6.02837 2.28051 6.10174 2.23771 6.18733C4.89729 6.18733 7.52629 6.18733 10.1614 6.18733ZM19.5525 6.18733C19.5219 6.12619 19.5097 6.08339 19.4852 6.0406C18.6293 4.56102 17.7794 3.08755 16.9173 1.61409C16.8745 1.54072 16.74 1.47347 16.6544 1.47347C15.0587 1.46735 13.4629 1.46735 11.8733 1.46735C11.8061 1.46735 11.7327 1.47958 11.6716 1.47958C11.6716 3.0631 11.6716 4.61604 11.6716 6.18122C14.3067 6.18733 16.9173 6.18733 19.5525 6.18733Z" />
        <path
            d="M9.9474 16.5077C10.0147 16.4099 10.0513 16.3243 10.1125 16.257C11.0968 15.2666 12.0812 14.27 13.0839 13.2918C13.2306 13.1511 13.4446 13.0289 13.6402 12.9922C13.9459 12.9249 14.1966 13.09 14.3433 13.3651C14.484 13.6341 14.4595 13.897 14.2761 14.1477C14.2272 14.215 14.1721 14.27 14.111 14.325C12.9188 15.5172 11.7327 16.7033 10.5405 17.8956C10.0941 18.3419 9.72118 18.3419 9.28098 17.9017C8.73072 17.3514 8.17435 16.8012 7.62409 16.2448C7.38565 16.0064 7.33674 15.6701 7.47736 15.3888C7.61187 15.1198 7.90534 14.9364 8.19881 14.9975C8.37611 15.0342 8.56564 15.1321 8.70015 15.2604C9.10979 15.6395 9.48885 16.043 9.9474 16.5077Z" />
    </symbol>
</svg>