<svg fill="none">
    <symbol id="Arrow---Left-2" viewBox="0 0 24 24" version="1.1" xmlns="http://www.w3.org/2000/svg"
        xmlns:xlink="http://www.w3.org/1999/xlink">
        <title>Iconly/Curved/Arrow - Left 2</title>
        <g fill="none" stroke-width="1.5" stroke-linecap="round" stroke-linejoin="round">
            <g>
                <path d="M8.18752 12.0218H20.2285" />
                <path d="M11.1152 9.10577L8.18723 12.0218L11.1152 14.9378" />
                <path opacity="0.4"
                    d="M15.4956 7.38897V6.45597C15.4956 4.42097 13.8466 2.77197 11.8106 2.77197H6.92661C4.89661 2.77197 3.25161 4.41697 3.25161 6.44697V17.587C3.25161 19.622 4.90161 21.272 6.93661 21.272H11.8216C13.8506 21.272 15.4956 19.626 15.4956 17.597V16.655" />
            </g>
        </g>
    </symbol>
    <symbol id="circle" viewBox="0 0 3 3" version="1.1" xmlns="http://www.w3.org/2000/svg"
        xmlns:xlink="http://www.w3.org/1999/xlink">
        <title>Iconly/Curved/Arrow - Circle</title>
        <g fill="none" stroke-width="0.7">
            <g>
                <circle r="1.15" transform="matrix(-1 0 0 1 1.5 1.5)" />
            </g>
        </g>
    </symbol>
    <symbol id="Search" viewBox="0 0 24 24" version="1.1" xmlns="http://www.w3.org/2000/svg"
        xmlns:xlink="http://www.w3.org/1999/xlink">
        <title>Iconly/Curved/Arrow - Search</title>
        <g fill="none" stroke-width="1.5" stroke-linecap="round" stroke-linejoin="round">
            <g>
                <circle id="Ellipse_739" cx="11.7666" cy="11.7666" r="8.98856" />
                <path id="Line_181" opacity="0.4" d="M18.0183 18.4851L21.5423 22" />
            </g>
        </g>
    </symbol>
    <symbol id="cube" viewBox="0 0 20 20" version="1.1" xmlns="http://www.w3.org/2000/svg"
        xmlns:xlink="http://www.w3.org/1999/xlink">
        <title>Iconly/Curved/Arrow - cube</title>
        <g fill="none" stroke-width="1.5" stroke-linecap="round" stroke-linejoin="round">
            <g>
                <path
                    d="M17.5 13.3333V6.66666C17.4997 6.37439 17.4225 6.08733 17.2763 5.83429C17.13 5.58125 16.9198 5.37113 16.6667 5.22499L10.8333 1.89166C10.58 1.74538 10.2926 1.66837 10 1.66837C9.70744 1.66837 9.42003 1.74538 9.16667 1.89166L3.33333 5.22499C3.08022 5.37113 2.86998 5.58125 2.72372 5.83429C2.57745 6.08733 2.5003 6.37439 2.5 6.66666V13.3333C2.5003 13.6256 2.57745 13.9126 2.72372 14.1657C2.86998 14.4187 3.08022 14.6289 3.33333 14.775L9.16667 18.1083C9.42003 18.2546 9.70744 18.3316 10 18.3316C10.2926 18.3316 10.58 18.2546 10.8333 18.1083L16.6667 14.775C16.9198 14.6289 17.13 14.4187 17.2763 14.1657C17.4225 13.9126 17.4997 13.6256 17.5 13.3333Z" />
                <path d="M2.72498 5.79999L9.99998 10.0083L17.275 5.79999" />
                <path d="M10 18.4V10" />
            </g>
        </g>
    </symbol>
    <symbol id="check" viewBox="0 0 20 20" version="1.1" xmlns="http://www.w3.org/2000/svg"
        xmlns:xlink="http://www.w3.org/1999/xlink">
        <title>Iconly/Curved/Arrow - check</title>
        <g fill="none" stroke-width="1.5" stroke-linecap="round" stroke-linejoin="round"
            clip-path="url(#clip0_306_247)">
            <g>
                <path
                    d="M18.3334 9.23336V10C18.3323 11.797 17.7504 13.5456 16.6745 14.9849C15.5985 16.4242 14.0861 17.4771 12.3628 17.9866C10.6395 18.4961 8.79774 18.4349 7.11208 17.8122C5.42642 17.1894 3.98723 16.0384 3.00915 14.5309C2.03108 13.0234 1.56651 11.2401 1.68475 9.44696C1.80299 7.65383 2.49769 5.94697 3.66525 4.58092C4.83281 3.21488 6.41068 2.26285 8.16351 1.86682C9.91635 1.47079 11.7502 1.65198 13.3917 2.38336" />
                <path d="M18.3333 3.33331L10 11.675L7.5 9.17498" />
            </g>
        </g>
        <defs>
            <clipPath id="clip0_306_247">
                <rect fill="none" />
            </clipPath>
        </defs>
    </symbol>
    <symbol id="pie" viewBox="0 0 20 20" version="1.1" xmlns="http://www.w3.org/2000/svg"
        xmlns:xlink="http://www.w3.org/1999/xlink">
        <title>Iconly/Curved/Arrow - pie</title>
        <g fill="none" stroke-width="1.5" stroke-linecap="round" stroke-linejoin="round">
            <g>
                <path
                    d="M17.675 13.2417C17.1448 14.4954 16.3156 15.6002 15.2599 16.4594C14.2041 17.3187 12.954 17.9062 11.6187 18.1707C10.2834 18.4351 8.90368 18.3685 7.60011 17.9765C6.29655 17.5845 5.10884 16.8792 4.14084 15.9222C3.17283 14.9652 2.454 13.7856 2.04719 12.4866C1.64037 11.1876 1.55796 9.80874 1.80715 8.47053C2.05635 7.13232 2.62957 5.87553 3.4767 4.81003C4.32382 3.74453 5.41906 2.90277 6.66666 2.35834" />
                <path
                    d="M18.3333 10C18.3333 8.90567 18.1178 7.82204 17.699 6.81099C17.2802 5.79994 16.6664 4.88129 15.8926 4.10746C15.1187 3.33364 14.2001 2.71981 13.189 2.30102C12.178 1.88224 11.0943 1.66669 10 1.66669V10H18.3333Z" />
            </g>
        </g>
        <defs>
            <clipPath id="clip0_306_251">
                <rect fill="none" />
            </clipPath>
        </defs>
    </symbol>
    <symbol id="plus" viewBox="0 0 11 11" version="1.1" xmlns="http://www.w3.org/2000/svg"
        xmlns:xlink="http://www.w3.org/1999/xlink">
        <title>Iconly/Curved/Arrow - plus</title>
        <g fill="none">
            <g>
                <path
                    d="M5.02201 1.92969H5.64484C5.7002 1.92969 5.72788 1.95737 5.72788 2.01273V9.3206C5.72788 9.37596 5.7002 9.40365 5.64484 9.40365H5.02201C4.96665 9.40365 4.93896 9.37596 4.93896 9.3206V2.01273C4.93896 1.95737 4.96665 1.92969 5.02201 1.92969Z" />
                <path
                    d="M1.8455 5.27222H8.82119C8.87655 5.27222 8.90423 5.2999 8.90423 5.35526V5.97809C8.90423 6.03345 8.87655 6.06113 8.82119 6.06113H1.8455C1.79013 6.06113 1.76245 6.03345 1.76245 5.97809V5.35526C1.76245 5.2999 1.79013 5.27222 1.8455 5.27222Z" />
            </g>
        </g>
    </symbol>
    <symbol id="minus" viewBox="0 0 12 11" version="1.1" xmlns="http://www.w3.org/2000/svg"
        xmlns:xlink="http://www.w3.org/1999/xlink">
        <title>Iconly/Curved/Arrow - minus</title>
        <g fill="none">
            <g>
                <path d="M2.80737 5.22418H9.00799V6.10999H2.80737V5.22418Z" />
            </g>
        </g>
    </symbol>
    <symbol id="heart" viewBox="0 0 24 22" version="1.1" xmlns="http://www.w3.org/2000/svg"
        xmlns:xlink="http://www.w3.org/1999/xlink">
        <title>Iconly/Curved/Arrow - heart</title>
        <g stroke-width="2" stroke-linecap="round" stroke-linejoin="round">
            <g>
                <path
                    d="M20.8401 3.60999C20.3294 3.099 19.7229 2.69364 19.0555 2.41708C18.388 2.14052 17.6726 1.99817 16.9501 1.99817C16.2276 1.99817 15.5122 2.14052 14.8448 2.41708C14.1773 2.69364 13.5709 3.099 13.0601 3.60999L12.0001 4.66999L10.9401 3.60999C9.90843 2.5783 8.50915 1.9987 7.05012 1.9987C5.59109 1.9987 4.19181 2.5783 3.16012 3.60999C2.12843 4.64169 1.54883 6.04096 1.54883 7.49999C1.54883 8.95903 2.12843 10.3583 3.16012 11.39L4.22012 12.45L12.0001 20.23L19.7801 12.45L20.8401 11.39C21.3511 10.8792 21.7565 10.2728 22.033 9.60535C22.3096 8.93789 22.4519 8.22248 22.4519 7.49999C22.4519 6.77751 22.3096 6.0621 22.033 5.39464C21.7565 4.72718 21.3511 4.12075 20.8401 3.60999V3.60999Z" />
            </g>
        </g>
    </symbol>
    <symbol id="Arrow--Down" viewBox="0 0 8 4" version="1.1" xmlns="http://www.w3.org/2000/svg"
        xmlns:xlink="http://www.w3.org/1999/xlink">
        <title>Iconly/Curved/Arrow - Arrow-down</title>
        <g fill="none" stroke-linecap="round" stroke-linejoin="round">
            <g>
                <path d="M6.91666 0.541687L4 3.45835L1.08333 0.541687" />
            </g>
        </g>
    </symbol>
    <symbol id="Weather--cloud" viewBox="0 0 24 24" version="1.1" xmlns="http://www.w3.org/2000/svg"
        xmlns:xlink="http://www.w3.org/1999/xlink">
        <title>Iconly/Curved/Arrow - Weather</title>
        <g fill="none" stroke="white" stroke-width="1.5" stroke-linecap="round">
            <g>
                <path id="sq1"
                    d="M17.1356 20C20.0424 20 22 17.6122 22 14.6667C22 12.4665 20.6853 10.5776 18.8086 9.76241C18.4665 6.52713 15.5488 4 12 4C8.22121 4 5.15789 6.86538 5.15789 10.4C5.15789 10.4908 5.15992 10.5811 5.16392 10.671C3.32099 11.3282 2 13.1078 2 15.2C2 17.851 3.82836 20 6.44444 20" />
                <path id="sq2"
                    d="M10.7 16L9.70001 17.7321M14.1641 18L13.1641 19.7321M10.9321 19.5981L9.93207 21.3301"
                    stroke-opacity="0.4" />
            </g>
        </g>
    </symbol>
    <symbol id="star" viewBox="0 0 24 24" version="1.1" xmlns="http://www.w3.org/2000/svg"
        xmlns:xlink="http://www.w3.org/1999/xlink">
        <title>Iconly/Curved/Arrow - Star</title>
        <g fill="none" stroke-linecap="round" stroke-linejoin="round" stroke-width="1.5"
            transform="translate(2.5 3)">
            <g>
                <path
                    d="M10.2135354,0.441329894 L12.5301907,5.09668871 C12.6437709,5.3306716 12.8673229,5.49423715 13.1274534,5.53368599 L18.3127795,6.28282419 C18.5232013,6.31151358 18.713271,6.4218659 18.8407265,6.58934431 C18.9681821,6.75682272 19.0224584,6.9675444 18.9914871,7.17465538 C18.9654336,7.34490401 18.8826605,7.50177662 18.7562018,7.62057098 L15.0006864,11.2592422 C14.8108765,11.4385657 14.7257803,11.7002187 14.7744505,11.9548706 L15.679394,17.0828999 C15.7448774,17.5054355 15.4552147,17.9019154 15.0278347,17.9747311 C14.8516089,18.001936 14.6711642,17.9738576 14.5120169,17.8944663 L9.88775575,15.4776038 C9.65675721,15.3522485 9.37670064,15.3522485 9.1457021,15.4776038 L4.49429266,17.9123029 C4.1040442,18.1096521 3.62530757,17.962958 3.41740993,17.5823254 C3.33635184,17.4288523 3.30778438,17.2536748 3.33596502,17.0828999 L4.24090849,11.9548706 C4.28467865,11.7005405 4.20030563,11.441111 4.01467262,11.2592422 L0.23200891,7.62057098 C-0.0773363034,7.31150312 -0.0773363034,6.81484985 0.23200891,6.50578199 C0.358259148,6.3905834 0.515216648,6.31324177 0.684480646,6.28282419 L5.86980673,5.53368599 C6.12870837,5.49136141 6.35105151,5.32868032 6.46706943,5.09668871 L8.78372471,0.441329894 C8.87526213,0.25256864 9.04026912,0.108236628 9.24131794,0.0410719808 C9.44236677,-0.0260926667 9.66241783,-0.0103975019 9.85155801,0.0845974179 C10.0076083,0.16259069 10.1343954,0.287540724 10.2135354,0.441329894 Z" />
            </g>
        </g>
    </symbol>
    <symbol id="Home" viewBox="0 0 24 24" version="1.1" xmlns="http://www.w3.org/2000/svg"
        xmlns:xlink="http://www.w3.org/1999/xlink" xml:space="preserve">
    <title>Iconly/Curved/Home</title>
    <g fill="none" stroke-linecap="round" stroke-linejoin="round" stroke-width="1.5">
        <g transform="translate(2.400000, 2.000000)" stroke-width="2">
            <path d="M6.65721519,18.7714023 L6.65721519,15.70467 C6.65719744,14.9246392 7.29311743,14.2908272 8.08101266,14.2855921 L10.9670886,14.2855921 C11.7587434,14.2855921 12.4005063,14.9209349 12.4005063,15.70467 L12.4005063,15.70467 L12.4005063,18.7809263 C12.4003226,19.4432001 12.9342557,19.984478 13.603038,20 L15.5270886,20 C17.4451246,20 19,18.4606794 19,16.5618312 L19,16.5618312 L19,7.8378351 C18.9897577,7.09082692 18.6354747,6.38934919 18.0379747,5.93303245 L11.4577215,0.685301154 C10.3049347,-0.228433718 8.66620456,-0.228433718 7.51341772,0.685301154 L0.962025316,5.94255646 C0.362258604,6.39702249 0.00738668938,7.09966612 0,7.84735911 L0,16.5618312 C0,18.4606794 1.55487539,20 3.47291139,20 L5.39696203,20 C6.08235439,20 6.63797468,19.4499381 6.63797468,18.7714023 L6.63797468,18.7714023" transform="translate(2.5 2)"/>
        </g>
    </g>
    </symbol>
    <symbol xmlns="http://www.w3.org/2000/svg" viewBox="0 0 7 4" id="eye">
        <path
            d="M1,1 C1.83333333,2.16666667 2.66666667,2.75 3.5,2.75 C4.33333333,2.75 5.16666667,2.16666667 6,1"></path>
    </symbol>
    <symbol xmlns="http://www.w3.org/2000/svg" viewBox="0 0 18 7" id="mouth">
        <path d="M1,5.5 C3.66666667,2.5 6.33333333,1 9,1 C11.6666667,1 14.3333333,2.5 17,5.5"></path>
    </symbol>
    <symbol id="call" viewBox="0 0 13 13" xmlns="http://www.w3.org/2000/svg">
        <path
            d="M12.875 9.63083V12.1356C12.875 12.5074 12.5875 12.816 12.2166 12.8422C11.9068 12.8641 11.654 12.875 11.4583 12.875C5.19907 12.875 0.125 7.80092 0.125 1.54167C0.125 1.34596 0.135944 1.0932 0.157831 0.783396C0.184054 0.412498 0.492582 0.125 0.864401 0.125H3.36924C3.55105 0.125 3.70333 0.262714 3.72158 0.443608C3.73797 0.606008 3.75321 0.736391 3.7673 0.834764C3.91058 1.83543 4.20325 2.78788 4.622 3.66881C4.68921 3.81021 4.64538 3.97946 4.51798 4.07046L2.98918 5.16253C3.91991 7.33661 5.66339 9.0801 7.83747 10.0109L8.92753 8.48468C9.01968 8.35576 9.19096 8.31142 9.33404 8.37935C10.2149 8.79776 11.1673 9.09009 12.1678 9.23303C12.2655 9.24706 12.3951 9.26215 12.5564 9.27844C12.7373 9.29671 12.875 9.449 12.875 9.63083Z" />
    </symbol>
    <symbol id="email-box" viewBox="0 0 17 17" fill="none" xmlns="http://www.w3.org/2000/svg">
        <path
            d="M2.12533 2.125H14.8753C15.2665 2.125 15.5837 2.44213 15.5837 2.83333V14.1667C15.5837 14.5579 15.2665 14.875 14.8753 14.875H2.12533C1.73413 14.875 1.41699 14.5579 1.41699 14.1667V2.83333C1.41699 2.44213 1.73413 2.125 2.12533 2.125ZM8.54325 8.27539L4.00044 4.41837L3.08354 5.4983L8.55211 10.1413L13.9222 5.49395L12.9951 4.42272L8.54325 8.27539Z"
            fill="white" />
    </symbol>
    <symbol id="web" viewBox="0 0 18 17" fill="none" xmlns="http://www.w3.org/2000/svg">
        <path
            d="M0.708008 9.3334H5.27295C5.42211 12.0574 6.29807 14.5878 7.71024 16.7341C3.98992 16.156 1.08366 13.1169 0.708008 9.3334ZM0.708008 7.66673C1.08366 3.88315 3.98992 0.844047 7.71024 0.26593C6.29807 2.41221 5.42211 4.94267 5.27295 7.66673H0.708008ZM17.2924 7.66673H12.7274C12.5782 4.94267 11.7023 2.41221 10.2902 0.26593C14.0105 0.844047 16.9167 3.88315 17.2924 7.66673ZM17.2924 9.3334C16.9167 13.1169 14.0105 16.156 10.2902 16.7341C11.7023 14.5878 12.5782 12.0574 12.7274 9.3334H17.2924ZM6.94247 9.3334H11.0579C10.9149 11.6524 10.1791 13.8111 9.00016 15.6596C7.82124 13.8111 7.08548 11.6524 6.94247 9.3334ZM6.94247 7.66673C7.08548 5.34766 7.82124 3.18901 9.00016 1.34042C10.1791 3.18901 10.9149 5.34766 11.0579 7.66673H6.94247Z"
            fill="white" />
    </symbol>
    <symbol id="Home-dashboard" viewBox="0 0 24 24" version="1.1" xmlns="http://www.w3.org/2000/svg"
        xmlns:xlink="http://www.w3.org/1999/xlink">
        <g fill="none" fill-rule="evenodd" clip-rule="evenodd" stroke-width="2"
            stroke-linecap="round" stroke-linejoin="round">
            <path
                d="M9.15722 20.7714V17.7047C9.1572 16.9246 9.79312 16.2908 10.581 16.2856H13.4671C14.2587 16.2856 14.9005 16.9209 14.9005 17.7047V17.7047V20.7809C14.9003 21.4432 15.4343 21.9845 16.103 22H18.0271C19.9451 22 21.5 20.4607 21.5 18.5618V18.5618V9.83784C21.4898 9.09083 21.1355 8.38935 20.538 7.93303L13.9577 2.6853C12.8049 1.77157 11.1662 1.77157 10.0134 2.6853L3.46203 7.94256C2.86226 8.39702 2.50739 9.09967 2.5 9.84736V18.5618C2.5 20.4607 4.05488 22 5.97291 22H7.89696C8.58235 22 9.13797 21.4499 9.13797 20.7714V20.7714" />
        </g>
    </symbol>
    <symbol id="Pie" viewBox="0 0 24 24" version="1.1" xmlns="http://www.w3.org/2000/svg"
        xmlns:xlink="http://www.w3.org/1999/xlink">
        <g fill="none" fill-rule="evenodd" clip-rule="evenodd" stroke-width="2"
            stroke-linecap="round" stroke-linejoin="round">
            <path
                d="M17.2779 13.8894C17.9527 13.8894 18.519 14.4462 18.4158 15.1125C17.8106 19.0325 14.4548 21.9431 10.4074 21.9431C5.92952 21.9431 2.30005 18.3136 2.30005 13.8368C2.30005 10.1483 5.10215 6.71255 8.25689 5.9357C8.93479 5.76834 9.62952 6.24518 9.62952 6.94307C9.62952 11.6715 9.78847 12.8947 10.6864 13.5599C11.5843 14.2252 12.64 13.8894 17.2779 13.8894Z" />
            <path opacity="0.5"
                d="M21.6926 9.9517C21.7463 6.9138 18.0147 2.01696 13.4674 2.10117C13.1137 2.10749 12.8305 2.40222 12.8147 2.75485C12.7 5.25275 12.8547 8.48959 12.9411 9.95696C12.9674 10.4138 13.3263 10.7727 13.7821 10.7991C15.2905 10.8854 18.6453 11.0033 21.1074 10.6306C21.4421 10.5801 21.6874 10.2896 21.6926 9.9517Z" />
        </g>
    </symbol>
    <symbol id="Document" viewBox="0 0 24 24" version="1.1" xmlns="http://www.w3.org/2000/svg"
        xmlns:xlink="http://www.w3.org/1999/xlink">
        <g fill="none" fill-rule="evenodd" clip-rule="evenodd" stroke-width="2"
            stroke-linecap="round" stroke-linejoin="round">
            <path opacity="0.5" d="M15.7161 16.2234H8.49609" />
            <path opacity="0.5" d="M15.7161 12.0369H8.49609" />
            <path opacity="0.5" d="M11.2511 7.86011H8.49609" />
            <path
                d="M15.9085 2.74976C15.9085 2.74976 8.23149 2.75376 8.21949 2.75376C5.45949 2.77076 3.75049 4.58676 3.75049 7.35676V16.5528C3.75049 19.3368 5.47249 21.1598 8.25649 21.1598C8.25649 21.1598 15.9325 21.1568 15.9455 21.1568C18.7055 21.1398 20.4155 19.3228 20.4155 16.5528V7.35676C20.4155 4.57276 18.6925 2.74976 15.9085 2.74976Z" />
        </g>
    </symbol>
    <symbol id="Info-circle" viewBox="0 0 24 24" version="1.1" xmlns="http://www.w3.org/2000/svg"
        xmlns:xlink="http://www.w3.org/1999/xlink">
        <g fill="none" fill-rule="evenodd" clip-rule="evenodd" stroke-width="2"
            stroke-linecap="round" stroke-linejoin="round">
            <path
                d="M11.9999 2.75024C17.1089 2.75024 21.2499 6.89224 21.2499 12.0002C21.2499 17.1082 17.1089 21.2502 11.9999 21.2502C6.89188 21.2502 2.74988 17.1082 2.74988 12.0002C2.74988 6.89224 6.89188 2.75024 11.9999 2.75024Z" />
            <path opacity="0.5" d="M11.995 8.20435V12.6233" />
            <path opacity="0.5" d="M11.995 15.7961H12.005" />
        </g>
    </symbol>
    <symbol id="Paper" viewBox="0 0 24 24" version="1.1" xmlns="http://www.w3.org/2000/svg"
        xmlns:xlink="http://www.w3.org/1999/xlink">
        <g fill="none" fill-rule="evenodd" clip-rule="evenodd" stroke-width="2"
            stroke-linecap="round" stroke-linejoin="round">
            <path
                d="M14.7368 2.76196H8.08376C6.02476 2.76196 4.24976 4.43096 4.24976 6.49096V17.204C4.24976 19.38 5.90876 21.115 8.08376 21.115H16.0728C18.1328 21.115 19.8018 19.265 19.8018 17.204V8.03796L14.7368 2.76196Z" />
            <path
                d="M14.474 2.75024V5.65924C14.474 7.07924 15.623 8.23124 17.042 8.23424C18.359 8.23724 19.706 8.23824 19.797 8.23224" />
            <path opacity="0.5" d="M14.2841 15.5579H8.88708" />
            <path opacity="0.5" d="M12.2426 10.6057H8.8866" />
        </g>
    </symbol>
    <symbol id="Wallet" viewBox="0 0 24 24" version="1.1" xmlns="http://www.w3.org/2000/svg"
        xmlns:xlink="http://www.w3.org/1999/xlink">
        <g fill="none" fill-rule="evenodd" clip-rule="evenodd" stroke-width="2"
            stroke-linecap="round" stroke-linejoin="round">
            <path
                d="M21.6389 14.3957H17.5906C16.1042 14.3948 14.8993 13.1909 14.8984 11.7045C14.8984 10.218 16.1042 9.01409 17.5906 9.01318H21.6389" />
            <path d="M18.0485 11.6429H17.7369" />
            <path
                d="M7.74766 3H16.3911C19.2892 3 21.6388 5.34951 21.6388 8.24766V15.4247C21.6388 18.3229 19.2892 20.6724 16.3911 20.6724H7.74766C4.84951 20.6724 2.5 18.3229 2.5 15.4247V8.24766C2.5 5.34951 4.84951 3 7.74766 3Z" />
            <path opacity="0.5" d="M7.03564 7.5382H12.4346" />
        </g>
    </symbol>
    <symbol id="Bag" viewBox="0 0 24 24" version="1.1" xmlns="http://www.w3.org/2000/svg"
        xmlns:xlink="http://www.w3.org/1999/xlink">
        <g fill="none" fill-rule="evenodd" clip-rule="evenodd" stroke-width="2"
            stroke-linecap="round" stroke-linejoin="round">
            <path
                d="M16.5136 21.5H8.16579C5.09943 21.5 2.74703 20.3925 3.41522 15.9348L4.19325 9.89363C4.60515 7.66937 6.02392 6.81812 7.26877 6.81812H17.4473C18.7104 6.81812 20.0468 7.73345 20.5228 9.89363L21.3008 15.9348C21.8683 19.8891 19.58 21.5 16.5136 21.5Z" />
            <path opacity="0.5"
                d="M16.651 6.59848C16.651 4.21241 14.7167 2.27812 12.3306 2.27812V2.27812C11.1816 2.27325 10.078 2.72628 9.26381 3.53703C8.44963 4.34778 7.99193 5.44947 7.99194 6.59848H7.99194" />
            <path d="M15.2962 11.102H15.2505" />
            <path d="M9.46566 11.102H9.41989" />
        </g>
    </symbol>
    <symbol id="Message" viewBox="0 0 24 24" version="1.1" xmlns="http://www.w3.org/2000/svg"
        xmlns:xlink="http://www.w3.org/1999/xlink">
        <g fill="none" fill-rule="evenodd" clip-rule="evenodd" stroke-width="2"
            stroke-linecap="round" stroke-linejoin="round">
            <path opacity="0.5"
                d="M17.2678 8.56104L13.0024 11.9953C12.1952 12.6282 11.0636 12.6282 10.2564 11.9953L5.95435 8.56104" />
            <path
                d="M6.88787 3H16.3158C17.6752 3.01525 18.969 3.58993 19.896 4.5902C20.823 5.59048 21.3022 6.92903 21.222 8.29412V14.822C21.3022 16.1871 20.823 17.5256 19.896 18.5259C18.969 19.5262 17.6752 20.1009 16.3158 20.1161H6.88787C3.96796 20.1161 2 17.7407 2 14.822V8.29412C2 5.37545 3.96796 3 6.88787 3Z" />
        </g>
    </symbol>
    <symbol id="Chat" viewBox="0 0 24 24" version="1.1" xmlns="http://www.w3.org/2000/svg"
        xmlns:xlink="http://www.w3.org/1999/xlink">
        <g fill="none" fill-rule="evenodd" clip-rule="evenodd" stroke-width="2"
            stroke-linecap="round" stroke-linejoin="round">
            <path
                d="M19.0714 19.0699C16.0152 22.1263 11.4898 22.7867 7.78642 21.074C7.23971 20.8539 6.79148 20.676 6.36537 20.676C5.17849 20.683 3.70117 21.8339 2.93336 21.067C2.16555 20.2991 3.31726 18.8206 3.31726 17.6266C3.31726 17.2004 3.14642 16.7602 2.92632 16.2124C1.21283 12.5096 1.87411 7.98269 4.93026 4.92721C8.8316 1.02443 15.17 1.02443 19.0714 4.9262C22.9797 8.83501 22.9727 15.1681 19.0714 19.0699Z" />
            <path opacity="0.5" d="M15.9393 12.4131H15.9483" />
            <path opacity="0.5" d="M11.9303 12.4131H11.9393" />
            <path opacity="0.5" d="M7.92128 12.4131H7.93028" />
        </g>
    </symbol>
    <symbol id="Profile" viewBox="0 0 24 24" version="1.1" xmlns="http://www.w3.org/2000/svg"
        xmlns:xlink="http://www.w3.org/1999/xlink">
        <g fill="none" fill-rule="evenodd" clip-rule="evenodd" stroke-width="2"
            stroke-linecap="round" stroke-linejoin="round">
            <path
                d="M11.9848 15.3462C8.11719 15.3462 4.81433 15.931 4.81433 18.2729C4.81433 20.6148 8.09624 21.2205 11.9848 21.2205C15.8524 21.2205 19.1543 20.6348 19.1543 18.2938C19.1543 15.9529 15.8734 15.3462 11.9848 15.3462Z" />
            <path opacity="0.5"
                d="M11.9848 12.0059C14.5229 12.0059 16.58 9.94779 16.58 7.40969C16.58 4.8716 14.5229 2.81445 11.9848 2.81445C9.44667 2.81445 7.38858 4.8716 7.38858 7.40969C7.38001 9.93922 9.42382 11.9973 11.9524 12.0059H11.9848Z" />
        </g>
    </symbol>
    <symbol id="Bookmark" viewBox="0 0 24 24" version="1.1" xmlns="http://www.w3.org/2000/svg"
        xmlns:xlink="http://www.w3.org/1999/xlink">
        <g fill="none" fill-rule="evenodd" clip-rule="evenodd" stroke-width="2"
            stroke-linecap="round" stroke-linejoin="round">
            <path
                d="M19.7388 6.15368C19.7388 3.40281 17.8581 2.30005 15.1503 2.30005H8.79143C6.16687 2.30005 4.19995 3.32762 4.19995 5.97022V20.694C4.19995 21.4198 4.9809 21.877 5.61348 21.5221L11.9954 17.9422L18.3223 21.5161C18.9558 21.873 19.7388 21.4158 19.7388 20.689V6.15368Z" />
            <path opacity="0.5" d="M8.27124 9.02811H15.5895" />
        </g>
    </symbol>
    <symbol id="Contacts" viewBox="0 0 24 24" version="1.1" xmlns="http://www.w3.org/2000/svg"
        xmlns:xlink="http://www.w3.org/1999/xlink">
        <g fill="none" fill-rule="evenodd" clip-rule="evenodd" stroke-width="2"
            stroke-linecap="round" stroke-linejoin="round">
            <path opacity="0.5" d="M14.353 2.5C18.054 2.911 20.978 5.831 21.393 9.532" />
            <path opacity="0.5" d="M14.353 6.04297C16.124 6.38697 17.508 7.77197 17.853 9.54297" />
            <path
                d="M11.0315 12.4724C15.0205 16.4604 15.9254 11.8467 18.4653 14.3848C20.9138 16.8328 22.3222 17.3232 19.2188 20.4247C18.8302 20.737 16.3613 24.4943 7.68447 15.8197C-0.993406 7.144 2.76157 4.67244 3.07394 4.28395C6.18377 1.17385 6.66682 2.58938 9.11539 5.03733C11.6541 7.5765 7.04254 8.48441 11.0315 12.4724Z" />
        </g>
    </symbol>
    <symbol id="Tick-square" viewBox="0 0 24 24" version="1.1" xmlns="http://www.w3.org/2000/svg"
        xmlns:xlink="http://www.w3.org/1999/xlink">
        <g fill="none" fill-rule="evenodd" clip-rule="evenodd" stroke-width="2"
            stroke-linecap="round" stroke-linejoin="round">
            <path
                d="M16.3344 2.75024H7.66537C4.64437 2.75024 2.75037 4.88924 2.75037 7.91624V16.0842C2.75037 19.1112 4.63537 21.2502 7.66537 21.2502H16.3334C19.3644 21.2502 21.2504 19.1112 21.2504 16.0842V7.91624C21.2504 4.88924 19.3644 2.75024 16.3344 2.75024Z" />
            <path opacity="0.5" d="M8.43982 12.0002L10.8138 14.3732L15.5598 9.6272" />
        </g>
    </symbol>
    <symbol id="Calendar" viewBox="0 0 24 24" version="1.1" xmlns="http://www.w3.org/2000/svg"
        xmlns:xlink="http://www.w3.org/1999/xlink">
        <g fill="none" fill-rule="evenodd" clip-rule="evenodd" stroke-width="2"
            stroke-linecap="round" stroke-linejoin="round">
            <path opacity="0.5" d="M3.09253 9.40421H20.9165" />
            <path opacity="0.5"
                d="M6.80786 13.3098C6.80786 12.8956 7.14365 12.5598 7.55786 12.5598H7.56713C7.98134 12.5598 8.31713 12.8956 8.31713 13.3098C8.31713 13.724 7.98134 14.0598 7.56713 14.0598H7.55786C7.14365 14.0598 6.80786 13.724 6.80786 13.3098ZM12.0046 12.5598C11.5904 12.5598 11.2546 12.8956 11.2546 13.3098C11.2546 13.724 11.5904 14.0598 12.0046 14.0598H12.0138C12.4281 14.0598 12.7638 13.724 12.7638 13.3098C12.7638 12.8956 12.4281 12.5598 12.0138 12.5598H12.0046ZM16.442 12.5598C16.0278 12.5598 15.692 12.8956 15.692 13.3098C15.692 13.724 16.0278 14.0598 16.442 14.0598H16.4513C16.8655 14.0598 17.2013 13.724 17.2013 13.3098C17.2013 12.8956 16.8655 12.5598 16.4513 12.5598H16.442ZM16.442 16.4463C16.0278 16.4463 15.692 16.7821 15.692 17.1963C15.692 17.6105 16.0278 17.9463 16.442 17.9463H16.4513C16.8655 17.9463 17.2013 17.6105 17.2013 17.1963C17.2013 16.7821 16.8655 16.4463 16.4513 16.4463H16.442ZM11.2546 17.1963C11.2546 16.7821 11.5904 16.4463 12.0046 16.4463H12.0138C12.4281 16.4463 12.7638 16.7821 12.7638 17.1963C12.7638 17.6105 12.4281 17.9463 12.0138 17.9463H12.0046C11.5904 17.9463 11.2546 17.6105 11.2546 17.1963ZM7.55786 16.4463C7.14365 16.4463 6.80786 16.7821 6.80786 17.1963C6.80786 17.6105 7.14365 17.9463 7.55786 17.9463H7.56713C7.98134 17.9463 8.31713 17.6105 8.31713 17.1963C8.31713 16.7821 7.98134 16.4463 7.56713 16.4463H7.55786Z" />
            <path d="M16.0438 2V5.29078" />
            <path d="M7.9654 2V5.29078" />
            <path
                d="M16.2383 3.5791H7.77096C4.83427 3.5791 3 5.21504 3 8.22213V17.2718C3 20.3261 4.83427 21.9999 7.77096 21.9999H16.229C19.175 21.9999 21 20.3545 21 17.3474V8.22213C21.0092 5.21504 19.1842 3.5791 16.2383 3.5791Z" />
        </g>
    </symbol>
    <symbol id="Camera" viewBox="0 0 24 24" version="1.1" xmlns="http://www.w3.org/2000/svg"
        xmlns:xlink="http://www.w3.org/1999/xlink">
        <g fill="none" fill-rule="evenodd" clip-rule="evenodd" stroke-width="2"
            stroke-linecap="round" stroke-linejoin="round">
            <path
                d="M15.0402 4.05126C16.0502 4.45326 16.3592 5.85326 16.7722 6.30326C17.1852 6.75326 17.7762 6.90626 18.1032 6.90626C19.8412 6.90626 21.2502 8.31526 21.2502 10.0523V15.8473C21.2502 18.1773 19.3602 20.0673 17.0302 20.0673H6.97024C4.63924 20.0673 2.75024 18.1773 2.75024 15.8473V10.0523C2.75024 8.31526 4.15924 6.90626 5.89724 6.90626C6.22324 6.90626 6.81424 6.75326 7.22824 6.30326C7.64124 5.85326 7.94924 4.45326 8.95924 4.05126C9.97024 3.64926 14.0302 3.64926 15.0402 4.05126Z" />
            <g>
                <path opacity="0.5" d="M17.4955 9.69995H17.5045" />
                <path opacity="0.5"
                    d="M15.1789 13.3279C15.1789 11.5719 13.7559 10.1489 11.9999 10.1489C10.2439 10.1489 8.82092 11.5719 8.82092 13.3279C8.82092 15.0839 10.2439 16.5069 11.9999 16.5069C13.7559 16.5069 15.1789 15.0839 15.1789 13.3279Z" />
            </g>
        </g>
    </symbol>
    <symbol id="Edit" viewBox="0 0 24 24" version="1.1" xmlns="http://www.w3.org/2000/svg"
        xmlns:xlink="http://www.w3.org/1999/xlink">
        <g fill="none" fill-rule="evenodd" clip-rule="evenodd" stroke-width="2"
            stroke-linecap="round" stroke-linejoin="round">
            <path opacity="0.5"
                d="M11.4922 2.78906H7.75324C4.67824 2.78906 2.75024 4.96606 2.75024 8.04806V16.3621C2.75024 19.4441 4.66924 21.6211 7.75324 21.6211H16.5772C19.6622 21.6211 21.5812 19.4441 21.5812 16.3621V12.3341" />
            <path
                d="M8.82763 10.921L16.3006 3.44799C17.2316 2.51799 18.7406 2.51799 19.6716 3.44799L20.8886 4.66499C21.8196 5.59599 21.8196 7.10599 20.8886 8.03599L13.3796 15.545C12.9726 15.952 12.4206 16.181 11.8446 16.181H8.09863L8.19263 12.401C8.20663 11.845 8.43363 11.315 8.82763 10.921Z" />
            <path d="M15.165 4.60254L19.731 9.16854" />
        </g>
    </symbol>
    <symbol id="Search-sidebar" viewBox="0 0 24 24" version="1.1" xmlns="http://www.w3.org/2000/svg"
        xmlns:xlink="http://www.w3.org/1999/xlink">
        <g fill="none" fill-rule="evenodd" clip-rule="evenodd" stroke-width="2"
            stroke-linecap="round" stroke-linejoin="round">
            <circle cx="11.7666" cy="11.7666" r="8.98856" />
            <path opacity="0.5" d="M18.0183 18.4851L21.5423 22" />
        </g>
    </symbol>
    <symbol id="More-box" viewBox="0 0 24 24" version="1.1" xmlns="http://www.w3.org/2000/svg"
        xmlns:xlink="http://www.w3.org/1999/xlink">
        <g fill="none" fill-rule="evenodd" clip-rule="evenodd" stroke-width="2"
            stroke-linecap="round" stroke-linejoin="round">
            <path
                d="M16.3347 2.75024H7.66573C4.64473 2.75024 2.75073 4.88924 2.75073 7.91624V16.0842C2.75073 19.1112 4.63473 21.2502 7.66573 21.2502H16.3337C19.3647 21.2502 21.2507 19.1112 21.2507 16.0842V7.91624C21.2507 4.88924 19.3647 2.75024 16.3347 2.75024Z" />
            <path opacity="0.5"
                d="M7.52088 13.1975C6.85988 13.1975 6.32288 12.6605 6.32288 12.0005C6.32288 11.3405 6.85988 10.8025 7.52088 10.8025C8.18188 10.8025 8.71888 11.3405 8.71888 12.0005C8.71888 12.6605 8.18188 13.1975 7.52088 13.1975Z" />
            <path opacity="0.5"
                d="M12.0002 13.1975C11.3392 13.1975 10.8022 12.6605 10.8022 12.0005C10.8022 11.3405 11.3392 10.8025 12.0002 10.8025C12.6612 10.8025 13.1982 11.3405 13.1982 12.0005C13.1982 12.6605 12.6612 13.1975 12.0002 13.1975Z" />
            <path opacity="0.5"
                d="M16.4792 13.1975C15.8182 13.1975 15.2812 12.6605 15.2812 12.0005C15.2812 11.3405 15.8182 10.8025 16.4792 10.8025C17.1402 10.8025 17.6772 11.3405 17.6772 12.0005C17.6772 12.6605 17.1402 13.1975 16.4792 13.1975Z" />
        </g>
    </symbol>
    <symbol id="Folder" viewBox="0 0 24 24" version="1.1" xmlns="http://www.w3.org/2000/svg"
        xmlns:xlink="http://www.w3.org/1999/xlink">
        <g fill="none" fill-rule="evenodd" clip-rule="evenodd" stroke-width="2"
            stroke-linecap="round" stroke-linejoin="round">
            <path
                d="M21.9446 15.7579C21.9446 19.336 19.836 21.4446 16.2579 21.4446H8.47173C4.88444 21.4446 2.77588 19.336 2.77588 15.7579V7.9626C2.77588 4.38444 4.09031 2.27588 7.66847 2.27588H9.66749C10.3858 2.27588 11.0621 2.61406 11.4931 3.18868L12.4059 4.40269C12.8378 4.97618 13.5135 5.31406 14.2315 5.31549H17.0611C20.6484 5.31549 21.972 7.14108 21.972 10.7923L21.9446 15.7579Z" />
            <path opacity="0.5" d="M7.55884 14.4891H17.1523" />
        </g>
    </symbol>
    <symbol id="Ticket-star" viewBox="0 0 24 24" version="1.1" xmlns="http://www.w3.org/2000/svg"
        xmlns:xlink="http://www.w3.org/1999/xlink">
        <g fill="none" fill-rule="evenodd" clip-rule="evenodd" stroke-width="2"
            stroke-linecap="round" stroke-linejoin="round">
            <path
                d="M17.8572 20.4168C19.7322 20.4168 21.2502 18.8978 21.2502 17.0238V14.3238C20.0102 14.3238 19.0102 13.3238 19.0102 12.0848C19.0102 10.8448 20.0102 9.84576 21.2502 9.84576L21.2482 7.14276C21.2482 5.26876 19.7302 3.74976 17.8562 3.74976H6.14424C4.27024 3.74976 2.75124 5.26876 2.75124 7.14276L2.75024 9.93276C3.98924 9.93276 4.98924 10.8448 4.98924 12.0848C4.98924 13.3238 3.98924 14.3238 2.75024 14.3238V17.0238C2.75024 18.8978 4.26824 20.4168 6.14224 20.4168H17.8572Z" />
            <path opacity="0.5"
                d="M11.9997 13.8543L13.7397 14.7693C13.9027 14.8543 14.0937 14.7163 14.0627 14.5353L13.7297 12.5963L15.1387 11.2253C15.2707 11.0963 15.1977 10.8733 15.0157 10.8463L13.0697 10.5633L12.1987 8.79929C12.1177 8.63429 11.8827 8.63429 11.8007 8.79929L10.9297 10.5633L8.98469 10.8463C8.80269 10.8733 8.72969 11.0963 8.86169 11.2253L10.2697 12.5963L9.93669 14.5353C9.90569 14.7163 10.0967 14.8543 10.2597 14.7693L11.9997 13.8543Z" />
        </g>
    </symbol>
    <symbol id="Category" viewBox="0 0 24 24" version="1.1" xmlns="http://www.w3.org/2000/svg"
        xmlns:xlink="http://www.w3.org/1999/xlink">
        <g fill="none" fill-rule="evenodd" clip-rule="evenodd" stroke-width="2"
            stroke-linecap="round" stroke-linejoin="round">
            <path
                d="M3 6.5C3 3.87479 3.02811 3 6.5 3C9.97189 3 10 3.87479 10 6.5C10 9.12521 10.0111 10 6.5 10C2.98893 10 3 9.12521 3 6.5Z" />
            <path opacity="0.5"
                d="M14 6.5C14 3.87479 14.0281 3 17.5 3C20.9719 3 21 3.87479 21 6.5C21 9.12521 21.0111 10 17.5 10C13.9889 10 14 9.12521 14 6.5Z" />
            <path
                d="M3 17.5C3 14.8748 3.02811 14 6.5 14C9.97189 14 10 14.8748 10 17.5C10 20.1252 10.0111 21 6.5 21C2.98893 21 3 20.1252 3 17.5Z" />
            <path
                d="M14 17.5C14 14.8748 14.0281 14 17.5 14C20.9719 14 21 14.8748 21 17.5C21 20.1252 21.0111 21 17.5 21C13.9889 21 14 20.1252 14 17.5Z" />
        </g>
    </symbol>
    <symbol id="Activity" viewBox="0 0 24 24" version="1.1" xmlns="http://www.w3.org/2000/svg"
        xmlns:xlink="http://www.w3.org/1999/xlink">
        <g fill="none" fill-rule="evenodd" clip-rule="evenodd" stroke-width="2"
            stroke-linecap="round" stroke-linejoin="round">
            <path opacity="0.5" d="M7.24487 14.7815L10.238 10.8914L13.6522 13.5733L16.5813 9.79297" />
            <circle cx="19.9954" cy="4.20027" r="1.9222" />
            <path
                d="M14.9245 3.12012H7.65679C4.64535 3.12012 2.77808 5.25284 2.77808 8.26428V16.3467C2.77808 19.3581 4.60874 21.4817 7.65679 21.4817H16.2609C19.2724 21.4817 21.1396 19.3581 21.1396 16.3467V9.30776" />
        </g>
    </symbol>
    <symbol id="Chart" viewBox="0 0 24 24" version="1.1" xmlns="http://www.w3.org/2000/svg"
        xmlns:xlink="http://www.w3.org/1999/xlink">
        <g fill="none" fill-rule="evenodd" clip-rule="evenodd" stroke-width="2"
            stroke-linecap="round" stroke-linejoin="round">
            <path opacity="0.5" d="M7.37145 10.2017V17.0618" />
            <path opacity="0.5" d="M12.0382 6.91919V17.0619" />
            <path opacity="0.5" d="M16.6285 13.8269V17.0619" />
            <path
                d="M16.6857 2H7.31429C4.04762 2 2 4.31208 2 7.58516V16.4148C2 19.6879 4.0381 22 7.31429 22H16.6857C19.9619 22 22 19.6879 22 16.4148V7.58516C22 4.31208 19.9619 2 16.6857 2Z" />
        </g>
    </symbol>
    <symbol id="Filter" viewBox="0 0 24 24" version="1.1" xmlns="http://www.w3.org/2000/svg"
        xmlns:xlink="http://www.w3.org/1999/xlink">
        <g fill="none" fill-rule="evenodd" clip-rule="evenodd" stroke-width="2"
            stroke-linecap="round" stroke-linejoin="round">
            <path opacity="0.5" d="M11 17.5H4" />
            <path
                d="M20 17.5C20 18.8807 18.8807 20 17.5 20C16.1193 20 15 18.8807 15 17.5C15 16.1183 16.1193 15 17.5 15C18.8807 15 20 16.1183 20 17.5Z" />
            <path opacity="0.5" d="M13 6.5H20" />
            <path
                d="M4 6.5C4 7.88174 5.11928 9 6.5 9C7.88072 9 9 7.88174 9 6.5C9 5.11928 7.88072 4 6.5 4C5.11928 4 4 5.11928 4 6.5Z" />
        </g>
    </symbol>
    <symbol id="Edit-line" viewBox="0 0 24 24" version="1.1" xmlns="http://www.w3.org/2000/svg"
        xmlns:xlink="http://www.w3.org/1999/xlink">
        <g fill="none" fill-rule="evenodd" clip-rule="evenodd" stroke-width="2"
            stroke-linecap="round" stroke-linejoin="round">
            <path opacity="0.5" d="M13.6997 19.8979H20.0767" />
            <path
                d="M12.855 4.95561C13.592 4.01661 14.783 4.06561 15.723 4.80261L17.113 5.89261C18.053 6.62961 18.386 7.77261 17.649 8.71361L9.35996 19.2886C9.08296 19.6426 8.65996 19.8516 8.20996 19.8566L5.01296 19.8976L4.28896 16.7826C4.18696 16.3456 4.28896 15.8856 4.56596 15.5306L12.855 4.95561Z" />
            <path opacity="0.5" d="M11.3027 6.93604L16.0967 10.694" />
        </g>
    </symbol>
    <symbol id="Paper-plus" viewBox="0 0 24 24" version="1.1" xmlns="http://www.w3.org/2000/svg"
        xmlns:xlink="http://www.w3.org/1999/xlink">
        <g fill="none" fill-rule="evenodd" clip-rule="evenodd" stroke-width="2"
            stroke-linecap="round" stroke-linejoin="round">
            <path
                d="M14.7362 2.76196H8.08424C6.02524 2.76196 4.25024 4.43096 4.25024 6.49096V17.34C4.25024 19.516 5.90824 21.115 8.08424 21.115H16.0722C18.1322 21.115 19.8022 19.4 19.8022 17.34V8.03796L14.7362 2.76196Z" />
            <path
                d="M14.4735 2.75024V5.65924C14.4735 7.07924 15.6225 8.23124 17.0425 8.23424C18.3585 8.23724 19.7055 8.23824 19.7965 8.23224" />
            <path opacity="0.5"
                d="M12.5936 10.4644C12.5936 10.0501 12.2578 9.71436 11.8436 9.71436C11.4294 9.71436 11.0936 10.0501 11.0936 10.4644V12.1641H9.39331C8.9791 12.1641 8.64331 12.4998 8.64331 12.9141C8.64331 13.3283 8.9791 13.6641 9.39331 13.6641H11.0936V15.3654C11.0936 15.7796 11.4294 16.1154 11.8436 16.1154C12.2578 16.1154 12.5936 15.7796 12.5936 15.3654V13.6641H14.2943C14.7085 13.6641 15.0443 13.3283 15.0443 12.9141C15.0443 12.4998 14.7085 12.1641 14.2943 12.1641H12.5936V10.4644Z" />
        </g>
    </symbol>
    <symbol id="Play" viewBox="0 0 24 24" version="1.1" xmlns="http://www.w3.org/2000/svg"
        xmlns:xlink="http://www.w3.org/1999/xlink">
        <g fill="none" fill-rule="evenodd" clip-rule="evenodd" stroke-width="2"
            stroke-linecap="round" stroke-linejoin="round">
            <path
                d="M12 2C17.5228 2 22 6.47716 22 12C22 17.5228 17.5228 22 12 22C6.47716 22 2 17.5228 2 12C2 6.47716 6.47716 2 12 2Z" />
            <path opacity="0.5"
                d="M15.0502 12.4668C14.3212 13.2528 12.3372 14.5828 11.3222 15.0098C11.1602 15.0778 10.7472 15.2218 10.6582 15.2238C10.4692 15.2298 10.2872 15.1238 10.1992 14.9538C10.1652 14.8878 10.0652 14.4568 10.0332 14.2648C9.93815 13.6808 9.88915 12.7738 9.89015 11.8618C9.88915 10.9048 9.94215 9.95483 10.0482 9.37683C10.0762 9.22083 10.1582 8.86183 10.1822 8.80383C10.2272 8.69583 10.3092 8.61083 10.4082 8.55783C10.4842 8.51683 10.5712 8.49483 10.6582 8.49783C10.7472 8.49983 11.1092 8.62683 11.2332 8.67583C12.2112 9.05583 14.2802 10.4338 15.0402 11.2438C15.1082 11.3168 15.2952 11.5128 15.3262 11.5528C15.3972 11.6428 15.4322 11.7518 15.4322 11.8618C15.4322 11.9638 15.4012 12.0678 15.3372 12.1548C15.3042 12.1998 15.1132 12.3998 15.0502 12.4668Z" />
        </g>
    </symbol>
    <symbol id="Star-kit" viewBox="0 0 24 24" version="1.1" xmlns="http://www.w3.org/2000/svg"
        xmlns:xlink="http://www.w3.org/1999/xlink">
        <g fill="none" fill-rule="evenodd" clip-rule="evenodd" stroke-width="2"
            stroke-linecap="round" stroke-linejoin="round">
            <path
                d="M13.1043 4.17701L14.9317 7.82776C15.1108 8.18616 15.4565 8.43467 15.8573 8.49218L19.9453 9.08062C20.9554 9.22644 21.3573 10.4505 20.6263 11.1519L17.6702 13.9924C17.3797 14.2718 17.2474 14.6733 17.3162 15.0676L18.0138 19.0778C18.1856 20.0698 17.1298 20.8267 16.227 20.3574L12.5732 18.4627C12.215 18.2768 11.786 18.2768 11.4268 18.4627L7.773 20.3574C6.87023 20.8267 5.81439 20.0698 5.98724 19.0778L6.68385 15.0676C6.75257 14.6733 6.62033 14.2718 6.32982 13.9924L3.37368 11.1519C2.64272 10.4505 3.04464 9.22644 4.05466 9.08062L8.14265 8.49218C8.54354 8.43467 8.89028 8.18616 9.06937 7.82776L10.8957 4.17701C11.3477 3.27433 12.6523 3.27433 13.1043 4.17701Z" />
        </g>
    </symbol>
    <symbol id="Password" viewBox="0 0 24 24" version="1.1" xmlns="http://www.w3.org/2000/svg"
        xmlns:xlink="http://www.w3.org/1999/xlink">
        <g fill="none" fill-rule="evenodd" clip-rule="evenodd" stroke-width="2"
            stroke-linecap="round" stroke-linejoin="round">
            <path opacity="0.5"
                d="M16.3344 2.75024H7.66537C4.64437 2.75024 2.75037 4.88924 2.75037 7.91624V16.0842C2.75037 19.1112 4.63537 21.2502 7.66537 21.2502H16.3334C19.3644 21.2502 21.2504 19.1112 21.2504 16.0842V7.91624C21.2504 4.88924 19.3644 2.75024 16.3344 2.75024Z" />
            <path
                d="M10.6923 12.0002C10.6923 13.0222 9.86326 13.8522 8.84026 13.8522C7.81826 13.8522 6.98926 13.0222 6.98926 12.0002C6.98926 10.9782 7.81826 10.1482 8.84026 10.1482C9.86326 10.1482 10.6923 10.9782 10.6923 12.0002Z" />
            <path d="M10.6923 12.0002H17.0103V13.8522" />
            <path d="M14.1815 13.8518V11.9998" />
        </g>
    </symbol>
    <symbol id="Gallery" viewBox="0 0 24 24" version="1.1" xmlns="http://www.w3.org/2000/svg"
        xmlns:xlink="http://www.w3.org/1999/xlink">
        <g fill="none" fill-rule="evenodd" clip-rule="evenodd" stroke-width="2"
            stroke-linecap="round" stroke-linejoin="round">
            <path
                d="M21.21 7.89924V16.0502C21.21 19.0702 19.32 21.2002 16.3 21.2002H7.65C4.63 21.2002 2.75 19.0702 2.75 16.0502V7.89924C2.75 4.87924 4.64 2.75024 7.65 2.75024H16.3C19.32 2.75024 21.21 4.87924 21.21 7.89924Z" />
            <path opacity="0.5"
                d="M5.28125 16.4311L6.80925 14.8181C7.34025 14.2551 8.22525 14.2281 8.78925 14.7581C8.80625 14.7751 9.72625 15.7101 9.72625 15.7101C10.2813 16.2751 11.1883 16.2841 11.7533 15.7301C11.7903 15.6941 14.0872 12.9081 14.0872 12.9081C14.6792 12.1891 15.7422 12.0861 16.4622 12.6791C16.5102 12.7191 18.6803 14.9461 18.6803 14.9461" />
            <path opacity="0.5"
                d="M10.3126 9.13315C10.3126 10.1022 9.52757 10.8872 8.55857 10.8872C7.58957 10.8872 6.80457 10.1022 6.80457 9.13315C6.80457 8.16415 7.58957 7.37915 8.55857 7.37915C9.52757 7.38015 10.3126 8.16415 10.3126 9.13315Z" />
        </g>
    </symbol>
    <symbol id="Game" viewBox="0 0 24 24" version="1.1" xmlns="http://www.w3.org/2000/svg"
        xmlns:xlink="http://www.w3.org/1999/xlink">
        <g fill="none" fill-rule="evenodd" clip-rule="evenodd" stroke-width="2"
            stroke-linecap="round" stroke-linejoin="round">
            <path d="M8.84819 12.314V16.059" />
            <path d="M10.7591 14.1868H6.93799" />
            <path d="M15.3661 12.428H15.259" />
            <path d="M17.1795 16.0027H17.0725" />
            <path opacity="0.5"
                d="M8.07227 2C8.07227 2.74048 8.68475 3.34076 9.44029 3.34076H10.4968C11.6624 3.34492 12.6065 4.27026 12.6118 5.41266V6.08771" />
            <path
                d="M16.4283 21.9625C13.4231 22.0134 10.473 22.0113 7.57275 21.9625C4.3535 21.9625 2 19.6663 2 16.5112V11.8616C2 8.70651 4.3535 6.41029 7.57275 6.41029C10.4889 6.36044 13.4411 6.36148 16.4283 6.41029C19.6476 6.41029 22 8.70755 22 11.8616V16.5112C22 19.6663 19.6476 21.9625 16.4283 21.9625Z" />
        </g>
    </symbol>
    <symbol id="Danger" viewBox="0 0 24 24" version="1.1" xmlns="http://www.w3.org/2000/svg"
        xmlns:xlink="http://www.w3.org/1999/xlink">
        <g fill="none" fill-rule="evenodd" clip-rule="evenodd" stroke-width="2"
            stroke-linecap="round" stroke-linejoin="round">
            <path opacity="0.5"
                d="M11.2504 16.2697C11.2504 15.8557 11.5864 15.5137 12.0004 15.5137C12.4144 15.5137 12.7504 15.8447 12.7504 16.2587V16.2697C12.7504 16.6837 12.4144 17.0197 12.0004 17.0197C11.5864 17.0197 11.2504 16.6837 11.2504 16.2697Z" />
            <path
                d="M4.79572 20.418H19.2777C20.4247 20.358 21.3067 19.381 21.2477 18.234C21.2347 18.002 21.1847 17.773 21.0967 17.559L13.8197 4.82298C13.2637 3.81798 11.9987 3.45398 10.9937 4.01098C10.6517 4.19898 10.3697 4.48098 10.1807 4.82298L2.90372 17.559C2.47172 18.623 2.98372 19.835 4.04672 20.268C4.26272 20.355 4.49072 20.405 4.72272 20.418" />
            <path opacity="0.5" d="M11.9899 13.3961V10.2961" />
        </g>
    </symbol>
    <symbol id="Filter-2" viewBox="0 0 24 24" version="1.1" xmlns="http://www.w3.org/2000/svg"
        xmlns:xlink="http://www.w3.org/1999/xlink">
        <g fill="none" fill-rule="evenodd" clip-rule="evenodd" stroke-width="2"
            stroke-linecap="round" stroke-linejoin="round">
            <path
                d="M4.56517 3C3.70108 3 3 3.71286 3 4.5904V5.52644C3 6.17647 3.24719 6.80158 3.68936 7.27177L8.5351 12.4243L8.53723 12.4211C9.47271 13.3788 9.99905 14.6734 9.99905 16.0233V20.5952C9.99905 20.9007 10.3187 21.0957 10.584 20.9516L13.3436 19.4479C13.7602 19.2204 14.0201 18.7784 14.0201 18.2984V16.0114C14.0201 14.6691 14.539 13.3799 15.466 12.4243L20.3117 7.27177C20.7528 6.80158 21 6.17647 21 5.52644V4.5904C21 3.71286 20.3 3 19.4359 3H4.56517Z" />
            <path opacity="0.5" d="M10 7H20.5" />
        </g>
    </symbol>
    <symbol id="Work" viewBox="0 0 24 24" version="1.1" xmlns="http://www.w3.org/2000/svg"
        xmlns:xlink="http://www.w3.org/1999/xlink">
        <g fill="none" fill-rule="evenodd" clip-rule="evenodd" stroke-width="2"
            stroke-linecap="round" stroke-linejoin="round">
            <path opacity="0.5"
                d="M2.80408 15.4771C2.80408 15.4771 2.94608 17.2151 2.97908 17.7631C3.02308 18.4981 3.30708 19.3191 3.78108 19.8891C4.45008 20.6971 5.23808 20.9821 6.29008 20.9841C7.52708 20.9861 16.5221 20.9861 17.7591 20.9841C18.8111 20.9821 19.5991 20.6971 20.2681 19.8891C20.7421 19.3191 21.0261 18.4981 21.0711 17.7631C21.1031 17.2151 21.2451 15.4771 21.2451 15.4771" />
            <path
                d="M8.49597 5.32949V4.95849C8.49597 3.73849 9.48397 2.75049 10.704 2.75049H13.286C14.505 2.75049 15.494 3.73849 15.494 4.95849L15.495 5.32949" />
            <path d="M11.995 16.6783V15.3843" />
            <path
                d="M2.74988 8.38905V11.8561C4.66788 13.1211 6.96588 14.0071 9.48788 14.3581C9.78988 13.2571 10.7829 12.4501 11.9899 12.4501C13.1779 12.4501 14.1909 13.2571 14.4729 14.3681C17.0049 14.0171 19.3119 13.1311 21.2399 11.8561V8.38905C21.2399 6.69505 19.8769 5.33105 18.1829 5.33105H5.81688C4.12288 5.33105 2.74988 6.69505 2.74988 8.38905Z" />
        </g>
    </symbol>
    <symbol id="Discovery" viewBox="0 0 24 24" version="1.1" xmlns="http://www.w3.org/2000/svg"
        xmlns:xlink="http://www.w3.org/1999/xlink">
        <g fill="none" fill-rule="evenodd" clip-rule="evenodd" stroke-width="2"
            stroke-linecap="round" stroke-linejoin="round">
            <path opacity="0.5"
                d="M8.27002 14.9519L9.8627 9.8627L14.9519 8.27002L13.3593 13.3593L8.27002 14.9519Z" />
            <circle cx="11.611" cy="11.611" r="9.61098" />
        </g>
    </symbol>
    <symbol id="Shield" viewBox="0 0 24 24" version="1.1" xmlns="http://www.w3.org/2000/svg"
        xmlns:xlink="http://www.w3.org/1999/xlink">
        <g fill="none" fill-rule="evenodd" clip-rule="evenodd" stroke-width="2"
            stroke-linecap="round" stroke-linejoin="round">
            <path
                d="M18.865 5.12377C19.302 5.27677 19.594 5.68877 19.594 6.15177V12.9248C19.594 14.8178 18.906 16.6248 17.691 18.0248C17.08 18.7298 16.307 19.2788 15.486 19.7228L11.928 21.6448L8.364 19.7218C7.542 19.2778 6.768 18.7298 6.156 18.0238C4.94 16.6238 4.25 14.8158 4.25 12.9208V6.15177C4.25 5.68877 4.542 5.27677 4.979 5.12377L11.561 2.81077C11.795 2.72877 12.05 2.72877 12.283 2.81077L18.865 5.12377Z" />
            <path opacity="0.5" d="M9.32251 11.9176L11.2145 13.8106L15.1125 9.9126" />
        </g>
    </symbol>
    <symbol id="Setting" viewBox="0 0 24 24" version="1.1" xmlns="http://www.w3.org/2000/svg"
        xmlns:xlink="http://www.w3.org/1999/xlink">
        <g fill="none" fill-rule="evenodd" clip-rule="evenodd" stroke-width="2"
            stroke-linecap="round" stroke-linejoin="round">
            <path
                d="M20.8067 7.62361L20.1842 6.54352C19.6577 5.6296 18.4907 5.31432 17.5755 5.83872V5.83872C17.1399 6.09534 16.6201 6.16815 16.1307 6.04109C15.6413 5.91402 15.2226 5.59752 14.9668 5.16137C14.8023 4.88415 14.7139 4.56839 14.7105 4.24604V4.24604C14.7254 3.72922 14.5304 3.2284 14.17 2.85767C13.8096 2.48694 13.3145 2.27786 12.7975 2.27808H11.5435C11.037 2.27807 10.5513 2.47991 10.194 2.83895C9.83669 3.19798 9.63717 3.68459 9.63961 4.19112V4.19112C9.6246 5.23693 8.77248 6.07681 7.72657 6.0767C7.40421 6.07336 7.08846 5.98494 6.81123 5.82041V5.82041C5.89606 5.29601 4.72911 5.61129 4.20254 6.52522L3.53435 7.62361C3.00841 8.53639 3.3194 9.70261 4.23 10.2323V10.2323C4.8219 10.574 5.18653 11.2056 5.18653 11.8891C5.18653 12.5725 4.8219 13.2041 4.23 13.5458V13.5458C3.32056 14.0719 3.00923 15.2353 3.53435 16.1454V16.1454L4.16593 17.2346C4.41265 17.6798 4.8266 18.0083 5.31619 18.1474C5.80578 18.2866 6.33064 18.2249 6.77462 17.976V17.976C7.21108 17.7213 7.73119 17.6516 8.21934 17.7822C8.70749 17.9128 9.12324 18.233 9.37416 18.6717C9.5387 18.9489 9.62711 19.2646 9.63046 19.587V19.587C9.63046 20.6435 10.487 21.5 11.5435 21.5H12.7975C13.8505 21.5001 14.7055 20.6491 14.7105 19.5962V19.5962C14.7081 19.088 14.9089 18.6 15.2682 18.2407C15.6275 17.8814 16.1155 17.6807 16.6236 17.6831C16.9452 17.6917 17.2596 17.7798 17.5389 17.9394V17.9394C18.4517 18.4653 19.6179 18.1544 20.1476 17.2438V17.2438L20.8067 16.1454C21.0618 15.7075 21.1318 15.186 21.0012 14.6964C20.8706 14.2067 20.5502 13.7894 20.111 13.5367V13.5367C19.6718 13.284 19.3514 12.8666 19.2208 12.3769C19.0902 11.8873 19.1603 11.3658 19.4154 10.928C19.5812 10.6383 19.8214 10.3982 20.111 10.2323V10.2323C21.0161 9.70289 21.3264 8.54349 20.8067 7.63277V7.63277V7.62361Z" />
            <circle opacity="0.5" cx="12.175" cy="11.8891" r="2.63616" />
        </g>
    </symbol>
    <symbol id="Ticket" viewBox="0 0 24 24" version="1.1" xmlns="http://www.w3.org/2000/svg"
        xmlns:xlink="http://www.w3.org/1999/xlink">
        <g fill="none" fill-rule="evenodd" clip-rule="evenodd" stroke-width="2"
            stroke-linecap="round" stroke-linejoin="round">
            <path opacity="0.5" d="M13.8497 4.25024V6.67024" />
            <path opacity="0.5" d="M13.8497 17.76V19.784" />
            <path opacity="0.5" d="M13.8497 14.3247V9.50366" />
            <path
                d="M18.7021 20C20.5242 20 22 18.5426 22 16.7431V14.1506C20.7943 14.1506 19.8233 13.1917 19.8233 12.001C19.8233 10.8104 20.7943 9.85039 22 9.85039L21.999 7.25686C21.999 5.45745 20.5221 4 18.7011 4H5.29892C3.47789 4 2.00104 5.45745 2.00104 7.25686L2 9.93485C3.20567 9.93485 4.17668 10.8104 4.17668 12.001C4.17668 13.1917 3.20567 14.1506 2 14.1506V16.7431C2 18.5426 3.4758 20 5.29787 20H18.7021Z" />
        </g>
    </symbol>
    <symbol id="moondark" xmlns="http://www.w3.org/2000/svg" viewBox="0 0 18 18">
        <path
            d="M1.52251 9.31497C1.79251 13.1775 5.07001 16.32 8.99251 16.4925C11.76 16.6125 14.235 15.3225 15.72 13.29C16.335 12.4575 16.005 11.9025 14.9775 12.09C14.475 12.18 13.9575 12.2175 13.4175 12.195C9.75001 12.045 6.75001 8.97747 6.73501 5.35497C6.72751 4.37997 6.93001 3.45747 7.29751 2.61747C7.70251 1.68747 7.21501 1.24497 6.27751 1.64247C3.30751 2.89497 1.27501 5.88747 1.52251 9.31497Z"
            stroke-width="1.2" stroke-linecap="round" stroke-linejoin="round" />
    </symbol>
    <symbol id="cart-icon" xmlns="http://www.w3.org/2000/svg" viewBox="0 0 18 18" fill="none">
        <path
            d="M2.25751 8.41504V11.7825C2.25751 15.15 3.60751 16.5 6.97501 16.5H11.0175C14.385 16.5 15.735 15.15 15.735 11.7825V8.41504"
            stroke-width="1.2" stroke-linecap="round" stroke-linejoin="round" />
        <path
            d="M8.99999 9C10.3725 9 11.385 7.8825 11.25 6.51L10.755 1.5H7.25249L6.74999 6.51C6.61499 7.8825 7.62749 9 8.99999 9Z"
            stroke-width="1.2" stroke-linecap="round" stroke-linejoin="round" />
        <path
            d="M13.7325 9C15.2475 9 16.3575 7.77 16.2075 6.2625L15.9975 4.2C15.7275 2.25 14.9775 1.5 13.0125 1.5H10.725L11.25 6.7575C11.3775 7.995 12.495 9 13.7325 9Z"
            stroke-width="1.2" stroke-linecap="round" stroke-linejoin="round" />
        <path
            d="M4.23 9C5.4675 9 6.585 7.995 6.705 6.7575L6.87 5.1L7.23 1.5H4.9425C2.9775 1.5 2.2275 2.25 1.9575 4.2L1.755 6.2625C1.605 7.77 2.715 9 4.23 9Z"
            stroke-width="1.2" stroke-linecap="round" stroke-linejoin="round" />
        <path
            d="M9 12.75C7.7475 12.75 7.125 13.3725 7.125 14.625V16.5H10.875V14.625C10.875 13.3725 10.2525 12.75 9 12.75Z"
            stroke-width="1.2" stroke-linecap="round" stroke-linejoin="round" />
    </symbol>
    <symbol id="notification" xmlns="http://www.w3.org/2000/svg" viewBox="0 0 18 18" fill="none">
        <path d="M9 4.83008V7.32758" stroke-width="1.2" stroke-miterlimit="10"
            stroke-linecap="round" />
        <path
            d="M9.01502 1.5C6.25502 1.5 4.02001 3.735 4.02001 6.495V8.07C4.02001 8.58 3.81001 9.345 3.54751 9.78L2.59501 11.37C2.01001 12.3525 2.41501 13.4475 3.49501 13.8075C7.08001 15 10.9575 15 14.5425 13.8075C15.555 13.47 15.99 12.285 15.4425 11.37L14.49 9.78C14.2275 9.345 14.0175 8.5725 14.0175 8.07V6.495C14.01 3.75 11.76 1.5 9.01502 1.5Z"
            stroke-width="1.2" stroke-miterlimit="10" stroke-linecap="round" />
        <path
            d="M11.4975 14.115C11.4975 15.4875 10.3725 16.6125 9 16.6125C8.3175 16.6125 7.6875 16.3275 7.2375 15.8775C6.7875 15.4275 6.5025 14.7975 6.5025 14.115"
            stroke-width="1.2" stroke-miterlimit="10" />
    </symbol>
    <symbol id="scanfull" xmlns="http://www.w3.org/2000/svg" viewBox="0 0 18 18" fill="none">
        <path d="M1.5 6.75V5.25C1.5 3 3 1.5 5.25 1.5H12.75C15 1.5 16.5 3 16.5 5.25V6.75"
            stroke-width="1.2" stroke-miterlimit="10" stroke-linecap="round" stroke-linejoin="round" />
        <path d="M1.5 11.25V12.75C1.5 15 3 16.5 5.25 16.5H12.75C15 16.5 16.5 15 16.5 12.75V11.25"
            stroke-width="1.2" stroke-miterlimit="10" stroke-linecap="round" stroke-linejoin="round" />
        <path d="M1.5 9H16.5" stroke-width="1.2" stroke-miterlimit="10" stroke-linecap="round"
            stroke-linejoin="round" />
    </symbol>
    <symbol id="bookmark" xmlns="http://www.w3.org/2000/svg" viewBox="0 0 18 18" fill="none">
        <path d="M6.9375 6.7876C8.2725 7.2751 9.7275 7.2751 11.0625 6.7876" stroke-width="1.2"
            stroke-linecap="round" stroke-linejoin="round" />
        <path
            d="M12.615 1.5H5.38499C3.78749 1.5 2.48999 2.805 2.48999 4.395V14.9625C2.48999 16.3125 3.45749 16.8825 4.64249 16.23L8.30249 14.1975C8.69249 13.98 9.32249 13.98 9.70499 14.1975L13.365 16.23C14.55 16.89 15.5175 16.32 15.5175 14.9625V4.395C15.51 2.805 14.2125 1.5 12.615 1.5Z"
            stroke-width="1.2" stroke-linecap="round" stroke-linejoin="round" />
        <path
            d="M12.615 1.5H5.38499C3.78749 1.5 2.48999 2.805 2.48999 4.395V14.9625C2.48999 16.3125 3.45749 16.8825 4.64249 16.23L8.30249 14.1975C8.69249 13.98 9.32249 13.98 9.70499 14.1975L13.365 16.23C14.55 16.89 15.5175 16.32 15.5175 14.9625V4.395C15.51 2.805 14.2125 1.5 12.615 1.5Z"
            stroke-width="1.2" stroke-linecap="round" stroke-linejoin="round" />
    </symbol>
    <symbol id="cloud-header" xmlns="http://www.w3.org/2000/svg" viewBox="0 0 24 24" fill="none">
        <path
            d="M17.1356 20C20.0424 20 22 17.6122 22 14.6667C22 12.4665 20.6853 10.5776 18.8086 9.76241C18.4665 6.52713 15.5488 4 12 4C8.22121 4 5.15789 6.86538 5.15789 10.4C5.15789 10.4908 5.15992 10.5811 5.16392 10.671C3.32099 11.3282 2 13.1078 2 15.2C2 17.851 3.82836 20 6.44444 20"
            stroke-width="1.5" stroke-linecap="round" />
        <path
            d="M10.7 16L9.70001 17.7321M14.1641 18L13.1641 19.7321M10.9321 19.5981L9.93207 21.3301"
            stroke-opacity="0.4" stroke-width="1.5" stroke-linecap="round" />
    </symbol>
    <symbol id="Login" viewBox="0 0 24 24" version="1.1" xmlns="http://www.w3.org/2000/svg"
    xmlns:xlink="http://www.w3.org/1999/xlink">
    <g fill="none" fill-rule="evenodd" clip-rule="evenodd" stroke-width="2"
        stroke-linecap="round" stroke-linejoin="round">
        <path d="M15.8125 12.0217H3.77148" />
        <path d="M12.8848 9.10571L15.8128 12.0217L12.8848 14.9377" />
        <path opacity="0.5"
            d="M8.50439 7.38897V6.45597C8.50439 4.42097 10.1534 2.77197 12.1894 2.77197H17.0734C19.1034 2.77197 20.7484 4.41697 20.7484 6.44697V17.587C20.7484 19.622 19.0984 21.272 17.0634 21.272H12.1784C10.1494 21.272 8.50439 19.626 8.50439 17.597V16.655" />
    </g>
    </symbol>

</svg> 