<svg width="30" height="30" viewBox="0 0 30 30" fill="none" xmlns="http://www.w3.org/2000/svg">
<rect x="5" y="5" width="20" height="20" rx="3" fill="white"/>
<path d="M16.875 15V15.5C17.5989 15.5 18.25 16.1511 18.25 16.875V18.75C18.25 19.2804 18.0393 19.7891 17.6642 20.1642C17.2891 20.5393 16.7804 20.75 16.25 20.75H11.75V9.25H16.25C16.7804 9.25 17.2891 9.46071 17.6642 9.83579C18.0393 10.2109 18.25 10.7196 18.25 11.25V13.125C18.25 13.8489 17.5989 14.5 16.875 14.5V15ZM16.25 19.25H16.75V18.75V16.25V15.75H16.25H13.75H13.25V16.25V18.75V19.25H13.75H16.25ZM16.25 14.25H16.75V13.75V11.25V10.75H16.25H13.75H13.25V11.25V13.75V14.25H13.75H16.25ZM23.75 3.25H6.25C5.45435 3.25 4.69129 3.56607 4.12868 4.12868C3.56607 4.69129 3.25 5.45435 3.25 6.25V23.75C3.25 24.5457 3.56607 25.3087 4.12868 25.8713C4.69129 26.4339 5.45435 26.75 6.25 26.75H23.75C24.5457 26.75 25.3087 26.4339 25.8713 25.8713C26.4339 25.3087 26.75 24.5457 26.75 23.75V6.25C26.75 5.45435 26.4339 4.69129 25.8713 4.12868C25.3087 3.56607 24.5457 3.25 23.75 3.25Z" fill="#308E87" stroke="white"/>
</svg>
