<svg width="30" height="30" viewBox="0 0 30 30" fill="none" xmlns="http://www.w3.org/2000/svg">
<rect x="5" y="5" width="20" height="20" rx="3" fill="white"/>
<path d="M14 16H13.5V16.5V21H12V11.5C12 10.9696 12.2107 10.4609 12.5858 10.0858C12.9609 9.71071 13.4696 9.5 14 9.5H16.5C17.0304 9.5 17.5391 9.71071 17.9142 10.0858C18.2893 10.4609 18.5 10.9696 18.5 11.5V21H17V16.5V16H16.5H14ZM14 11H13.5V11.5V14V14.5H14H16.5H17V14V11.5V11H16.5H14ZM4.37868 4.37868C3.81607 4.94129 3.5 5.70435 3.5 6.5V24C3.5 25.6495 4.83473 27 6.5 27H24C24.7956 27 25.5587 26.6839 26.1213 26.1213C26.6839 25.5587 27 24.7956 27 24V6.5C27 5.70435 26.6839 4.94129 26.1213 4.37868C25.5587 3.81607 24.7956 3.5 24 3.5H6.5C5.70435 3.5 4.94129 3.81607 4.37868 4.37868Z" fill="#308E87" stroke="white"/>
</svg>
